G04 #@! TF.GenerationSoftware,KiCad,Pcbnew,(6.0.7)*
G04 #@! TF.CreationDate,2022-10-20T14:31:20-04:00*
G04 #@! TF.ProjectId,ECE477_PCB,45434534-3737-45f5-9043-422e6b696361,rev?*
G04 #@! TF.SameCoordinates,PX2daf690PY1aab7d8*
G04 #@! TF.FileFunction,Legend,Top*
G04 #@! TF.FilePolarity,Positive*
%FSLAX46Y46*%
G04 Gerber Fmt 4.6, Leading zero omitted, Abs format (unit mm)*
G04 Created by KiCad (PCBNEW (6.0.7)) date 2022-10-20 14:31:20*
%MOMM*%
%LPD*%
G01*
G04 APERTURE LIST*
%ADD10C,0.150000*%
%ADD11C,0.120000*%
G04 APERTURE END LIST*
D10*
X36176247Y-25401057D02*
X36442914Y-25401057D01*
X36557200Y-25820104D02*
X36176247Y-25820104D01*
X36176247Y-25020104D01*
X36557200Y-25020104D01*
X37357200Y-25743914D02*
X37319104Y-25782009D01*
X37204819Y-25820104D01*
X37128628Y-25820104D01*
X37014342Y-25782009D01*
X36938152Y-25705819D01*
X36900057Y-25629628D01*
X36861961Y-25477247D01*
X36861961Y-25362961D01*
X36900057Y-25210580D01*
X36938152Y-25134390D01*
X37014342Y-25058200D01*
X37128628Y-25020104D01*
X37204819Y-25020104D01*
X37319104Y-25058200D01*
X37357200Y-25096295D01*
X37700057Y-25401057D02*
X37966723Y-25401057D01*
X38081009Y-25820104D02*
X37700057Y-25820104D01*
X37700057Y-25020104D01*
X38081009Y-25020104D01*
X38766723Y-25286771D02*
X38766723Y-25820104D01*
X38576247Y-24982009D02*
X38385771Y-25553438D01*
X38881009Y-25553438D01*
X39109580Y-25020104D02*
X39642914Y-25020104D01*
X39300057Y-25820104D01*
X39871485Y-25020104D02*
X40404819Y-25020104D01*
X40061961Y-25820104D01*
X36061961Y-26689057D02*
X35795295Y-26689057D01*
X35795295Y-27108104D02*
X35795295Y-26308104D01*
X36176247Y-26308104D01*
X36823866Y-27108104D02*
X36823866Y-26689057D01*
X36785771Y-26612866D01*
X36709580Y-26574771D01*
X36557200Y-26574771D01*
X36481009Y-26612866D01*
X36823866Y-27070009D02*
X36747676Y-27108104D01*
X36557200Y-27108104D01*
X36481009Y-27070009D01*
X36442914Y-26993819D01*
X36442914Y-26917628D01*
X36481009Y-26841438D01*
X36557200Y-26803342D01*
X36747676Y-26803342D01*
X36823866Y-26765247D01*
X37319104Y-27108104D02*
X37242914Y-27070009D01*
X37204819Y-26993819D01*
X37204819Y-26308104D01*
X37738152Y-27108104D02*
X37661961Y-27070009D01*
X37623866Y-26993819D01*
X37623866Y-26308104D01*
X38614342Y-26384295D02*
X38652438Y-26346200D01*
X38728628Y-26308104D01*
X38919104Y-26308104D01*
X38995295Y-26346200D01*
X39033390Y-26384295D01*
X39071485Y-26460485D01*
X39071485Y-26536676D01*
X39033390Y-26650961D01*
X38576247Y-27108104D01*
X39071485Y-27108104D01*
X39566723Y-26308104D02*
X39642914Y-26308104D01*
X39719104Y-26346200D01*
X39757200Y-26384295D01*
X39795295Y-26460485D01*
X39833390Y-26612866D01*
X39833390Y-26803342D01*
X39795295Y-26955723D01*
X39757200Y-27031914D01*
X39719104Y-27070009D01*
X39642914Y-27108104D01*
X39566723Y-27108104D01*
X39490533Y-27070009D01*
X39452438Y-27031914D01*
X39414342Y-26955723D01*
X39376247Y-26803342D01*
X39376247Y-26612866D01*
X39414342Y-26460485D01*
X39452438Y-26384295D01*
X39490533Y-26346200D01*
X39566723Y-26308104D01*
X40138152Y-26384295D02*
X40176247Y-26346200D01*
X40252438Y-26308104D01*
X40442914Y-26308104D01*
X40519104Y-26346200D01*
X40557200Y-26384295D01*
X40595295Y-26460485D01*
X40595295Y-26536676D01*
X40557200Y-26650961D01*
X40100057Y-27108104D01*
X40595295Y-27108104D01*
X40900057Y-26384295D02*
X40938152Y-26346200D01*
X41014342Y-26308104D01*
X41204819Y-26308104D01*
X41281009Y-26346200D01*
X41319104Y-26384295D01*
X41357200Y-26460485D01*
X41357200Y-26536676D01*
X41319104Y-26650961D01*
X40861961Y-27108104D01*
X41357200Y-27108104D01*
X36404819Y-27596104D02*
X36861961Y-27596104D01*
X36633390Y-28396104D02*
X36633390Y-27596104D01*
X37433390Y-28358009D02*
X37357200Y-28396104D01*
X37204819Y-28396104D01*
X37128628Y-28358009D01*
X37090533Y-28281819D01*
X37090533Y-27977057D01*
X37128628Y-27900866D01*
X37204819Y-27862771D01*
X37357200Y-27862771D01*
X37433390Y-27900866D01*
X37471485Y-27977057D01*
X37471485Y-28053247D01*
X37090533Y-28129438D01*
X38157200Y-28396104D02*
X38157200Y-27977057D01*
X38119104Y-27900866D01*
X38042914Y-27862771D01*
X37890533Y-27862771D01*
X37814342Y-27900866D01*
X38157200Y-28358009D02*
X38081009Y-28396104D01*
X37890533Y-28396104D01*
X37814342Y-28358009D01*
X37776247Y-28281819D01*
X37776247Y-28205628D01*
X37814342Y-28129438D01*
X37890533Y-28091342D01*
X38081009Y-28091342D01*
X38157200Y-28053247D01*
X38538152Y-28396104D02*
X38538152Y-27862771D01*
X38538152Y-27938961D02*
X38576247Y-27900866D01*
X38652438Y-27862771D01*
X38766723Y-27862771D01*
X38842914Y-27900866D01*
X38881009Y-27977057D01*
X38881009Y-28396104D01*
X38881009Y-27977057D02*
X38919104Y-27900866D01*
X38995295Y-27862771D01*
X39109580Y-27862771D01*
X39185771Y-27900866D01*
X39223866Y-27977057D01*
X39223866Y-28396104D01*
X40328628Y-27938961D02*
X40252438Y-27900866D01*
X40214342Y-27862771D01*
X40176247Y-27786580D01*
X40176247Y-27748485D01*
X40214342Y-27672295D01*
X40252438Y-27634200D01*
X40328628Y-27596104D01*
X40481009Y-27596104D01*
X40557200Y-27634200D01*
X40595295Y-27672295D01*
X40633390Y-27748485D01*
X40633390Y-27786580D01*
X40595295Y-27862771D01*
X40557200Y-27900866D01*
X40481009Y-27938961D01*
X40328628Y-27938961D01*
X40252438Y-27977057D01*
X40214342Y-28015152D01*
X40176247Y-28091342D01*
X40176247Y-28243723D01*
X40214342Y-28319914D01*
X40252438Y-28358009D01*
X40328628Y-28396104D01*
X40481009Y-28396104D01*
X40557200Y-28358009D01*
X40595295Y-28319914D01*
X40633390Y-28243723D01*
X40633390Y-28091342D01*
X40595295Y-28015152D01*
X40557200Y-27977057D01*
X40481009Y-27938961D01*
X49144285Y-26687428D02*
X48944285Y-26401714D01*
X48801428Y-26687428D02*
X48801428Y-26087428D01*
X49030000Y-26087428D01*
X49087142Y-26116000D01*
X49115714Y-26144571D01*
X49144285Y-26201714D01*
X49144285Y-26287428D01*
X49115714Y-26344571D01*
X49087142Y-26373142D01*
X49030000Y-26401714D01*
X48801428Y-26401714D01*
X49715714Y-26687428D02*
X49372857Y-26687428D01*
X49544285Y-26687428D02*
X49544285Y-26087428D01*
X49487142Y-26173142D01*
X49430000Y-26230285D01*
X49372857Y-26258857D01*
X50230000Y-26287428D02*
X50230000Y-26687428D01*
X50087142Y-26058857D02*
X49944285Y-26487428D01*
X50315714Y-26487428D01*
X51071428Y-26293714D02*
X50785714Y-26493714D01*
X51071428Y-26636571D02*
X50471428Y-26636571D01*
X50471428Y-26408000D01*
X50500000Y-26350857D01*
X50528571Y-26322285D01*
X50585714Y-26293714D01*
X50671428Y-26293714D01*
X50728571Y-26322285D01*
X50757142Y-26350857D01*
X50785714Y-26408000D01*
X50785714Y-26636571D01*
X51071428Y-25722285D02*
X51071428Y-26065142D01*
X51071428Y-25893714D02*
X50471428Y-25893714D01*
X50557142Y-25950857D01*
X50614285Y-26008000D01*
X50642857Y-26065142D01*
X50728571Y-25379428D02*
X50700000Y-25436571D01*
X50671428Y-25465142D01*
X50614285Y-25493714D01*
X50585714Y-25493714D01*
X50528571Y-25465142D01*
X50500000Y-25436571D01*
X50471428Y-25379428D01*
X50471428Y-25265142D01*
X50500000Y-25208000D01*
X50528571Y-25179428D01*
X50585714Y-25150857D01*
X50614285Y-25150857D01*
X50671428Y-25179428D01*
X50700000Y-25208000D01*
X50728571Y-25265142D01*
X50728571Y-25379428D01*
X50757142Y-25436571D01*
X50785714Y-25465142D01*
X50842857Y-25493714D01*
X50957142Y-25493714D01*
X51014285Y-25465142D01*
X51042857Y-25436571D01*
X51071428Y-25379428D01*
X51071428Y-25265142D01*
X51042857Y-25208000D01*
X51014285Y-25179428D01*
X50957142Y-25150857D01*
X50842857Y-25150857D01*
X50785714Y-25179428D01*
X50757142Y-25208000D01*
X50728571Y-25265142D01*
X42694285Y-29227428D02*
X42694285Y-28627428D01*
X42894285Y-29056000D01*
X43094285Y-28627428D01*
X43094285Y-29227428D01*
X43694285Y-29227428D02*
X43351428Y-29227428D01*
X43522857Y-29227428D02*
X43522857Y-28627428D01*
X43465714Y-28713142D01*
X43408571Y-28770285D01*
X43351428Y-28798857D01*
X61485428Y-8316857D02*
X60885428Y-8316857D01*
X60885428Y-8174000D01*
X60914000Y-8088285D01*
X60971142Y-8031142D01*
X61028285Y-8002571D01*
X61142571Y-7974000D01*
X61228285Y-7974000D01*
X61342571Y-8002571D01*
X61399714Y-8031142D01*
X61456857Y-8088285D01*
X61485428Y-8174000D01*
X61485428Y-8316857D01*
X61485428Y-7688285D02*
X61485428Y-7574000D01*
X61456857Y-7516857D01*
X61428285Y-7488285D01*
X61342571Y-7431142D01*
X61228285Y-7402571D01*
X60999714Y-7402571D01*
X60942571Y-7431142D01*
X60914000Y-7459714D01*
X60885428Y-7516857D01*
X60885428Y-7631142D01*
X60914000Y-7688285D01*
X60942571Y-7716857D01*
X60999714Y-7745428D01*
X61142571Y-7745428D01*
X61199714Y-7716857D01*
X61228285Y-7688285D01*
X61256857Y-7631142D01*
X61256857Y-7516857D01*
X61228285Y-7459714D01*
X61199714Y-7431142D01*
X61142571Y-7402571D01*
X60320285Y-13987428D02*
X60120285Y-13701714D01*
X59977428Y-13987428D02*
X59977428Y-13387428D01*
X60206000Y-13387428D01*
X60263142Y-13416000D01*
X60291714Y-13444571D01*
X60320285Y-13501714D01*
X60320285Y-13587428D01*
X60291714Y-13644571D01*
X60263142Y-13673142D01*
X60206000Y-13701714D01*
X59977428Y-13701714D01*
X60891714Y-13987428D02*
X60548857Y-13987428D01*
X60720285Y-13987428D02*
X60720285Y-13387428D01*
X60663142Y-13473142D01*
X60606000Y-13530285D01*
X60548857Y-13558857D01*
X61091714Y-13387428D02*
X61491714Y-13387428D01*
X61234571Y-13987428D01*
X60320285Y-15003428D02*
X60120285Y-14717714D01*
X59977428Y-15003428D02*
X59977428Y-14403428D01*
X60206000Y-14403428D01*
X60263142Y-14432000D01*
X60291714Y-14460571D01*
X60320285Y-14517714D01*
X60320285Y-14603428D01*
X60291714Y-14660571D01*
X60263142Y-14689142D01*
X60206000Y-14717714D01*
X59977428Y-14717714D01*
X60548857Y-14460571D02*
X60577428Y-14432000D01*
X60634571Y-14403428D01*
X60777428Y-14403428D01*
X60834571Y-14432000D01*
X60863142Y-14460571D01*
X60891714Y-14517714D01*
X60891714Y-14574857D01*
X60863142Y-14660571D01*
X60520285Y-15003428D01*
X60891714Y-15003428D01*
X61463142Y-15003428D02*
X61120285Y-15003428D01*
X61291714Y-15003428D02*
X61291714Y-14403428D01*
X61234571Y-14489142D01*
X61177428Y-14546285D01*
X61120285Y-14574857D01*
X58231142Y-26179428D02*
X58231142Y-25579428D01*
X58374000Y-25579428D01*
X58459714Y-25608000D01*
X58516857Y-25665142D01*
X58545428Y-25722285D01*
X58574000Y-25836571D01*
X58574000Y-25922285D01*
X58545428Y-26036571D01*
X58516857Y-26093714D01*
X58459714Y-26150857D01*
X58374000Y-26179428D01*
X58231142Y-26179428D01*
X58774000Y-25579428D02*
X59174000Y-25579428D01*
X58916857Y-26179428D01*
X53462285Y-26687428D02*
X53262285Y-26401714D01*
X53119428Y-26687428D02*
X53119428Y-26087428D01*
X53348000Y-26087428D01*
X53405142Y-26116000D01*
X53433714Y-26144571D01*
X53462285Y-26201714D01*
X53462285Y-26287428D01*
X53433714Y-26344571D01*
X53405142Y-26373142D01*
X53348000Y-26401714D01*
X53119428Y-26401714D01*
X54033714Y-26687428D02*
X53690857Y-26687428D01*
X53862285Y-26687428D02*
X53862285Y-26087428D01*
X53805142Y-26173142D01*
X53748000Y-26230285D01*
X53690857Y-26258857D01*
X54576571Y-26087428D02*
X54290857Y-26087428D01*
X54262285Y-26373142D01*
X54290857Y-26344571D01*
X54348000Y-26316000D01*
X54490857Y-26316000D01*
X54548000Y-26344571D01*
X54576571Y-26373142D01*
X54605142Y-26430285D01*
X54605142Y-26573142D01*
X54576571Y-26630285D01*
X54548000Y-26658857D01*
X54490857Y-26687428D01*
X54348000Y-26687428D01*
X54290857Y-26658857D01*
X54262285Y-26630285D01*
X52595428Y-26293714D02*
X52309714Y-26493714D01*
X52595428Y-26636571D02*
X51995428Y-26636571D01*
X51995428Y-26408000D01*
X52024000Y-26350857D01*
X52052571Y-26322285D01*
X52109714Y-26293714D01*
X52195428Y-26293714D01*
X52252571Y-26322285D01*
X52281142Y-26350857D01*
X52309714Y-26408000D01*
X52309714Y-26636571D01*
X52595428Y-25722285D02*
X52595428Y-26065142D01*
X52595428Y-25893714D02*
X51995428Y-25893714D01*
X52081142Y-25950857D01*
X52138285Y-26008000D01*
X52166857Y-26065142D01*
X52595428Y-25436571D02*
X52595428Y-25322285D01*
X52566857Y-25265142D01*
X52538285Y-25236571D01*
X52452571Y-25179428D01*
X52338285Y-25150857D01*
X52109714Y-25150857D01*
X52052571Y-25179428D01*
X52024000Y-25208000D01*
X51995428Y-25265142D01*
X51995428Y-25379428D01*
X52024000Y-25436571D01*
X52052571Y-25465142D01*
X52109714Y-25493714D01*
X52252571Y-25493714D01*
X52309714Y-25465142D01*
X52338285Y-25436571D01*
X52366857Y-25379428D01*
X52366857Y-25265142D01*
X52338285Y-25208000D01*
X52309714Y-25179428D01*
X52252571Y-25150857D01*
X59966285Y-29481428D02*
X59966285Y-28881428D01*
X60166285Y-29310000D01*
X60366285Y-28881428D01*
X60366285Y-29481428D01*
X60623428Y-28938571D02*
X60652000Y-28910000D01*
X60709142Y-28881428D01*
X60852000Y-28881428D01*
X60909142Y-28910000D01*
X60937714Y-28938571D01*
X60966285Y-28995714D01*
X60966285Y-29052857D01*
X60937714Y-29138571D01*
X60594857Y-29481428D01*
X60966285Y-29481428D01*
X60320285Y-16273428D02*
X60120285Y-15987714D01*
X59977428Y-16273428D02*
X59977428Y-15673428D01*
X60206000Y-15673428D01*
X60263142Y-15702000D01*
X60291714Y-15730571D01*
X60320285Y-15787714D01*
X60320285Y-15873428D01*
X60291714Y-15930571D01*
X60263142Y-15959142D01*
X60206000Y-15987714D01*
X59977428Y-15987714D01*
X60548857Y-15730571D02*
X60577428Y-15702000D01*
X60634571Y-15673428D01*
X60777428Y-15673428D01*
X60834571Y-15702000D01*
X60863142Y-15730571D01*
X60891714Y-15787714D01*
X60891714Y-15844857D01*
X60863142Y-15930571D01*
X60520285Y-16273428D01*
X60891714Y-16273428D01*
X61263142Y-15673428D02*
X61320285Y-15673428D01*
X61377428Y-15702000D01*
X61406000Y-15730571D01*
X61434571Y-15787714D01*
X61463142Y-15902000D01*
X61463142Y-16044857D01*
X61434571Y-16159142D01*
X61406000Y-16216285D01*
X61377428Y-16244857D01*
X61320285Y-16273428D01*
X61263142Y-16273428D01*
X61206000Y-16244857D01*
X61177428Y-16216285D01*
X61148857Y-16159142D01*
X61120285Y-16044857D01*
X61120285Y-15902000D01*
X61148857Y-15787714D01*
X61177428Y-15730571D01*
X61206000Y-15702000D01*
X61263142Y-15673428D01*
X59707428Y-21016857D02*
X59107428Y-21016857D01*
X59107428Y-20874000D01*
X59136000Y-20788285D01*
X59193142Y-20731142D01*
X59250285Y-20702571D01*
X59364571Y-20674000D01*
X59450285Y-20674000D01*
X59564571Y-20702571D01*
X59621714Y-20731142D01*
X59678857Y-20788285D01*
X59707428Y-20874000D01*
X59707428Y-21016857D01*
X59364571Y-20331142D02*
X59336000Y-20388285D01*
X59307428Y-20416857D01*
X59250285Y-20445428D01*
X59221714Y-20445428D01*
X59164571Y-20416857D01*
X59136000Y-20388285D01*
X59107428Y-20331142D01*
X59107428Y-20216857D01*
X59136000Y-20159714D01*
X59164571Y-20131142D01*
X59221714Y-20102571D01*
X59250285Y-20102571D01*
X59307428Y-20131142D01*
X59336000Y-20159714D01*
X59364571Y-20216857D01*
X59364571Y-20331142D01*
X59393142Y-20388285D01*
X59421714Y-20416857D01*
X59478857Y-20445428D01*
X59593142Y-20445428D01*
X59650285Y-20416857D01*
X59678857Y-20388285D01*
X59707428Y-20331142D01*
X59707428Y-20216857D01*
X59678857Y-20159714D01*
X59650285Y-20131142D01*
X59593142Y-20102571D01*
X59478857Y-20102571D01*
X59421714Y-20131142D01*
X59393142Y-20159714D01*
X59364571Y-20216857D01*
X60320285Y-17543428D02*
X60120285Y-17257714D01*
X59977428Y-17543428D02*
X59977428Y-16943428D01*
X60206000Y-16943428D01*
X60263142Y-16972000D01*
X60291714Y-17000571D01*
X60320285Y-17057714D01*
X60320285Y-17143428D01*
X60291714Y-17200571D01*
X60263142Y-17229142D01*
X60206000Y-17257714D01*
X59977428Y-17257714D01*
X60891714Y-17543428D02*
X60548857Y-17543428D01*
X60720285Y-17543428D02*
X60720285Y-16943428D01*
X60663142Y-17029142D01*
X60606000Y-17086285D01*
X60548857Y-17114857D01*
X61406000Y-16943428D02*
X61291714Y-16943428D01*
X61234571Y-16972000D01*
X61206000Y-17000571D01*
X61148857Y-17086285D01*
X61120285Y-17200571D01*
X61120285Y-17429142D01*
X61148857Y-17486285D01*
X61177428Y-17514857D01*
X61234571Y-17543428D01*
X61348857Y-17543428D01*
X61406000Y-17514857D01*
X61434571Y-17486285D01*
X61463142Y-17429142D01*
X61463142Y-17286285D01*
X61434571Y-17229142D01*
X61406000Y-17200571D01*
X61348857Y-17172000D01*
X61234571Y-17172000D01*
X61177428Y-17200571D01*
X61148857Y-17229142D01*
X61120285Y-17286285D01*
X64533428Y-23853714D02*
X63933428Y-23853714D01*
X64362000Y-23653714D01*
X63933428Y-23453714D01*
X64533428Y-23453714D01*
X63933428Y-23225142D02*
X63933428Y-22853714D01*
X64162000Y-23053714D01*
X64162000Y-22968000D01*
X64190571Y-22910857D01*
X64219142Y-22882285D01*
X64276285Y-22853714D01*
X64419142Y-22853714D01*
X64476285Y-22882285D01*
X64504857Y-22910857D01*
X64533428Y-22968000D01*
X64533428Y-23139428D01*
X64504857Y-23196571D01*
X64476285Y-23225142D01*
X64577428Y-6835714D02*
X63977428Y-6835714D01*
X64406000Y-6635714D01*
X63977428Y-6435714D01*
X64577428Y-6435714D01*
X64177428Y-5892857D02*
X64577428Y-5892857D01*
X63948857Y-6035714D02*
X64377428Y-6178571D01*
X64377428Y-5807142D01*
X32914800Y-18290828D02*
X32714800Y-18005114D01*
X32571942Y-18290828D02*
X32571942Y-17690828D01*
X32800514Y-17690828D01*
X32857657Y-17719400D01*
X32886228Y-17747971D01*
X32914800Y-17805114D01*
X32914800Y-17890828D01*
X32886228Y-17947971D01*
X32857657Y-17976542D01*
X32800514Y-18005114D01*
X32571942Y-18005114D01*
X33429085Y-17890828D02*
X33429085Y-18290828D01*
X33286228Y-17662257D02*
X33143371Y-18090828D01*
X33514800Y-18090828D01*
X44007142Y-26179428D02*
X44007142Y-25579428D01*
X44150000Y-25579428D01*
X44235714Y-25608000D01*
X44292857Y-25665142D01*
X44321428Y-25722285D01*
X44350000Y-25836571D01*
X44350000Y-25922285D01*
X44321428Y-26036571D01*
X44292857Y-26093714D01*
X44235714Y-26150857D01*
X44150000Y-26179428D01*
X44007142Y-26179428D01*
X44864285Y-25579428D02*
X44750000Y-25579428D01*
X44692857Y-25608000D01*
X44664285Y-25636571D01*
X44607142Y-25722285D01*
X44578571Y-25836571D01*
X44578571Y-26065142D01*
X44607142Y-26122285D01*
X44635714Y-26150857D01*
X44692857Y-26179428D01*
X44807142Y-26179428D01*
X44864285Y-26150857D01*
X44892857Y-26122285D01*
X44921428Y-26065142D01*
X44921428Y-25922285D01*
X44892857Y-25865142D01*
X44864285Y-25836571D01*
X44807142Y-25808000D01*
X44692857Y-25808000D01*
X44635714Y-25836571D01*
X44607142Y-25865142D01*
X44578571Y-25922285D01*
X36401400Y-20778828D02*
X36401400Y-21207400D01*
X36372828Y-21293114D01*
X36315685Y-21350257D01*
X36229971Y-21378828D01*
X36172828Y-21378828D01*
X36944257Y-20978828D02*
X36944257Y-21378828D01*
X36801400Y-20750257D02*
X36658542Y-21178828D01*
X37029971Y-21178828D01*
X48890285Y-23836285D02*
X48861714Y-23864857D01*
X48776000Y-23893428D01*
X48718857Y-23893428D01*
X48633142Y-23864857D01*
X48576000Y-23807714D01*
X48547428Y-23750571D01*
X48518857Y-23636285D01*
X48518857Y-23550571D01*
X48547428Y-23436285D01*
X48576000Y-23379142D01*
X48633142Y-23322000D01*
X48718857Y-23293428D01*
X48776000Y-23293428D01*
X48861714Y-23322000D01*
X48890285Y-23350571D01*
X49118857Y-23350571D02*
X49147428Y-23322000D01*
X49204571Y-23293428D01*
X49347428Y-23293428D01*
X49404571Y-23322000D01*
X49433142Y-23350571D01*
X49461714Y-23407714D01*
X49461714Y-23464857D01*
X49433142Y-23550571D01*
X49090285Y-23893428D01*
X49461714Y-23893428D01*
X50033142Y-23893428D02*
X49690285Y-23893428D01*
X49861714Y-23893428D02*
X49861714Y-23293428D01*
X49804571Y-23379142D01*
X49747428Y-23436285D01*
X49690285Y-23464857D01*
X54824285Y-25408412D02*
X54852857Y-25436983D01*
X54881428Y-25522698D01*
X54881428Y-25579840D01*
X54852857Y-25665555D01*
X54795714Y-25722698D01*
X54738571Y-25751269D01*
X54624285Y-25779840D01*
X54538571Y-25779840D01*
X54424285Y-25751269D01*
X54367142Y-25722698D01*
X54310000Y-25665555D01*
X54281428Y-25579840D01*
X54281428Y-25522698D01*
X54310000Y-25436983D01*
X54338571Y-25408412D01*
X54338571Y-25179840D02*
X54310000Y-25151269D01*
X54281428Y-25094126D01*
X54281428Y-24951269D01*
X54310000Y-24894126D01*
X54338571Y-24865555D01*
X54395714Y-24836983D01*
X54452857Y-24836983D01*
X54538571Y-24865555D01*
X54881428Y-25208412D01*
X54881428Y-24836983D01*
X54338571Y-24608412D02*
X54310000Y-24579840D01*
X54281428Y-24522698D01*
X54281428Y-24379840D01*
X54310000Y-24322698D01*
X54338571Y-24294126D01*
X54395714Y-24265555D01*
X54452857Y-24265555D01*
X54538571Y-24294126D01*
X54881428Y-24636983D01*
X54881428Y-24265555D01*
X59650285Y-12831714D02*
X59678857Y-12860285D01*
X59707428Y-12946000D01*
X59707428Y-13003142D01*
X59678857Y-13088857D01*
X59621714Y-13146000D01*
X59564571Y-13174571D01*
X59450285Y-13203142D01*
X59364571Y-13203142D01*
X59250285Y-13174571D01*
X59193142Y-13146000D01*
X59136000Y-13088857D01*
X59107428Y-13003142D01*
X59107428Y-12946000D01*
X59136000Y-12860285D01*
X59164571Y-12831714D01*
X59164571Y-12603142D02*
X59136000Y-12574571D01*
X59107428Y-12517428D01*
X59107428Y-12374571D01*
X59136000Y-12317428D01*
X59164571Y-12288857D01*
X59221714Y-12260285D01*
X59278857Y-12260285D01*
X59364571Y-12288857D01*
X59707428Y-12631714D01*
X59707428Y-12260285D01*
X59307428Y-11746000D02*
X59707428Y-11746000D01*
X59078857Y-11888857D02*
X59507428Y-12031714D01*
X59507428Y-11660285D01*
X59650285Y-22737714D02*
X59678857Y-22766285D01*
X59707428Y-22852000D01*
X59707428Y-22909142D01*
X59678857Y-22994857D01*
X59621714Y-23052000D01*
X59564571Y-23080571D01*
X59450285Y-23109142D01*
X59364571Y-23109142D01*
X59250285Y-23080571D01*
X59193142Y-23052000D01*
X59136000Y-22994857D01*
X59107428Y-22909142D01*
X59107428Y-22852000D01*
X59136000Y-22766285D01*
X59164571Y-22737714D01*
X59164571Y-22509142D02*
X59136000Y-22480571D01*
X59107428Y-22423428D01*
X59107428Y-22280571D01*
X59136000Y-22223428D01*
X59164571Y-22194857D01*
X59221714Y-22166285D01*
X59278857Y-22166285D01*
X59364571Y-22194857D01*
X59707428Y-22537714D01*
X59707428Y-22166285D01*
X59107428Y-21966285D02*
X59107428Y-21594857D01*
X59336000Y-21794857D01*
X59336000Y-21709142D01*
X59364571Y-21652000D01*
X59393142Y-21623428D01*
X59450285Y-21594857D01*
X59593142Y-21594857D01*
X59650285Y-21623428D01*
X59678857Y-21652000D01*
X59707428Y-21709142D01*
X59707428Y-21880571D01*
X59678857Y-21937714D01*
X59650285Y-21966285D01*
X46890000Y-8342285D02*
X46861428Y-8370857D01*
X46775714Y-8399428D01*
X46718571Y-8399428D01*
X46632857Y-8370857D01*
X46575714Y-8313714D01*
X46547142Y-8256571D01*
X46518571Y-8142285D01*
X46518571Y-8056571D01*
X46547142Y-7942285D01*
X46575714Y-7885142D01*
X46632857Y-7828000D01*
X46718571Y-7799428D01*
X46775714Y-7799428D01*
X46861428Y-7828000D01*
X46890000Y-7856571D01*
X47461428Y-8399428D02*
X47118571Y-8399428D01*
X47290000Y-8399428D02*
X47290000Y-7799428D01*
X47232857Y-7885142D01*
X47175714Y-7942285D01*
X47118571Y-7970857D01*
X46510600Y-5005428D02*
X46510600Y-5434000D01*
X46482028Y-5519714D01*
X46424885Y-5576857D01*
X46339171Y-5605428D01*
X46282028Y-5605428D01*
X46739171Y-5005428D02*
X47110600Y-5005428D01*
X46910600Y-5234000D01*
X46996314Y-5234000D01*
X47053457Y-5262571D01*
X47082028Y-5291142D01*
X47110600Y-5348285D01*
X47110600Y-5491142D01*
X47082028Y-5548285D01*
X47053457Y-5576857D01*
X46996314Y-5605428D01*
X46824885Y-5605428D01*
X46767742Y-5576857D01*
X46739171Y-5548285D01*
X28068628Y-1546200D02*
X28497200Y-1546200D01*
X28582914Y-1574771D01*
X28640057Y-1631914D01*
X28668628Y-1717628D01*
X28668628Y-1774771D01*
X28668628Y-946200D02*
X28668628Y-1289057D01*
X28668628Y-1117628D02*
X28068628Y-1117628D01*
X28154342Y-1174771D01*
X28211485Y-1231914D01*
X28240057Y-1289057D01*
X8100000Y-20329185D02*
X8071428Y-20357757D01*
X7985714Y-20386328D01*
X7928571Y-20386328D01*
X7842857Y-20357757D01*
X7785714Y-20300614D01*
X7757142Y-20243471D01*
X7728571Y-20129185D01*
X7728571Y-20043471D01*
X7757142Y-19929185D01*
X7785714Y-19872042D01*
X7842857Y-19814900D01*
X7928571Y-19786328D01*
X7985714Y-19786328D01*
X8071428Y-19814900D01*
X8100000Y-19843471D01*
X8300000Y-19786328D02*
X8700000Y-19786328D01*
X8442857Y-20386328D01*
X12431714Y-15017714D02*
X12717428Y-15017714D01*
X12117428Y-15217714D02*
X12431714Y-15017714D01*
X12117428Y-14817714D01*
X12717428Y-14303428D02*
X12717428Y-14646285D01*
X12717428Y-14474857D02*
X12117428Y-14474857D01*
X12203142Y-14532000D01*
X12260285Y-14589142D01*
X12288857Y-14646285D01*
X6090000Y-20461728D02*
X5890000Y-20176014D01*
X5747142Y-20461728D02*
X5747142Y-19861728D01*
X5975714Y-19861728D01*
X6032857Y-19890300D01*
X6061428Y-19918871D01*
X6090000Y-19976014D01*
X6090000Y-20061728D01*
X6061428Y-20118871D01*
X6032857Y-20147442D01*
X5975714Y-20176014D01*
X5747142Y-20176014D01*
X6661428Y-20461728D02*
X6318571Y-20461728D01*
X6490000Y-20461728D02*
X6490000Y-19861728D01*
X6432857Y-19947442D01*
X6375714Y-20004585D01*
X6318571Y-20033157D01*
X450000Y-6092857D02*
X535714Y-6121428D01*
X678571Y-6121428D01*
X735714Y-6092857D01*
X764285Y-6064285D01*
X792857Y-6007142D01*
X792857Y-5950000D01*
X764285Y-5892857D01*
X735714Y-5864285D01*
X678571Y-5835714D01*
X564285Y-5807142D01*
X507142Y-5778571D01*
X478571Y-5750000D01*
X450000Y-5692857D01*
X450000Y-5635714D01*
X478571Y-5578571D01*
X507142Y-5550000D01*
X564285Y-5521428D01*
X707142Y-5521428D01*
X792857Y-5550000D01*
X992857Y-5521428D02*
X1135714Y-6121428D01*
X1250000Y-5692857D01*
X1364285Y-6121428D01*
X1507142Y-5521428D01*
X2050000Y-6121428D02*
X1707142Y-6121428D01*
X1878571Y-6121428D02*
X1878571Y-5521428D01*
X1821428Y-5607142D01*
X1764285Y-5664285D01*
X1707142Y-5692857D01*
X6361428Y-5930000D02*
X6075714Y-6130000D01*
X6361428Y-6272857D02*
X5761428Y-6272857D01*
X5761428Y-6044285D01*
X5790000Y-5987142D01*
X5818571Y-5958571D01*
X5875714Y-5930000D01*
X5961428Y-5930000D01*
X6018571Y-5958571D01*
X6047142Y-5987142D01*
X6075714Y-6044285D01*
X6075714Y-6272857D01*
X6018571Y-5587142D02*
X5990000Y-5644285D01*
X5961428Y-5672857D01*
X5904285Y-5701428D01*
X5875714Y-5701428D01*
X5818571Y-5672857D01*
X5790000Y-5644285D01*
X5761428Y-5587142D01*
X5761428Y-5472857D01*
X5790000Y-5415714D01*
X5818571Y-5387142D01*
X5875714Y-5358571D01*
X5904285Y-5358571D01*
X5961428Y-5387142D01*
X5990000Y-5415714D01*
X6018571Y-5472857D01*
X6018571Y-5587142D01*
X6047142Y-5644285D01*
X6075714Y-5672857D01*
X6132857Y-5701428D01*
X6247142Y-5701428D01*
X6304285Y-5672857D01*
X6332857Y-5644285D01*
X6361428Y-5587142D01*
X6361428Y-5472857D01*
X6332857Y-5415714D01*
X6304285Y-5387142D01*
X6247142Y-5358571D01*
X6132857Y-5358571D01*
X6075714Y-5387142D01*
X6047142Y-5415714D01*
X6018571Y-5472857D01*
X58060428Y-17231142D02*
X58546142Y-17231142D01*
X58603285Y-17202571D01*
X58631857Y-17174000D01*
X58660428Y-17116857D01*
X58660428Y-17002571D01*
X58631857Y-16945428D01*
X58603285Y-16916857D01*
X58546142Y-16888285D01*
X58060428Y-16888285D01*
X58117571Y-16631142D02*
X58089000Y-16602571D01*
X58060428Y-16545428D01*
X58060428Y-16402571D01*
X58089000Y-16345428D01*
X58117571Y-16316857D01*
X58174714Y-16288285D01*
X58231857Y-16288285D01*
X58317571Y-16316857D01*
X58660428Y-16659714D01*
X58660428Y-16288285D01*
X13330000Y-18631428D02*
X13130000Y-18345714D01*
X12987142Y-18631428D02*
X12987142Y-18031428D01*
X13215714Y-18031428D01*
X13272857Y-18060000D01*
X13301428Y-18088571D01*
X13330000Y-18145714D01*
X13330000Y-18231428D01*
X13301428Y-18288571D01*
X13272857Y-18317142D01*
X13215714Y-18345714D01*
X12987142Y-18345714D01*
X13558571Y-18088571D02*
X13587142Y-18060000D01*
X13644285Y-18031428D01*
X13787142Y-18031428D01*
X13844285Y-18060000D01*
X13872857Y-18088571D01*
X13901428Y-18145714D01*
X13901428Y-18202857D01*
X13872857Y-18288571D01*
X13530000Y-18631428D01*
X13901428Y-18631428D01*
X14474285Y-17724285D02*
X14445714Y-17752857D01*
X14360000Y-17781428D01*
X14302857Y-17781428D01*
X14217142Y-17752857D01*
X14160000Y-17695714D01*
X14131428Y-17638571D01*
X14102857Y-17524285D01*
X14102857Y-17438571D01*
X14131428Y-17324285D01*
X14160000Y-17267142D01*
X14217142Y-17210000D01*
X14302857Y-17181428D01*
X14360000Y-17181428D01*
X14445714Y-17210000D01*
X14474285Y-17238571D01*
X14702857Y-17238571D02*
X14731428Y-17210000D01*
X14788571Y-17181428D01*
X14931428Y-17181428D01*
X14988571Y-17210000D01*
X15017142Y-17238571D01*
X15045714Y-17295714D01*
X15045714Y-17352857D01*
X15017142Y-17438571D01*
X14674285Y-17781428D01*
X15045714Y-17781428D01*
X15417142Y-17181428D02*
X15474285Y-17181428D01*
X15531428Y-17210000D01*
X15560000Y-17238571D01*
X15588571Y-17295714D01*
X15617142Y-17410000D01*
X15617142Y-17552857D01*
X15588571Y-17667142D01*
X15560000Y-17724285D01*
X15531428Y-17752857D01*
X15474285Y-17781428D01*
X15417142Y-17781428D01*
X15360000Y-17752857D01*
X15331428Y-17724285D01*
X15302857Y-17667142D01*
X15274285Y-17552857D01*
X15274285Y-17410000D01*
X15302857Y-17295714D01*
X15331428Y-17238571D01*
X15360000Y-17210000D01*
X15417142Y-17181428D01*
X11701428Y-10545714D02*
X11415714Y-10745714D01*
X11701428Y-10888571D02*
X11101428Y-10888571D01*
X11101428Y-10660000D01*
X11130000Y-10602857D01*
X11158571Y-10574285D01*
X11215714Y-10545714D01*
X11301428Y-10545714D01*
X11358571Y-10574285D01*
X11387142Y-10602857D01*
X11415714Y-10660000D01*
X11415714Y-10888571D01*
X11701428Y-9974285D02*
X11701428Y-10317142D01*
X11701428Y-10145714D02*
X11101428Y-10145714D01*
X11187142Y-10202857D01*
X11244285Y-10260000D01*
X11272857Y-10317142D01*
X11101428Y-9602857D02*
X11101428Y-9545714D01*
X11130000Y-9488571D01*
X11158571Y-9460000D01*
X11215714Y-9431428D01*
X11330000Y-9402857D01*
X11472857Y-9402857D01*
X11587142Y-9431428D01*
X11644285Y-9460000D01*
X11672857Y-9488571D01*
X11701428Y-9545714D01*
X11701428Y-9602857D01*
X11672857Y-9660000D01*
X11644285Y-9688571D01*
X11587142Y-9717142D01*
X11472857Y-9745714D01*
X11330000Y-9745714D01*
X11215714Y-9717142D01*
X11158571Y-9688571D01*
X11130000Y-9660000D01*
X11101428Y-9602857D01*
X45112000Y-22338948D02*
X44912000Y-22053234D01*
X44769142Y-22338948D02*
X44769142Y-21738948D01*
X44997714Y-21738948D01*
X45054857Y-21767520D01*
X45083428Y-21796091D01*
X45112000Y-21853234D01*
X45112000Y-21938948D01*
X45083428Y-21996091D01*
X45054857Y-22024662D01*
X44997714Y-22053234D01*
X44769142Y-22053234D01*
X45654857Y-21738948D02*
X45369142Y-21738948D01*
X45340571Y-22024662D01*
X45369142Y-21996091D01*
X45426285Y-21967520D01*
X45569142Y-21967520D01*
X45626285Y-21996091D01*
X45654857Y-22024662D01*
X45683428Y-22081805D01*
X45683428Y-22224662D01*
X45654857Y-22281805D01*
X45626285Y-22310377D01*
X45569142Y-22338948D01*
X45426285Y-22338948D01*
X45369142Y-22310377D01*
X45340571Y-22281805D01*
X9339228Y-10526657D02*
X8739228Y-10526657D01*
X8739228Y-10383800D01*
X8767800Y-10298085D01*
X8824942Y-10240942D01*
X8882085Y-10212371D01*
X8996371Y-10183800D01*
X9082085Y-10183800D01*
X9196371Y-10212371D01*
X9253514Y-10240942D01*
X9310657Y-10298085D01*
X9339228Y-10383800D01*
X9339228Y-10526657D01*
X8796371Y-9955228D02*
X8767800Y-9926657D01*
X8739228Y-9869514D01*
X8739228Y-9726657D01*
X8767800Y-9669514D01*
X8796371Y-9640942D01*
X8853514Y-9612371D01*
X8910657Y-9612371D01*
X8996371Y-9640942D01*
X9339228Y-9983800D01*
X9339228Y-9612371D01*
X44769142Y-20845428D02*
X44769142Y-20245428D01*
X44912000Y-20245428D01*
X44997714Y-20274000D01*
X45054857Y-20331142D01*
X45083428Y-20388285D01*
X45112000Y-20502571D01*
X45112000Y-20588285D01*
X45083428Y-20702571D01*
X45054857Y-20759714D01*
X44997714Y-20816857D01*
X44912000Y-20845428D01*
X44769142Y-20845428D01*
X45312000Y-20245428D02*
X45683428Y-20245428D01*
X45483428Y-20474000D01*
X45569142Y-20474000D01*
X45626285Y-20502571D01*
X45654857Y-20531142D01*
X45683428Y-20588285D01*
X45683428Y-20731142D01*
X45654857Y-20788285D01*
X45626285Y-20816857D01*
X45569142Y-20845428D01*
X45397714Y-20845428D01*
X45340571Y-20816857D01*
X45312000Y-20788285D01*
X27071685Y-21855085D02*
X27043114Y-21883657D01*
X26957400Y-21912228D01*
X26900257Y-21912228D01*
X26814542Y-21883657D01*
X26757400Y-21826514D01*
X26728828Y-21769371D01*
X26700257Y-21655085D01*
X26700257Y-21569371D01*
X26728828Y-21455085D01*
X26757400Y-21397942D01*
X26814542Y-21340800D01*
X26900257Y-21312228D01*
X26957400Y-21312228D01*
X27043114Y-21340800D01*
X27071685Y-21369371D01*
X27643114Y-21912228D02*
X27300257Y-21912228D01*
X27471685Y-21912228D02*
X27471685Y-21312228D01*
X27414542Y-21397942D01*
X27357400Y-21455085D01*
X27300257Y-21483657D01*
X27985971Y-21569371D02*
X27928828Y-21540800D01*
X27900257Y-21512228D01*
X27871685Y-21455085D01*
X27871685Y-21426514D01*
X27900257Y-21369371D01*
X27928828Y-21340800D01*
X27985971Y-21312228D01*
X28100257Y-21312228D01*
X28157400Y-21340800D01*
X28185971Y-21369371D01*
X28214542Y-21426514D01*
X28214542Y-21455085D01*
X28185971Y-21512228D01*
X28157400Y-21540800D01*
X28100257Y-21569371D01*
X27985971Y-21569371D01*
X27928828Y-21597942D01*
X27900257Y-21626514D01*
X27871685Y-21683657D01*
X27871685Y-21797942D01*
X27900257Y-21855085D01*
X27928828Y-21883657D01*
X27985971Y-21912228D01*
X28100257Y-21912228D01*
X28157400Y-21883657D01*
X28185971Y-21855085D01*
X28214542Y-21797942D01*
X28214542Y-21683657D01*
X28185971Y-21626514D01*
X28157400Y-21597942D01*
X28100257Y-21569371D01*
X11262628Y-13537142D02*
X11748342Y-13537142D01*
X11805485Y-13508571D01*
X11834057Y-13480000D01*
X11862628Y-13422857D01*
X11862628Y-13308571D01*
X11834057Y-13251428D01*
X11805485Y-13222857D01*
X11748342Y-13194285D01*
X11262628Y-13194285D01*
X11462628Y-12651428D02*
X11862628Y-12651428D01*
X11234057Y-12794285D02*
X11662628Y-12937142D01*
X11662628Y-12565714D01*
X17576857Y-8053428D02*
X17576857Y-8539142D01*
X17605428Y-8596285D01*
X17634000Y-8624857D01*
X17691142Y-8653428D01*
X17805428Y-8653428D01*
X17862571Y-8624857D01*
X17891142Y-8596285D01*
X17919714Y-8539142D01*
X17919714Y-8053428D01*
X18519714Y-8653428D02*
X18176857Y-8653428D01*
X18348285Y-8653428D02*
X18348285Y-8053428D01*
X18291142Y-8139142D01*
X18234000Y-8196285D01*
X18176857Y-8224857D01*
X9475800Y-11599828D02*
X9275800Y-11314114D01*
X9132942Y-11599828D02*
X9132942Y-10999828D01*
X9361514Y-10999828D01*
X9418657Y-11028400D01*
X9447228Y-11056971D01*
X9475800Y-11114114D01*
X9475800Y-11199828D01*
X9447228Y-11256971D01*
X9418657Y-11285542D01*
X9361514Y-11314114D01*
X9132942Y-11314114D01*
X9675800Y-10999828D02*
X10047228Y-10999828D01*
X9847228Y-11228400D01*
X9932942Y-11228400D01*
X9990085Y-11256971D01*
X10018657Y-11285542D01*
X10047228Y-11342685D01*
X10047228Y-11485542D01*
X10018657Y-11542685D01*
X9990085Y-11571257D01*
X9932942Y-11599828D01*
X9761514Y-11599828D01*
X9704371Y-11571257D01*
X9675800Y-11542685D01*
X4161428Y-20240000D02*
X4590000Y-20240000D01*
X4675714Y-20268571D01*
X4732857Y-20325714D01*
X4761428Y-20411428D01*
X4761428Y-20468571D01*
X4218571Y-19982857D02*
X4190000Y-19954285D01*
X4161428Y-19897142D01*
X4161428Y-19754285D01*
X4190000Y-19697142D01*
X4218571Y-19668571D01*
X4275714Y-19640000D01*
X4332857Y-19640000D01*
X4418571Y-19668571D01*
X4761428Y-20011428D01*
X4761428Y-19640000D01*
X13019142Y-20191428D02*
X13019142Y-19591428D01*
X13162000Y-19591428D01*
X13247714Y-19620000D01*
X13304857Y-19677142D01*
X13333428Y-19734285D01*
X13362000Y-19848571D01*
X13362000Y-19934285D01*
X13333428Y-20048571D01*
X13304857Y-20105714D01*
X13247714Y-20162857D01*
X13162000Y-20191428D01*
X13019142Y-20191428D01*
X13933428Y-20191428D02*
X13590571Y-20191428D01*
X13762000Y-20191428D02*
X13762000Y-19591428D01*
X13704857Y-19677142D01*
X13647714Y-19734285D01*
X13590571Y-19762857D01*
X13781142Y-7637428D02*
X13781142Y-7037428D01*
X13924000Y-7037428D01*
X14009714Y-7066000D01*
X14066857Y-7123142D01*
X14095428Y-7180285D01*
X14124000Y-7294571D01*
X14124000Y-7380285D01*
X14095428Y-7494571D01*
X14066857Y-7551714D01*
X14009714Y-7608857D01*
X13924000Y-7637428D01*
X13781142Y-7637428D01*
X14666857Y-7037428D02*
X14381142Y-7037428D01*
X14352571Y-7323142D01*
X14381142Y-7294571D01*
X14438285Y-7266000D01*
X14581142Y-7266000D01*
X14638285Y-7294571D01*
X14666857Y-7323142D01*
X14695428Y-7380285D01*
X14695428Y-7523142D01*
X14666857Y-7580285D01*
X14638285Y-7608857D01*
X14581142Y-7637428D01*
X14438285Y-7637428D01*
X14381142Y-7608857D01*
X14352571Y-7580285D01*
X12914285Y-12577714D02*
X12942857Y-12606285D01*
X12971428Y-12692000D01*
X12971428Y-12749142D01*
X12942857Y-12834857D01*
X12885714Y-12892000D01*
X12828571Y-12920571D01*
X12714285Y-12949142D01*
X12628571Y-12949142D01*
X12514285Y-12920571D01*
X12457142Y-12892000D01*
X12400000Y-12834857D01*
X12371428Y-12749142D01*
X12371428Y-12692000D01*
X12400000Y-12606285D01*
X12428571Y-12577714D01*
X12971428Y-12006285D02*
X12971428Y-12349142D01*
X12971428Y-12177714D02*
X12371428Y-12177714D01*
X12457142Y-12234857D01*
X12514285Y-12292000D01*
X12542857Y-12349142D01*
X12971428Y-11720571D02*
X12971428Y-11606285D01*
X12942857Y-11549142D01*
X12914285Y-11520571D01*
X12828571Y-11463428D01*
X12714285Y-11434857D01*
X12485714Y-11434857D01*
X12428571Y-11463428D01*
X12400000Y-11492000D01*
X12371428Y-11549142D01*
X12371428Y-11663428D01*
X12400000Y-11720571D01*
X12428571Y-11749142D01*
X12485714Y-11777714D01*
X12628571Y-11777714D01*
X12685714Y-11749142D01*
X12714285Y-11720571D01*
X12742857Y-11663428D01*
X12742857Y-11549142D01*
X12714285Y-11492000D01*
X12685714Y-11463428D01*
X12628571Y-11434857D01*
X62534857Y-2049428D02*
X62534857Y-1449428D01*
X62534857Y-1735142D02*
X62877714Y-1735142D01*
X62877714Y-2049428D02*
X62877714Y-1449428D01*
X63134857Y-1506571D02*
X63163428Y-1478000D01*
X63220571Y-1449428D01*
X63363428Y-1449428D01*
X63420571Y-1478000D01*
X63449142Y-1506571D01*
X63477714Y-1563714D01*
X63477714Y-1620857D01*
X63449142Y-1706571D01*
X63106285Y-2049428D01*
X63477714Y-2049428D01*
X61061657Y-24249028D02*
X61061657Y-23649028D01*
X61061657Y-23934742D02*
X61404514Y-23934742D01*
X61404514Y-24249028D02*
X61404514Y-23649028D01*
X61633085Y-23649028D02*
X62004514Y-23649028D01*
X61804514Y-23877600D01*
X61890228Y-23877600D01*
X61947371Y-23906171D01*
X61975942Y-23934742D01*
X62004514Y-23991885D01*
X62004514Y-24134742D01*
X61975942Y-24191885D01*
X61947371Y-24220457D01*
X61890228Y-24249028D01*
X61718800Y-24249028D01*
X61661657Y-24220457D01*
X61633085Y-24191885D01*
X3073457Y-24376028D02*
X3073457Y-23776028D01*
X3073457Y-24061742D02*
X3416314Y-24061742D01*
X3416314Y-24376028D02*
X3416314Y-23776028D01*
X3959171Y-23976028D02*
X3959171Y-24376028D01*
X3816314Y-23747457D02*
X3673457Y-24176028D01*
X4044885Y-24176028D01*
X2971857Y-1160428D02*
X2971857Y-560428D01*
X2971857Y-846142D02*
X3314714Y-846142D01*
X3314714Y-1160428D02*
X3314714Y-560428D01*
X3914714Y-1160428D02*
X3571857Y-1160428D01*
X3743285Y-1160428D02*
X3743285Y-560428D01*
X3686142Y-646142D01*
X3629000Y-703285D01*
X3571857Y-731857D01*
X12549228Y-28725714D02*
X12263514Y-28925714D01*
X12549228Y-29068571D02*
X11949228Y-29068571D01*
X11949228Y-28840000D01*
X11977800Y-28782857D01*
X12006371Y-28754285D01*
X12063514Y-28725714D01*
X12149228Y-28725714D01*
X12206371Y-28754285D01*
X12234942Y-28782857D01*
X12263514Y-28840000D01*
X12263514Y-29068571D01*
X12006371Y-28497142D02*
X11977800Y-28468571D01*
X11949228Y-28411428D01*
X11949228Y-28268571D01*
X11977800Y-28211428D01*
X12006371Y-28182857D01*
X12063514Y-28154285D01*
X12120657Y-28154285D01*
X12206371Y-28182857D01*
X12549228Y-28525714D01*
X12549228Y-28154285D01*
X11949228Y-27954285D02*
X11949228Y-27554285D01*
X12549228Y-27811428D01*
X48982285Y-17880000D02*
X49010857Y-17908571D01*
X49039428Y-17994285D01*
X49039428Y-18051428D01*
X49010857Y-18137142D01*
X48953714Y-18194285D01*
X48896571Y-18222857D01*
X48782285Y-18251428D01*
X48696571Y-18251428D01*
X48582285Y-18222857D01*
X48525142Y-18194285D01*
X48468000Y-18137142D01*
X48439428Y-18051428D01*
X48439428Y-17994285D01*
X48468000Y-17908571D01*
X48496571Y-17880000D01*
X48439428Y-17680000D02*
X48439428Y-17308571D01*
X48668000Y-17508571D01*
X48668000Y-17422857D01*
X48696571Y-17365714D01*
X48725142Y-17337142D01*
X48782285Y-17308571D01*
X48925142Y-17308571D01*
X48982285Y-17337142D01*
X49010857Y-17365714D01*
X49039428Y-17422857D01*
X49039428Y-17594285D01*
X49010857Y-17651428D01*
X48982285Y-17680000D01*
X32848000Y-16666228D02*
X32648000Y-16380514D01*
X32505142Y-16666228D02*
X32505142Y-16066228D01*
X32733714Y-16066228D01*
X32790857Y-16094800D01*
X32819428Y-16123371D01*
X32848000Y-16180514D01*
X32848000Y-16266228D01*
X32819428Y-16323371D01*
X32790857Y-16351942D01*
X32733714Y-16380514D01*
X32505142Y-16380514D01*
X33362285Y-16066228D02*
X33248000Y-16066228D01*
X33190857Y-16094800D01*
X33162285Y-16123371D01*
X33105142Y-16209085D01*
X33076571Y-16323371D01*
X33076571Y-16551942D01*
X33105142Y-16609085D01*
X33133714Y-16637657D01*
X33190857Y-16666228D01*
X33305142Y-16666228D01*
X33362285Y-16637657D01*
X33390857Y-16609085D01*
X33419428Y-16551942D01*
X33419428Y-16409085D01*
X33390857Y-16351942D01*
X33362285Y-16323371D01*
X33305142Y-16294800D01*
X33190857Y-16294800D01*
X33133714Y-16323371D01*
X33105142Y-16351942D01*
X33076571Y-16409085D01*
X27432057Y-23420428D02*
X27432057Y-23906142D01*
X27460628Y-23963285D01*
X27489200Y-23991857D01*
X27546342Y-24020428D01*
X27660628Y-24020428D01*
X27717771Y-23991857D01*
X27746342Y-23963285D01*
X27774914Y-23906142D01*
X27774914Y-23420428D01*
X28346342Y-23420428D02*
X28060628Y-23420428D01*
X28032057Y-23706142D01*
X28060628Y-23677571D01*
X28117771Y-23649000D01*
X28260628Y-23649000D01*
X28317771Y-23677571D01*
X28346342Y-23706142D01*
X28374914Y-23763285D01*
X28374914Y-23906142D01*
X28346342Y-23963285D01*
X28317771Y-23991857D01*
X28260628Y-24020428D01*
X28117771Y-24020428D01*
X28060628Y-23991857D01*
X28032057Y-23963285D01*
X14452685Y-21944285D02*
X14424114Y-21972857D01*
X14338400Y-22001428D01*
X14281257Y-22001428D01*
X14195542Y-21972857D01*
X14138400Y-21915714D01*
X14109828Y-21858571D01*
X14081257Y-21744285D01*
X14081257Y-21658571D01*
X14109828Y-21544285D01*
X14138400Y-21487142D01*
X14195542Y-21430000D01*
X14281257Y-21401428D01*
X14338400Y-21401428D01*
X14424114Y-21430000D01*
X14452685Y-21458571D01*
X14681257Y-21458571D02*
X14709828Y-21430000D01*
X14766971Y-21401428D01*
X14909828Y-21401428D01*
X14966971Y-21430000D01*
X14995542Y-21458571D01*
X15024114Y-21515714D01*
X15024114Y-21572857D01*
X14995542Y-21658571D01*
X14652685Y-22001428D01*
X15024114Y-22001428D01*
X15538400Y-21401428D02*
X15424114Y-21401428D01*
X15366971Y-21430000D01*
X15338400Y-21458571D01*
X15281257Y-21544285D01*
X15252685Y-21658571D01*
X15252685Y-21887142D01*
X15281257Y-21944285D01*
X15309828Y-21972857D01*
X15366971Y-22001428D01*
X15481257Y-22001428D01*
X15538400Y-21972857D01*
X15566971Y-21944285D01*
X15595542Y-21887142D01*
X15595542Y-21744285D01*
X15566971Y-21687142D01*
X15538400Y-21658571D01*
X15481257Y-21630000D01*
X15366971Y-21630000D01*
X15309828Y-21658571D01*
X15281257Y-21687142D01*
X15252685Y-21744285D01*
X22699628Y-24642714D02*
X22413914Y-24842714D01*
X22699628Y-24985571D02*
X22099628Y-24985571D01*
X22099628Y-24757000D01*
X22128200Y-24699857D01*
X22156771Y-24671285D01*
X22213914Y-24642714D01*
X22299628Y-24642714D01*
X22356771Y-24671285D01*
X22385342Y-24699857D01*
X22413914Y-24757000D01*
X22413914Y-24985571D01*
X22156771Y-24414142D02*
X22128200Y-24385571D01*
X22099628Y-24328428D01*
X22099628Y-24185571D01*
X22128200Y-24128428D01*
X22156771Y-24099857D01*
X22213914Y-24071285D01*
X22271057Y-24071285D01*
X22356771Y-24099857D01*
X22699628Y-24442714D01*
X22699628Y-24071285D01*
X22699628Y-23785571D02*
X22699628Y-23671285D01*
X22671057Y-23614142D01*
X22642485Y-23585571D01*
X22556771Y-23528428D01*
X22442485Y-23499857D01*
X22213914Y-23499857D01*
X22156771Y-23528428D01*
X22128200Y-23557000D01*
X22099628Y-23614142D01*
X22099628Y-23728428D01*
X22128200Y-23785571D01*
X22156771Y-23814142D01*
X22213914Y-23842714D01*
X22356771Y-23842714D01*
X22413914Y-23814142D01*
X22442485Y-23785571D01*
X22471057Y-23728428D01*
X22471057Y-23614142D01*
X22442485Y-23557000D01*
X22413914Y-23528428D01*
X22356771Y-23499857D01*
X44769142Y-17543428D02*
X44769142Y-16943428D01*
X44912000Y-16943428D01*
X44997714Y-16972000D01*
X45054857Y-17029142D01*
X45083428Y-17086285D01*
X45112000Y-17200571D01*
X45112000Y-17286285D01*
X45083428Y-17400571D01*
X45054857Y-17457714D01*
X44997714Y-17514857D01*
X44912000Y-17543428D01*
X44769142Y-17543428D01*
X45626285Y-17143428D02*
X45626285Y-17543428D01*
X45483428Y-16914857D02*
X45340571Y-17343428D01*
X45712000Y-17343428D01*
X44975428Y-5528714D02*
X44689714Y-5728714D01*
X44975428Y-5871571D02*
X44375428Y-5871571D01*
X44375428Y-5643000D01*
X44404000Y-5585857D01*
X44432571Y-5557285D01*
X44489714Y-5528714D01*
X44575428Y-5528714D01*
X44632571Y-5557285D01*
X44661142Y-5585857D01*
X44689714Y-5643000D01*
X44689714Y-5871571D01*
X44432571Y-5300142D02*
X44404000Y-5271571D01*
X44375428Y-5214428D01*
X44375428Y-5071571D01*
X44404000Y-5014428D01*
X44432571Y-4985857D01*
X44489714Y-4957285D01*
X44546857Y-4957285D01*
X44632571Y-4985857D01*
X44975428Y-5328714D01*
X44975428Y-4957285D01*
X44375428Y-4414428D02*
X44375428Y-4700142D01*
X44661142Y-4728714D01*
X44632571Y-4700142D01*
X44604000Y-4643000D01*
X44604000Y-4500142D01*
X44632571Y-4443000D01*
X44661142Y-4414428D01*
X44718285Y-4385857D01*
X44861142Y-4385857D01*
X44918285Y-4414428D01*
X44946857Y-4443000D01*
X44975428Y-4500142D01*
X44975428Y-4643000D01*
X44946857Y-4700142D01*
X44918285Y-4728714D01*
X16641857Y-23191828D02*
X16984714Y-23191828D01*
X16813285Y-23791828D02*
X16813285Y-23191828D01*
X17184714Y-23791828D02*
X17184714Y-23191828D01*
X17413285Y-23191828D01*
X17470428Y-23220400D01*
X17499000Y-23248971D01*
X17527571Y-23306114D01*
X17527571Y-23391828D01*
X17499000Y-23448971D01*
X17470428Y-23477542D01*
X17413285Y-23506114D01*
X17184714Y-23506114D01*
X17727571Y-23191828D02*
X18099000Y-23191828D01*
X17899000Y-23420400D01*
X17984714Y-23420400D01*
X18041857Y-23448971D01*
X18070428Y-23477542D01*
X18099000Y-23534685D01*
X18099000Y-23677542D01*
X18070428Y-23734685D01*
X18041857Y-23763257D01*
X17984714Y-23791828D01*
X17813285Y-23791828D01*
X17756142Y-23763257D01*
X17727571Y-23734685D01*
X5601828Y-1875714D02*
X6030400Y-1875714D01*
X6116114Y-1904285D01*
X6173257Y-1961428D01*
X6201828Y-2047142D01*
X6201828Y-2104285D01*
X6201828Y-1275714D02*
X6201828Y-1618571D01*
X6201828Y-1447142D02*
X5601828Y-1447142D01*
X5687542Y-1504285D01*
X5744685Y-1561428D01*
X5773257Y-1618571D01*
X6201828Y-704285D02*
X6201828Y-1047142D01*
X6201828Y-875714D02*
X5601828Y-875714D01*
X5687542Y-932857D01*
X5744685Y-990000D01*
X5773257Y-1047142D01*
X26208085Y-29119485D02*
X26179514Y-29148057D01*
X26093800Y-29176628D01*
X26036657Y-29176628D01*
X25950942Y-29148057D01*
X25893800Y-29090914D01*
X25865228Y-29033771D01*
X25836657Y-28919485D01*
X25836657Y-28833771D01*
X25865228Y-28719485D01*
X25893800Y-28662342D01*
X25950942Y-28605200D01*
X26036657Y-28576628D01*
X26093800Y-28576628D01*
X26179514Y-28605200D01*
X26208085Y-28633771D01*
X26436657Y-28633771D02*
X26465228Y-28605200D01*
X26522371Y-28576628D01*
X26665228Y-28576628D01*
X26722371Y-28605200D01*
X26750942Y-28633771D01*
X26779514Y-28690914D01*
X26779514Y-28748057D01*
X26750942Y-28833771D01*
X26408085Y-29176628D01*
X26779514Y-29176628D01*
X26979514Y-28576628D02*
X27379514Y-28576628D01*
X27122371Y-29176628D01*
X34440000Y-6301428D02*
X34440000Y-6730000D01*
X34411428Y-6815714D01*
X34354285Y-6872857D01*
X34268571Y-6901428D01*
X34211428Y-6901428D01*
X34811428Y-6558571D02*
X34754285Y-6530000D01*
X34725714Y-6501428D01*
X34697142Y-6444285D01*
X34697142Y-6415714D01*
X34725714Y-6358571D01*
X34754285Y-6330000D01*
X34811428Y-6301428D01*
X34925714Y-6301428D01*
X34982857Y-6330000D01*
X35011428Y-6358571D01*
X35040000Y-6415714D01*
X35040000Y-6444285D01*
X35011428Y-6501428D01*
X34982857Y-6530000D01*
X34925714Y-6558571D01*
X34811428Y-6558571D01*
X34754285Y-6587142D01*
X34725714Y-6615714D01*
X34697142Y-6672857D01*
X34697142Y-6787142D01*
X34725714Y-6844285D01*
X34754285Y-6872857D01*
X34811428Y-6901428D01*
X34925714Y-6901428D01*
X34982857Y-6872857D01*
X35011428Y-6844285D01*
X35040000Y-6787142D01*
X35040000Y-6672857D01*
X35011428Y-6615714D01*
X34982857Y-6587142D01*
X34925714Y-6558571D01*
X38754285Y-6301428D02*
X38754285Y-6730000D01*
X38725714Y-6815714D01*
X38668571Y-6872857D01*
X38582857Y-6901428D01*
X38525714Y-6901428D01*
X39354285Y-6901428D02*
X39011428Y-6901428D01*
X39182857Y-6901428D02*
X39182857Y-6301428D01*
X39125714Y-6387142D01*
X39068571Y-6444285D01*
X39011428Y-6472857D01*
X39725714Y-6301428D02*
X39782857Y-6301428D01*
X39840000Y-6330000D01*
X39868571Y-6358571D01*
X39897142Y-6415714D01*
X39925714Y-6530000D01*
X39925714Y-6672857D01*
X39897142Y-6787142D01*
X39868571Y-6844285D01*
X39840000Y-6872857D01*
X39782857Y-6901428D01*
X39725714Y-6901428D01*
X39668571Y-6872857D01*
X39640000Y-6844285D01*
X39611428Y-6787142D01*
X39582857Y-6672857D01*
X39582857Y-6530000D01*
X39611428Y-6415714D01*
X39640000Y-6358571D01*
X39668571Y-6330000D01*
X39725714Y-6301428D01*
X17542857Y-26271428D02*
X17542857Y-26757142D01*
X17571428Y-26814285D01*
X17600000Y-26842857D01*
X17657142Y-26871428D01*
X17771428Y-26871428D01*
X17828571Y-26842857D01*
X17857142Y-26814285D01*
X17885714Y-26757142D01*
X17885714Y-26271428D01*
X18428571Y-26271428D02*
X18314285Y-26271428D01*
X18257142Y-26300000D01*
X18228571Y-26328571D01*
X18171428Y-26414285D01*
X18142857Y-26528571D01*
X18142857Y-26757142D01*
X18171428Y-26814285D01*
X18200000Y-26842857D01*
X18257142Y-26871428D01*
X18371428Y-26871428D01*
X18428571Y-26842857D01*
X18457142Y-26814285D01*
X18485714Y-26757142D01*
X18485714Y-26614285D01*
X18457142Y-26557142D01*
X18428571Y-26528571D01*
X18371428Y-26500000D01*
X18257142Y-26500000D01*
X18200000Y-26528571D01*
X18171428Y-26557142D01*
X18142857Y-26614285D01*
X30551485Y-29271885D02*
X30522914Y-29300457D01*
X30437200Y-29329028D01*
X30380057Y-29329028D01*
X30294342Y-29300457D01*
X30237200Y-29243314D01*
X30208628Y-29186171D01*
X30180057Y-29071885D01*
X30180057Y-28986171D01*
X30208628Y-28871885D01*
X30237200Y-28814742D01*
X30294342Y-28757600D01*
X30380057Y-28729028D01*
X30437200Y-28729028D01*
X30522914Y-28757600D01*
X30551485Y-28786171D01*
X30780057Y-28786171D02*
X30808628Y-28757600D01*
X30865771Y-28729028D01*
X31008628Y-28729028D01*
X31065771Y-28757600D01*
X31094342Y-28786171D01*
X31122914Y-28843314D01*
X31122914Y-28900457D01*
X31094342Y-28986171D01*
X30751485Y-29329028D01*
X31122914Y-29329028D01*
X31665771Y-28729028D02*
X31380057Y-28729028D01*
X31351485Y-29014742D01*
X31380057Y-28986171D01*
X31437200Y-28957600D01*
X31580057Y-28957600D01*
X31637200Y-28986171D01*
X31665771Y-29014742D01*
X31694342Y-29071885D01*
X31694342Y-29214742D01*
X31665771Y-29271885D01*
X31637200Y-29300457D01*
X31580057Y-29329028D01*
X31437200Y-29329028D01*
X31380057Y-29300457D01*
X31351485Y-29271885D01*
X24202228Y-24623214D02*
X23916514Y-24823214D01*
X24202228Y-24966071D02*
X23602228Y-24966071D01*
X23602228Y-24737500D01*
X23630800Y-24680357D01*
X23659371Y-24651785D01*
X23716514Y-24623214D01*
X23802228Y-24623214D01*
X23859371Y-24651785D01*
X23887942Y-24680357D01*
X23916514Y-24737500D01*
X23916514Y-24966071D01*
X23659371Y-24394642D02*
X23630800Y-24366071D01*
X23602228Y-24308928D01*
X23602228Y-24166071D01*
X23630800Y-24108928D01*
X23659371Y-24080357D01*
X23716514Y-24051785D01*
X23773657Y-24051785D01*
X23859371Y-24080357D01*
X24202228Y-24423214D01*
X24202228Y-24051785D01*
X23659371Y-23823214D02*
X23630800Y-23794642D01*
X23602228Y-23737500D01*
X23602228Y-23594642D01*
X23630800Y-23537500D01*
X23659371Y-23508928D01*
X23716514Y-23480357D01*
X23773657Y-23480357D01*
X23859371Y-23508928D01*
X24202228Y-23851785D01*
X24202228Y-23480357D01*
X21247828Y-24641714D02*
X20962114Y-24841714D01*
X21247828Y-24984571D02*
X20647828Y-24984571D01*
X20647828Y-24756000D01*
X20676400Y-24698857D01*
X20704971Y-24670285D01*
X20762114Y-24641714D01*
X20847828Y-24641714D01*
X20904971Y-24670285D01*
X20933542Y-24698857D01*
X20962114Y-24756000D01*
X20962114Y-24984571D01*
X20704971Y-24413142D02*
X20676400Y-24384571D01*
X20647828Y-24327428D01*
X20647828Y-24184571D01*
X20676400Y-24127428D01*
X20704971Y-24098857D01*
X20762114Y-24070285D01*
X20819257Y-24070285D01*
X20904971Y-24098857D01*
X21247828Y-24441714D01*
X21247828Y-24070285D01*
X20647828Y-23870285D02*
X20647828Y-23498857D01*
X20876400Y-23698857D01*
X20876400Y-23613142D01*
X20904971Y-23556000D01*
X20933542Y-23527428D01*
X20990685Y-23498857D01*
X21133542Y-23498857D01*
X21190685Y-23527428D01*
X21219257Y-23556000D01*
X21247828Y-23613142D01*
X21247828Y-23784571D01*
X21219257Y-23841714D01*
X21190685Y-23870285D01*
X32126285Y-21647628D02*
X31926285Y-21361914D01*
X31783428Y-21647628D02*
X31783428Y-21047628D01*
X32012000Y-21047628D01*
X32069142Y-21076200D01*
X32097714Y-21104771D01*
X32126285Y-21161914D01*
X32126285Y-21247628D01*
X32097714Y-21304771D01*
X32069142Y-21333342D01*
X32012000Y-21361914D01*
X31783428Y-21361914D01*
X32354857Y-21104771D02*
X32383428Y-21076200D01*
X32440571Y-21047628D01*
X32583428Y-21047628D01*
X32640571Y-21076200D01*
X32669142Y-21104771D01*
X32697714Y-21161914D01*
X32697714Y-21219057D01*
X32669142Y-21304771D01*
X32326285Y-21647628D01*
X32697714Y-21647628D01*
X33212000Y-21047628D02*
X33097714Y-21047628D01*
X33040571Y-21076200D01*
X33012000Y-21104771D01*
X32954857Y-21190485D01*
X32926285Y-21304771D01*
X32926285Y-21533342D01*
X32954857Y-21590485D01*
X32983428Y-21619057D01*
X33040571Y-21647628D01*
X33154857Y-21647628D01*
X33212000Y-21619057D01*
X33240571Y-21590485D01*
X33269142Y-21533342D01*
X33269142Y-21390485D01*
X33240571Y-21333342D01*
X33212000Y-21304771D01*
X33154857Y-21276200D01*
X33040571Y-21276200D01*
X32983428Y-21304771D01*
X32954857Y-21333342D01*
X32926285Y-21390485D01*
X36760000Y-6301428D02*
X36760000Y-6730000D01*
X36731428Y-6815714D01*
X36674285Y-6872857D01*
X36588571Y-6901428D01*
X36531428Y-6901428D01*
X36988571Y-6301428D02*
X37388571Y-6301428D01*
X37131428Y-6901428D01*
X19727828Y-24617314D02*
X19442114Y-24817314D01*
X19727828Y-24960171D02*
X19127828Y-24960171D01*
X19127828Y-24731600D01*
X19156400Y-24674457D01*
X19184971Y-24645885D01*
X19242114Y-24617314D01*
X19327828Y-24617314D01*
X19384971Y-24645885D01*
X19413542Y-24674457D01*
X19442114Y-24731600D01*
X19442114Y-24960171D01*
X19184971Y-24388742D02*
X19156400Y-24360171D01*
X19127828Y-24303028D01*
X19127828Y-24160171D01*
X19156400Y-24103028D01*
X19184971Y-24074457D01*
X19242114Y-24045885D01*
X19299257Y-24045885D01*
X19384971Y-24074457D01*
X19727828Y-24417314D01*
X19727828Y-24045885D01*
X19384971Y-23703028D02*
X19356400Y-23760171D01*
X19327828Y-23788742D01*
X19270685Y-23817314D01*
X19242114Y-23817314D01*
X19184971Y-23788742D01*
X19156400Y-23760171D01*
X19127828Y-23703028D01*
X19127828Y-23588742D01*
X19156400Y-23531600D01*
X19184971Y-23503028D01*
X19242114Y-23474457D01*
X19270685Y-23474457D01*
X19327828Y-23503028D01*
X19356400Y-23531600D01*
X19384971Y-23588742D01*
X19384971Y-23703028D01*
X19413542Y-23760171D01*
X19442114Y-23788742D01*
X19499257Y-23817314D01*
X19613542Y-23817314D01*
X19670685Y-23788742D01*
X19699257Y-23760171D01*
X19727828Y-23703028D01*
X19727828Y-23588742D01*
X19699257Y-23531600D01*
X19670685Y-23503028D01*
X19613542Y-23474457D01*
X19499257Y-23474457D01*
X19442114Y-23503028D01*
X19413542Y-23531600D01*
X19384971Y-23588742D01*
X44975428Y-2544714D02*
X44689714Y-2744714D01*
X44975428Y-2887571D02*
X44375428Y-2887571D01*
X44375428Y-2659000D01*
X44404000Y-2601857D01*
X44432571Y-2573285D01*
X44489714Y-2544714D01*
X44575428Y-2544714D01*
X44632571Y-2573285D01*
X44661142Y-2601857D01*
X44689714Y-2659000D01*
X44689714Y-2887571D01*
X44432571Y-2316142D02*
X44404000Y-2287571D01*
X44375428Y-2230428D01*
X44375428Y-2087571D01*
X44404000Y-2030428D01*
X44432571Y-2001857D01*
X44489714Y-1973285D01*
X44546857Y-1973285D01*
X44632571Y-2001857D01*
X44975428Y-2344714D01*
X44975428Y-1973285D01*
X44575428Y-1459000D02*
X44975428Y-1459000D01*
X44346857Y-1601857D02*
X44775428Y-1744714D01*
X44775428Y-1373285D01*
X41250000Y-6301428D02*
X41250000Y-6730000D01*
X41221428Y-6815714D01*
X41164285Y-6872857D01*
X41078571Y-6901428D01*
X41021428Y-6901428D01*
X41792857Y-6301428D02*
X41678571Y-6301428D01*
X41621428Y-6330000D01*
X41592857Y-6358571D01*
X41535714Y-6444285D01*
X41507142Y-6558571D01*
X41507142Y-6787142D01*
X41535714Y-6844285D01*
X41564285Y-6872857D01*
X41621428Y-6901428D01*
X41735714Y-6901428D01*
X41792857Y-6872857D01*
X41821428Y-6844285D01*
X41850000Y-6787142D01*
X41850000Y-6644285D01*
X41821428Y-6587142D01*
X41792857Y-6558571D01*
X41735714Y-6530000D01*
X41621428Y-6530000D01*
X41564285Y-6558571D01*
X41535714Y-6587142D01*
X41507142Y-6644285D01*
X32000000Y-6301428D02*
X32000000Y-6730000D01*
X31971428Y-6815714D01*
X31914285Y-6872857D01*
X31828571Y-6901428D01*
X31771428Y-6901428D01*
X32314285Y-6901428D02*
X32428571Y-6901428D01*
X32485714Y-6872857D01*
X32514285Y-6844285D01*
X32571428Y-6758571D01*
X32600000Y-6644285D01*
X32600000Y-6415714D01*
X32571428Y-6358571D01*
X32542857Y-6330000D01*
X32485714Y-6301428D01*
X32371428Y-6301428D01*
X32314285Y-6330000D01*
X32285714Y-6358571D01*
X32257142Y-6415714D01*
X32257142Y-6558571D01*
X32285714Y-6615714D01*
X32314285Y-6644285D01*
X32371428Y-6672857D01*
X32485714Y-6672857D01*
X32542857Y-6644285D01*
X32571428Y-6615714D01*
X32600000Y-6558571D01*
X59437628Y-7693000D02*
X59866200Y-7693000D01*
X59951914Y-7721571D01*
X60009057Y-7778714D01*
X60037628Y-7864428D01*
X60037628Y-7921571D01*
X59437628Y-7121571D02*
X59437628Y-7407285D01*
X59723342Y-7435857D01*
X59694771Y-7407285D01*
X59666200Y-7350142D01*
X59666200Y-7207285D01*
X59694771Y-7150142D01*
X59723342Y-7121571D01*
X59780485Y-7093000D01*
X59923342Y-7093000D01*
X59980485Y-7121571D01*
X60009057Y-7150142D01*
X60037628Y-7207285D01*
X60037628Y-7350142D01*
X60009057Y-7407285D01*
X59980485Y-7435857D01*
X16460828Y-20823142D02*
X16460828Y-20480285D01*
X17060828Y-20651714D02*
X16460828Y-20651714D01*
X17060828Y-20280285D02*
X16460828Y-20280285D01*
X16460828Y-20051714D01*
X16489400Y-19994571D01*
X16517971Y-19966000D01*
X16575114Y-19937428D01*
X16660828Y-19937428D01*
X16717971Y-19966000D01*
X16746542Y-19994571D01*
X16775114Y-20051714D01*
X16775114Y-20280285D01*
X16660828Y-19423142D02*
X17060828Y-19423142D01*
X16432257Y-19566000D02*
X16860828Y-19708857D01*
X16860828Y-19337428D01*
X9129685Y-7700914D02*
X9158257Y-7729485D01*
X9186828Y-7815200D01*
X9186828Y-7872342D01*
X9158257Y-7958057D01*
X9101114Y-8015200D01*
X9043971Y-8043771D01*
X8929685Y-8072342D01*
X8843971Y-8072342D01*
X8729685Y-8043771D01*
X8672542Y-8015200D01*
X8615400Y-7958057D01*
X8586828Y-7872342D01*
X8586828Y-7815200D01*
X8615400Y-7729485D01*
X8643971Y-7700914D01*
X9186828Y-7129485D02*
X9186828Y-7472342D01*
X9186828Y-7300914D02*
X8586828Y-7300914D01*
X8672542Y-7358057D01*
X8729685Y-7415200D01*
X8758257Y-7472342D01*
X8586828Y-6929485D02*
X8586828Y-6529485D01*
X9186828Y-6786628D01*
X45112000Y-18559428D02*
X44912000Y-18273714D01*
X44769142Y-18559428D02*
X44769142Y-17959428D01*
X44997714Y-17959428D01*
X45054857Y-17988000D01*
X45083428Y-18016571D01*
X45112000Y-18073714D01*
X45112000Y-18159428D01*
X45083428Y-18216571D01*
X45054857Y-18245142D01*
X44997714Y-18273714D01*
X44769142Y-18273714D01*
X45397714Y-18559428D02*
X45512000Y-18559428D01*
X45569142Y-18530857D01*
X45597714Y-18502285D01*
X45654857Y-18416571D01*
X45683428Y-18302285D01*
X45683428Y-18073714D01*
X45654857Y-18016571D01*
X45626285Y-17988000D01*
X45569142Y-17959428D01*
X45454857Y-17959428D01*
X45397714Y-17988000D01*
X45369142Y-18016571D01*
X45340571Y-18073714D01*
X45340571Y-18216571D01*
X45369142Y-18273714D01*
X45397714Y-18302285D01*
X45454857Y-18330857D01*
X45569142Y-18330857D01*
X45626285Y-18302285D01*
X45654857Y-18273714D01*
X45683428Y-18216571D01*
X33786857Y-19254828D02*
X34129714Y-19254828D01*
X33958285Y-19854828D02*
X33958285Y-19254828D01*
X34329714Y-19854828D02*
X34329714Y-19254828D01*
X34558285Y-19254828D01*
X34615428Y-19283400D01*
X34644000Y-19311971D01*
X34672571Y-19369114D01*
X34672571Y-19454828D01*
X34644000Y-19511971D01*
X34615428Y-19540542D01*
X34558285Y-19569114D01*
X34329714Y-19569114D01*
X35215428Y-19254828D02*
X34929714Y-19254828D01*
X34901142Y-19540542D01*
X34929714Y-19511971D01*
X34986857Y-19483400D01*
X35129714Y-19483400D01*
X35186857Y-19511971D01*
X35215428Y-19540542D01*
X35244000Y-19597685D01*
X35244000Y-19740542D01*
X35215428Y-19797685D01*
X35186857Y-19826257D01*
X35129714Y-19854828D01*
X34986857Y-19854828D01*
X34929714Y-19826257D01*
X34901142Y-19797685D01*
D11*
X49874700Y-28128040D02*
X49874700Y-28602556D01*
X48829700Y-28128040D02*
X48829700Y-28602556D01*
X51347900Y-28128240D02*
X51347900Y-28602756D01*
X50302900Y-28128240D02*
X50302900Y-28602756D01*
X48140289Y-29457700D02*
X48140289Y-27337700D01*
X45080289Y-29457700D02*
X44020289Y-29457700D01*
X46080289Y-27337700D02*
X48140289Y-27337700D01*
X46080289Y-29457700D02*
X46080289Y-27337700D01*
X46080289Y-29457700D02*
X48140289Y-29457700D01*
X44020289Y-29457700D02*
X44020289Y-28397700D01*
X62034300Y-8761000D02*
X60114300Y-8761000D01*
X60114300Y-8761000D02*
X60114300Y-11446000D01*
X62034300Y-11446000D02*
X62034300Y-8761000D01*
X63021442Y-12349200D02*
X63495958Y-12349200D01*
X63021442Y-13394200D02*
X63495958Y-13394200D01*
X63021542Y-13809700D02*
X63496058Y-13809700D01*
X63021542Y-14854700D02*
X63496058Y-14854700D01*
X57892900Y-26861598D02*
X57892900Y-24941598D01*
X55207900Y-26861598D02*
X57892900Y-26861598D01*
X57892900Y-24941598D02*
X55207900Y-24941598D01*
X53249300Y-28128040D02*
X53249300Y-28602556D01*
X54294300Y-28128040D02*
X54294300Y-28602556D01*
X52821100Y-28128140D02*
X52821100Y-28602656D01*
X51776100Y-28128140D02*
X51776100Y-28602656D01*
X57039000Y-29438098D02*
X54979000Y-29438098D01*
X57039000Y-27318098D02*
X57039000Y-29438098D01*
X58039000Y-27318098D02*
X59099000Y-27318098D01*
X59099000Y-27318098D02*
X59099000Y-28378098D01*
X54979000Y-27318098D02*
X54979000Y-29438098D01*
X57039000Y-27318098D02*
X54979000Y-27318098D01*
X63021342Y-16315200D02*
X63495858Y-16315200D01*
X63021342Y-15270200D02*
X63495858Y-15270200D01*
X62148600Y-20602700D02*
X62148600Y-17917700D01*
X60228600Y-17917700D02*
X60228600Y-20602700D01*
X62148600Y-17917700D02*
X60228600Y-17917700D01*
X63021442Y-16730700D02*
X63495958Y-16730700D01*
X63021442Y-17775700D02*
X63495958Y-17775700D01*
X62186000Y-18276000D02*
X63246000Y-18276000D01*
X62186000Y-22396000D02*
X64306000Y-22396000D01*
X64306000Y-20336000D02*
X64306000Y-22396000D01*
X62186000Y-20336000D02*
X62186000Y-22396000D01*
X62186000Y-19336000D02*
X62186000Y-18276000D01*
X62186000Y-20336000D02*
X64306000Y-20336000D01*
X62186000Y-8642600D02*
X62186000Y-7582600D01*
X62186000Y-9642600D02*
X64306000Y-9642600D01*
X64306000Y-9642600D02*
X64306000Y-11702600D01*
X62186000Y-7582600D02*
X63246000Y-7582600D01*
X62186000Y-11702600D02*
X64306000Y-11702600D01*
X62186000Y-9642600D02*
X62186000Y-11702600D01*
X35403058Y-17536900D02*
X34928542Y-17536900D01*
X35403058Y-18581900D02*
X34928542Y-18581900D01*
X47890700Y-24941598D02*
X45205700Y-24941598D01*
X45205700Y-26861598D02*
X47890700Y-26861598D01*
X45205700Y-24941598D02*
X45205700Y-26861598D01*
X39938000Y-20066000D02*
X39368000Y-20066000D01*
X37278000Y-21461000D02*
X37278000Y-20701000D01*
X38300470Y-16196000D02*
X37278000Y-16196000D01*
X39938000Y-16196000D02*
X38915530Y-16196000D01*
X38608000Y-21461000D02*
X37278000Y-21461000D01*
X39938000Y-20066000D02*
X39938000Y-16196000D01*
X37848000Y-20066000D02*
X37278000Y-20066000D01*
X37278000Y-20066000D02*
X37278000Y-16196000D01*
X48966800Y-24902162D02*
X48966800Y-25117834D01*
X49686800Y-24902162D02*
X49686800Y-25117834D01*
X53234000Y-24914862D02*
X53234000Y-25130534D01*
X53954000Y-24914862D02*
X53954000Y-25130534D01*
X60676964Y-13104700D02*
X60892636Y-13104700D01*
X60676964Y-12384700D02*
X60892636Y-12384700D01*
X60595564Y-22185200D02*
X60811236Y-22185200D01*
X60595564Y-21465200D02*
X60811236Y-21465200D01*
X48849237Y-9366600D02*
X49599237Y-10116600D01*
X52229800Y-6596600D02*
X52229800Y-7346600D01*
X48849237Y-7346600D02*
X49599237Y-6596600D01*
X49599237Y-6596600D02*
X52229800Y-6596600D01*
X52229800Y-10116600D02*
X52229800Y-9366600D01*
X49599237Y-10116600D02*
X52229800Y-10116600D01*
X57137000Y-286800D02*
X47257000Y-286800D01*
X46087000Y-4756800D02*
X47137000Y-4756800D01*
X58307000Y-2256800D02*
X58307000Y-4756800D01*
X46087000Y-2256800D02*
X46087000Y-4756800D01*
X57257000Y-4756800D02*
X57257000Y-5746800D01*
X58307000Y-4756800D02*
X57257000Y-4756800D01*
X27730000Y-4610000D02*
X27670000Y-4610000D01*
X21320000Y-4610000D02*
X21260000Y-4610000D01*
X27730000Y-1950000D02*
X27670000Y-1950000D01*
X27730000Y-1950000D02*
X27730000Y-4610000D01*
X21320000Y-1950000D02*
X21260000Y-1950000D01*
X27670000Y-4610000D02*
X27670000Y-6070000D01*
X21260000Y-1950000D02*
X21260000Y-4610000D01*
X8830136Y-19360000D02*
X8614464Y-19360000D01*
X8830136Y-18640000D02*
X8614464Y-18640000D01*
X13198200Y-11214800D02*
X13198200Y-15214800D01*
X16498200Y-11214800D02*
X13198200Y-11214800D01*
X6910041Y-19380000D02*
X6602759Y-19380000D01*
X6910041Y-18620000D02*
X6602759Y-18620000D01*
X1144000Y-6728000D02*
X4444000Y-6728000D01*
X1144000Y-7028000D02*
X1144000Y-6728000D01*
X1144000Y-9528000D02*
X4444000Y-9528000D01*
X4444000Y-6728000D02*
X4444000Y-7028000D01*
X1144000Y-9228000D02*
X1144000Y-9528000D01*
X4444000Y-9528000D02*
X4444000Y-9228000D01*
X6618500Y-8174258D02*
X6618500Y-7699742D01*
X5573500Y-8174258D02*
X5573500Y-7699742D01*
X57389000Y-11119000D02*
X57389000Y-12389000D01*
X56119000Y-11119000D02*
X57389000Y-11119000D01*
X57389000Y-11119000D02*
X49769000Y-11119000D01*
X49769000Y-11119000D02*
X49769000Y-22939000D01*
X49769000Y-22939000D02*
X57389000Y-22939000D01*
X57389000Y-22939000D02*
X57389000Y-11119000D01*
X11489658Y-17854400D02*
X11015142Y-17854400D01*
X11489658Y-18899400D02*
X11015142Y-18899400D01*
X14938080Y-16569600D02*
X14656920Y-16569600D01*
X14938080Y-15549600D02*
X14656920Y-15549600D01*
X13148200Y-9845158D02*
X13148200Y-9370642D01*
X12103200Y-9845158D02*
X12103200Y-9370642D01*
X43163258Y-21448500D02*
X42688742Y-21448500D01*
X43163258Y-22493500D02*
X42688742Y-22493500D01*
X6885000Y-10089900D02*
X6885000Y-12374900D01*
X6885000Y-12374900D02*
X8355000Y-12374900D01*
X8355000Y-12374900D02*
X8355000Y-10089900D01*
X41441000Y-21220100D02*
X43726000Y-21220100D01*
X41441000Y-19750100D02*
X41441000Y-21220100D01*
X43726000Y-19750100D02*
X41441000Y-19750100D01*
X25095580Y-22620000D02*
X24814420Y-22620000D01*
X25095580Y-21600000D02*
X24814420Y-21600000D01*
X6290000Y-17165600D02*
X7015000Y-17165600D01*
X10510000Y-16440600D02*
X10510000Y-17165600D01*
X10510000Y-13670600D02*
X10510000Y-12945600D01*
X10510000Y-17165600D02*
X9785000Y-17165600D01*
X6290000Y-16440600D02*
X6290000Y-17165600D01*
X6290000Y-13670600D02*
X6290000Y-12945600D01*
X6290000Y-12945600D02*
X7015000Y-12945600D01*
X28213200Y-9400200D02*
X28213200Y-10350200D01*
X17993200Y-19620200D02*
X17993200Y-18670200D01*
X28213200Y-19620200D02*
X28213200Y-18670200D01*
X17993200Y-9400200D02*
X17993200Y-10350200D01*
X27263200Y-19620200D02*
X28213200Y-19620200D01*
X18943200Y-19620200D02*
X17993200Y-19620200D01*
X18943200Y-9400200D02*
X17993200Y-9400200D01*
X27263200Y-9400200D02*
X28213200Y-9400200D01*
X17993200Y-10350200D02*
X16653200Y-10350200D01*
X5522700Y-10652642D02*
X5522700Y-11127158D01*
X6567700Y-10652642D02*
X6567700Y-11127158D01*
X16800Y-10800000D02*
X266800Y-10800000D01*
X4416800Y-18600000D02*
X4416800Y-18150000D01*
X4966800Y-13000000D02*
X4516800Y-13000000D01*
X2566800Y-18600000D02*
X4416800Y-18600000D01*
X4966800Y-13000000D02*
X4966800Y-13450000D01*
X4416800Y-10800000D02*
X4416800Y-11250000D01*
X2566800Y-10800000D02*
X4416800Y-10800000D01*
X16800Y-18600000D02*
X266800Y-18600000D01*
X10452300Y-20572400D02*
X12737300Y-20572400D01*
X12737300Y-19102400D02*
X10452300Y-19102400D01*
X12737300Y-20572400D02*
X12737300Y-19102400D01*
X15648100Y-8136400D02*
X13363100Y-8136400D01*
X13363100Y-9606400D02*
X15648100Y-9606400D01*
X13363100Y-8136400D02*
X13363100Y-9606400D01*
X14707720Y-9860000D02*
X14988880Y-9860000D01*
X14707720Y-10880000D02*
X14988880Y-10880000D01*
X12622500Y-26037258D02*
X12622500Y-25562742D01*
X11577500Y-26037258D02*
X11577500Y-25562742D01*
X48750000Y-16237563D02*
X48750000Y-13607000D01*
X48750000Y-13607000D02*
X48000000Y-13607000D01*
X48000000Y-16987563D02*
X48750000Y-16237563D01*
X45230000Y-16237563D02*
X45230000Y-13607000D01*
X45230000Y-13607000D02*
X45980000Y-13607000D01*
X45980000Y-16987563D02*
X45230000Y-16237563D01*
X34941742Y-17032500D02*
X35416258Y-17032500D01*
X34941742Y-15987500D02*
X35416258Y-15987500D01*
D10*
X32219400Y-22860200D02*
X31819400Y-22860200D01*
X29019400Y-26060200D02*
X29019400Y-25660200D01*
X32219400Y-22860200D02*
X32219400Y-23260200D01*
X32219400Y-26060200D02*
X32219400Y-25660200D01*
X29019400Y-22860200D02*
X29419400Y-22860200D01*
X32219400Y-26060200D02*
X31819400Y-26060200D01*
X29019400Y-26060200D02*
X29419400Y-26060200D01*
D11*
X14940580Y-23510000D02*
X14659420Y-23510000D01*
X14940580Y-22490000D02*
X14659420Y-22490000D01*
X21956500Y-26395142D02*
X21956500Y-26869658D01*
X23001500Y-26395142D02*
X23001500Y-26869658D01*
X41441500Y-17378000D02*
X43726500Y-17378000D01*
X43726500Y-15908000D02*
X41441500Y-15908000D01*
X41441500Y-15908000D02*
X41441500Y-17378000D01*
X43905700Y-4905742D02*
X43905700Y-5380258D01*
X42860700Y-4905742D02*
X42860700Y-5380258D01*
X18099000Y-21920200D02*
G75*
G03*
X18099000Y-21920200I-700000J0D01*
G01*
X19770400Y-6120000D02*
X19770400Y-920000D01*
X6950400Y-920000D02*
X19770400Y-920000D01*
X9550400Y-6120000D02*
X19770400Y-6120000D01*
X8280400Y-6120000D02*
X6950400Y-6120000D01*
X9550400Y-3520000D02*
X6950400Y-3520000D01*
X6950400Y-3520000D02*
X6950400Y-920000D01*
X6950400Y-6120000D02*
X6950400Y-4790000D01*
X9550400Y-6120000D02*
X9550400Y-3520000D01*
X27202820Y-28094400D02*
X27483980Y-28094400D01*
X27202820Y-27074400D02*
X27483980Y-27074400D01*
X33913000Y-1707600D02*
X33999724Y-1707600D01*
X35002493Y-5582600D02*
X35303000Y-5582600D01*
X33913000Y-5582600D02*
X34213507Y-5582600D01*
X33913000Y-337600D02*
X34608000Y-337600D01*
X33913000Y-1707600D02*
X33913000Y-5582600D01*
X35303000Y-1707600D02*
X35303000Y-5582600D01*
X35216276Y-1707600D02*
X35303000Y-1707600D01*
X33913000Y-1022600D02*
X33913000Y-337600D01*
X38510400Y-5582600D02*
X38810907Y-5582600D01*
X39900400Y-1707600D02*
X39900400Y-5582600D01*
X38510400Y-337600D02*
X39205400Y-337600D01*
X39813676Y-1707600D02*
X39900400Y-1707600D01*
X38510400Y-1707600D02*
X38510400Y-5582600D01*
X39599893Y-5582600D02*
X39900400Y-5582600D01*
X38510400Y-1707600D02*
X38597124Y-1707600D01*
X38510400Y-1022600D02*
X38510400Y-337600D01*
X14267600Y-27088300D02*
X13617600Y-27088300D01*
X16837600Y-24368300D02*
X16837600Y-24518300D01*
X16187600Y-24368300D02*
X16837600Y-24368300D01*
X16187600Y-27088300D02*
X16837600Y-27088300D01*
X13617600Y-27088300D02*
X13617600Y-26938300D01*
X13617600Y-24368300D02*
X13617600Y-24518300D01*
X14267600Y-24368300D02*
X13617600Y-24368300D01*
X31558620Y-28272200D02*
X31839780Y-28272200D01*
X31558620Y-27252200D02*
X31839780Y-27252200D01*
X24525500Y-26381942D02*
X24525500Y-26856458D01*
X23480500Y-26381942D02*
X23480500Y-26856458D01*
X20432500Y-26394142D02*
X20432500Y-26868658D01*
X21477500Y-26394142D02*
X21477500Y-26868658D01*
X29785542Y-21822500D02*
X30260058Y-21822500D01*
X29785542Y-20777500D02*
X30260058Y-20777500D01*
X36224400Y-1707600D02*
X36311124Y-1707600D01*
X36224400Y-337600D02*
X36919400Y-337600D01*
X37527676Y-1707600D02*
X37614400Y-1707600D01*
X36224400Y-5582600D02*
X36524907Y-5582600D01*
X36224400Y-1707600D02*
X36224400Y-5582600D01*
X36224400Y-1022600D02*
X36224400Y-337600D01*
X37313893Y-5582600D02*
X37614400Y-5582600D01*
X37614400Y-1707600D02*
X37614400Y-5582600D01*
X19953500Y-26394142D02*
X19953500Y-26868658D01*
X18908500Y-26394142D02*
X18908500Y-26868658D01*
X42860700Y-1896342D02*
X42860700Y-2370858D01*
X43905700Y-1896342D02*
X43905700Y-2370858D01*
X42186400Y-1707600D02*
X42186400Y-5582600D01*
X40796400Y-1707600D02*
X40796400Y-5582600D01*
X41885893Y-5582600D02*
X42186400Y-5582600D01*
X40796400Y-5582600D02*
X41096907Y-5582600D01*
X40796400Y-1022600D02*
X40796400Y-337600D01*
X42099676Y-1707600D02*
X42186400Y-1707600D01*
X40796400Y-337600D02*
X41491400Y-337600D01*
X40796400Y-1707600D02*
X40883124Y-1707600D01*
X32691093Y-5582600D02*
X32991600Y-5582600D01*
X31601600Y-1707600D02*
X31688324Y-1707600D01*
X32991600Y-1707600D02*
X32991600Y-5582600D01*
X31601600Y-1022600D02*
X31601600Y-337600D01*
X32904876Y-1707600D02*
X32991600Y-1707600D01*
X31601600Y-337600D02*
X32296600Y-337600D01*
X31601600Y-1707600D02*
X31601600Y-5582600D01*
X31601600Y-5582600D02*
X31902107Y-5582600D01*
X56515000Y-7052000D02*
X56515000Y-9712000D01*
X59115000Y-7052000D02*
X59115000Y-8382000D01*
X56515000Y-7052000D02*
X53915000Y-7052000D01*
X53915000Y-7052000D02*
X53915000Y-9712000D01*
X56515000Y-9712000D02*
X53915000Y-9712000D01*
X57785000Y-7052000D02*
X59115000Y-7052000D01*
X15914600Y-20243800D02*
G75*
G03*
X15914600Y-20243800I-700000J0D01*
G01*
X8130000Y-8027580D02*
X8130000Y-7746420D01*
X7110000Y-8027580D02*
X7110000Y-7746420D01*
X43163258Y-17638500D02*
X42688742Y-17638500D01*
X43163258Y-18683500D02*
X42688742Y-18683500D01*
X33288200Y-19177000D02*
G75*
G03*
X33288200Y-19177000I-700000J0D01*
G01*
M02*
