M48
; DRILL file {KiCad (6.0.7)} date Thu Oct 20 14:38:47 2022
; FORMAT={-:-/ absolute / inch / decimal}
; #@! TF.CreationDate,2022-10-20T14:38:47-04:00
; #@! TF.GenerationSoftware,Kicad,Pcbnew,(6.0.7)
; #@! TF.FileFunction,Plated,1,2,PTH
FMAT,2
INCH
; #@! TA.AperFunction,Plated,PTH,ViaDrill
T1C0.0157
; #@! TA.AperFunction,Plated,PTH,ComponentDrill
T2C0.0197
; #@! TA.AperFunction,Plated,PTH,ComponentDrill
T3C0.0236
; #@! TA.AperFunction,Plated,PTH,ComponentDrill
T4C0.0276
; #@! TA.AperFunction,Plated,PTH,ComponentDrill
T5C0.0315
; #@! TA.AperFunction,Plated,PTH,ComponentDrill
T6C0.0335
; #@! TA.AperFunction,Plated,PTH,ComponentDrill
T7C0.0394
%
G90
G05
T1
X0.207Y-0.5527
X0.2088Y-0.604
X0.2113Y-0.514
X0.2244Y-0.7756
X0.264Y-0.18
X0.264Y-0.225
X0.274Y-0.871
X0.274Y-0.976
X0.274Y-1.025
X0.275Y-0.825
X0.277Y-0.92
X0.311Y-0.7165
X0.338Y-1.076
X0.339Y-0.434
X0.351Y-0.357
X0.3626Y-0.8086
X0.373Y-0.4686
X0.398Y-0.867
X0.398Y-0.915
X0.398Y-0.963
X0.407Y-0.67
X0.42Y-1.065
X0.436Y-0.406
X0.448Y-0.663
X0.45Y-0.333
X0.461Y-0.469
X0.468Y-0.516
X0.4689Y-0.5614
X0.5197Y-0.9488
X0.533Y-0.755
X0.573Y-0.735
X0.617Y-0.738
X0.6551Y-0.3276
X0.658Y-1.088
X0.698Y-0.381
X0.7Y-0.338
X0.7015Y-1.0079
X0.7227Y-1.0832
X0.7256Y-0.8177
X0.731Y-0.748
X0.731Y-0.898
X0.7366Y-0.452
X0.7366Y-0.6745
X0.742Y-0.603
X0.753Y-0.557
X0.764Y-0.973
X0.7748Y-0.2414
X0.782Y-0.588
X0.8016Y-0.4525
X0.8022Y-0.4039
X0.816Y-0.685
X0.819Y-0.128
X0.8219Y-0.9016
X0.827Y-0.742
X0.828Y-0.197
X0.833Y-0.487
X0.8376Y-0.406
X0.838Y-0.87
X0.853Y-1.048
X0.859Y-0.567
X0.8616Y-0.4525
X0.862Y-0.128
X0.8665Y-0.9094
X0.902Y-0.128
X0.905Y-0.2976
X0.921Y-0.566
X0.959Y-0.919
X0.9661Y-0.5091
X0.9724Y-0.1378
X0.995Y-0.939
X0.997Y-1.082
X1.0189Y-0.4335
X1.036Y-0.682
X1.037Y-0.505
X1.038Y-0.939
X1.045Y-0.116
X1.0536Y-1.0065
X1.057Y-0.742
X1.069Y-0.904
X1.0697Y-0.975
X1.094Y-0.131
X1.1024Y-1.0157
X1.1101Y-0.8698
X1.111Y-0.378
X1.1332Y-0.7553
X1.1332Y-0.7953
X1.136Y-0.28
X1.145Y-0.178
X1.1452Y-0.2134
X1.16Y-0.319
X1.171Y-1.09
X1.1732Y-0.7553
X1.1732Y-0.7953
X1.177Y-0.027
X1.182Y-0.352
X1.207Y-0.392
X1.2117Y-0.582
X1.2245Y-0.7275
X1.225Y-0.434
X1.225Y-0.668
X1.249Y-0.597
X1.251Y-0.7
X1.272Y-0.371
X1.282Y-1.043
X1.298Y-0.401
X1.315Y-0.9252
X1.325Y-0.371
X1.354Y-0.402
X1.385Y-0.37
X1.428Y-0.597
X1.433Y-0.436
X1.486Y-0.597
X1.489Y-0.437
X1.55Y-0.439
X1.555Y-0.597
X1.627Y-0.315
X1.656Y-0.34
X1.671Y-0.546
X1.681Y-0.364
X1.697Y-0.572
X1.725Y-0.6
X1.761Y-0.454
X1.7661Y-0.7619
X1.7685Y-0.3039
X1.794Y-0.483
X1.838Y-0.235
X1.87Y-0.139
X1.91Y-0.135
X1.9415Y-0.6675
X1.958Y-0.135
X1.9816Y-0.6794
X1.996Y-0.134
X2.001Y-1.1478
X2.0046Y-1.0148
X2.0065Y-1.0662
X2.0196Y-0.6794
X2.036Y-0.134
X2.0415Y-1.0162
X2.0556Y-0.6794
X2.059Y-1.0857
X2.077Y-0.134
X2.094Y-0.278
X2.114Y-0.248
X2.117Y-1.1477
X2.4176Y-0.5598
X2.4208Y-0.6246
X2.4595Y-0.5643
X2.5215Y-0.6218
X2.5215Y-0.5068
T2
X1.2715Y-0.0403
X1.2715Y-0.0796
X1.2715Y-0.119
X1.2715Y-0.1584
X1.2715Y-0.1977
X1.3625Y-0.0403
X1.3625Y-0.0796
X1.3625Y-0.119
X1.3625Y-0.1584
X1.3625Y-0.1977
X1.4535Y-0.0403
X1.4535Y-0.0796
X1.4535Y-0.119
X1.4535Y-0.1584
X1.4535Y-0.1977
X1.5435Y-0.0403
X1.5435Y-0.0796
X1.5435Y-0.119
X1.5435Y-0.1584
X1.5435Y-0.1977
X1.6335Y-0.0403
X1.6335Y-0.0796
X1.6335Y-0.119
X1.6335Y-0.1584
X1.6335Y-0.1977
T4
X1.52Y-0.665
X1.52Y-0.715
X1.52Y-0.765
X1.52Y-0.815
T5
X1.7748Y-1.118
X1.8536Y-1.118
X2.2063Y-1.1172
X2.285Y-1.1172
X2.49Y-0.3403
X2.49Y-0.419
X2.49Y-0.7613
X2.49Y-0.84
T6
X0.1621Y-0.4803
X0.1621Y-0.6772
T7
X0.326Y-0.0886
X0.326Y-0.1886
X0.426Y-0.0886
X0.426Y-0.1886
X0.526Y-0.0886
X0.526Y-0.1886
X0.626Y-0.0886
X0.626Y-0.1886
X0.726Y-0.0886
X0.726Y-0.1886
X2.0094Y-0.4878
X2.1094Y-0.4878
X2.175Y-0.33
X2.2094Y-0.4878
X2.275Y-0.33
T3
G00X0.042Y-0.4409
M15
G01X0.0696Y-0.4409
M16
G05
G00X0.0696Y-0.7165
M15
G01X0.042Y-0.7165
M16
G05
T0
M30
