G04 #@! TF.GenerationSoftware,KiCad,Pcbnew,(6.0.7)*
G04 #@! TF.CreationDate,2022-10-20T14:14:45-04:00*
G04 #@! TF.ProjectId,ECE477_PCB,45434534-3737-45f5-9043-422e6b696361,rev?*
G04 #@! TF.SameCoordinates,PX2daf690PY1aab7d8*
G04 #@! TF.FileFunction,Legend,Bot*
G04 #@! TF.FilePolarity,Positive*
%FSLAX46Y46*%
G04 Gerber Fmt 4.6, Leading zero omitted, Abs format (unit mm)*
G04 Created by KiCad (PCBNEW (6.0.7)) date 2022-10-20 14:14:45*
%MOMM*%
%LPD*%
G01*
G04 APERTURE LIST*
%ADD10C,0.150000*%
%ADD11C,0.112500*%
%ADD12C,0.120000*%
G04 APERTURE END LIST*
D10*
X43679442Y-24466142D02*
X43879442Y-24466142D01*
X43879442Y-24780428D02*
X43879442Y-24180428D01*
X43593728Y-24180428D01*
X43279442Y-24780428D02*
X43336585Y-24751857D01*
X43365157Y-24694714D01*
X43365157Y-24180428D01*
X43050871Y-24780428D02*
X43050871Y-24380428D01*
X43050871Y-24180428D02*
X43079442Y-24209000D01*
X43050871Y-24237571D01*
X43022300Y-24209000D01*
X43050871Y-24180428D01*
X43050871Y-24237571D01*
X42508014Y-24380428D02*
X42508014Y-24866142D01*
X42536585Y-24923285D01*
X42565157Y-24951857D01*
X42622300Y-24980428D01*
X42708014Y-24980428D01*
X42765157Y-24951857D01*
X42508014Y-24751857D02*
X42565157Y-24780428D01*
X42679442Y-24780428D01*
X42736585Y-24751857D01*
X42765157Y-24723285D01*
X42793728Y-24666142D01*
X42793728Y-24494714D01*
X42765157Y-24437571D01*
X42736585Y-24409000D01*
X42679442Y-24380428D01*
X42565157Y-24380428D01*
X42508014Y-24409000D01*
X42222300Y-24780428D02*
X42222300Y-24180428D01*
X41965157Y-24780428D02*
X41965157Y-24466142D01*
X41993728Y-24409000D01*
X42050871Y-24380428D01*
X42136585Y-24380428D01*
X42193728Y-24409000D01*
X42222300Y-24437571D01*
X41765157Y-24380428D02*
X41536585Y-24380428D01*
X41679442Y-24180428D02*
X41679442Y-24694714D01*
X41650871Y-24751857D01*
X41593728Y-24780428D01*
X41536585Y-24780428D01*
X40536585Y-24723285D02*
X40565157Y-24751857D01*
X40650871Y-24780428D01*
X40708014Y-24780428D01*
X40793728Y-24751857D01*
X40850871Y-24694714D01*
X40879442Y-24637571D01*
X40908014Y-24523285D01*
X40908014Y-24437571D01*
X40879442Y-24323285D01*
X40850871Y-24266142D01*
X40793728Y-24209000D01*
X40708014Y-24180428D01*
X40650871Y-24180428D01*
X40565157Y-24209000D01*
X40536585Y-24237571D01*
X40193728Y-24780428D02*
X40250871Y-24751857D01*
X40279442Y-24723285D01*
X40308014Y-24666142D01*
X40308014Y-24494714D01*
X40279442Y-24437571D01*
X40250871Y-24409000D01*
X40193728Y-24380428D01*
X40108014Y-24380428D01*
X40050871Y-24409000D01*
X40022300Y-24437571D01*
X39993728Y-24494714D01*
X39993728Y-24666142D01*
X40022300Y-24723285D01*
X40050871Y-24751857D01*
X40108014Y-24780428D01*
X40193728Y-24780428D01*
X39736585Y-24380428D02*
X39736585Y-24780428D01*
X39736585Y-24437571D02*
X39708014Y-24409000D01*
X39650871Y-24380428D01*
X39565157Y-24380428D01*
X39508014Y-24409000D01*
X39479442Y-24466142D01*
X39479442Y-24780428D01*
X39279442Y-24380428D02*
X39050871Y-24380428D01*
X39193728Y-24180428D02*
X39193728Y-24694714D01*
X39165157Y-24751857D01*
X39108014Y-24780428D01*
X39050871Y-24780428D01*
X38850871Y-24780428D02*
X38850871Y-24380428D01*
X38850871Y-24494714D02*
X38822300Y-24437571D01*
X38793728Y-24409000D01*
X38736585Y-24380428D01*
X38679442Y-24380428D01*
X38393728Y-24780428D02*
X38450871Y-24751857D01*
X38479442Y-24723285D01*
X38508014Y-24666142D01*
X38508014Y-24494714D01*
X38479442Y-24437571D01*
X38450871Y-24409000D01*
X38393728Y-24380428D01*
X38308014Y-24380428D01*
X38250871Y-24409000D01*
X38222300Y-24437571D01*
X38193728Y-24494714D01*
X38193728Y-24666142D01*
X38222300Y-24723285D01*
X38250871Y-24751857D01*
X38308014Y-24780428D01*
X38393728Y-24780428D01*
X37850871Y-24780428D02*
X37908014Y-24751857D01*
X37936585Y-24694714D01*
X37936585Y-24180428D01*
X37536585Y-24780428D02*
X37593728Y-24751857D01*
X37622300Y-24694714D01*
X37622300Y-24180428D01*
X37079442Y-24751857D02*
X37136585Y-24780428D01*
X37250871Y-24780428D01*
X37308014Y-24751857D01*
X37336585Y-24694714D01*
X37336585Y-24466142D01*
X37308014Y-24409000D01*
X37250871Y-24380428D01*
X37136585Y-24380428D01*
X37079442Y-24409000D01*
X37050871Y-24466142D01*
X37050871Y-24523285D01*
X37336585Y-24580428D01*
X36793728Y-24780428D02*
X36793728Y-24380428D01*
X36793728Y-24494714D02*
X36765157Y-24437571D01*
X36736585Y-24409000D01*
X36679442Y-24380428D01*
X36622300Y-24380428D01*
X43536585Y-25746428D02*
X43736585Y-25460714D01*
X43879442Y-25746428D02*
X43879442Y-25146428D01*
X43650871Y-25146428D01*
X43593728Y-25175000D01*
X43565157Y-25203571D01*
X43536585Y-25260714D01*
X43536585Y-25346428D01*
X43565157Y-25403571D01*
X43593728Y-25432142D01*
X43650871Y-25460714D01*
X43879442Y-25460714D01*
X43050871Y-25717857D02*
X43108014Y-25746428D01*
X43222300Y-25746428D01*
X43279442Y-25717857D01*
X43308014Y-25660714D01*
X43308014Y-25432142D01*
X43279442Y-25375000D01*
X43222300Y-25346428D01*
X43108014Y-25346428D01*
X43050871Y-25375000D01*
X43022300Y-25432142D01*
X43022300Y-25489285D01*
X43308014Y-25546428D01*
X42822300Y-25346428D02*
X42679442Y-25746428D01*
X42536585Y-25346428D01*
X42308014Y-25689285D02*
X42279442Y-25717857D01*
X42308014Y-25746428D01*
X42336585Y-25717857D01*
X42308014Y-25689285D01*
X42308014Y-25746428D01*
X41450871Y-25146428D02*
X41393728Y-25146428D01*
X41336585Y-25175000D01*
X41308014Y-25203571D01*
X41279442Y-25260714D01*
X41250871Y-25375000D01*
X41250871Y-25517857D01*
X41279442Y-25632142D01*
X41308014Y-25689285D01*
X41336585Y-25717857D01*
X41393728Y-25746428D01*
X41450871Y-25746428D01*
X41508014Y-25717857D01*
X41536585Y-25689285D01*
X41565157Y-25632142D01*
X41593728Y-25517857D01*
X41593728Y-25375000D01*
X41565157Y-25260714D01*
X41536585Y-25203571D01*
X41508014Y-25175000D01*
X41450871Y-25146428D01*
X40993728Y-25689285D02*
X40965157Y-25717857D01*
X40993728Y-25746428D01*
X41022300Y-25717857D01*
X40993728Y-25689285D01*
X40993728Y-25746428D01*
X40593728Y-25146428D02*
X40536585Y-25146428D01*
X40479442Y-25175000D01*
X40450871Y-25203571D01*
X40422300Y-25260714D01*
X40393728Y-25375000D01*
X40393728Y-25517857D01*
X40422300Y-25632142D01*
X40450871Y-25689285D01*
X40479442Y-25717857D01*
X40536585Y-25746428D01*
X40593728Y-25746428D01*
X40650871Y-25717857D01*
X40679442Y-25689285D01*
X40708014Y-25632142D01*
X40736585Y-25517857D01*
X40736585Y-25375000D01*
X40708014Y-25260714D01*
X40679442Y-25203571D01*
X40650871Y-25175000D01*
X40593728Y-25146428D01*
X43879442Y-26712428D02*
X43879442Y-26112428D01*
X43679442Y-26541000D01*
X43479442Y-26112428D01*
X43479442Y-26712428D01*
X43193728Y-26712428D02*
X43193728Y-26312428D01*
X43193728Y-26112428D02*
X43222300Y-26141000D01*
X43193728Y-26169571D01*
X43165157Y-26141000D01*
X43193728Y-26112428D01*
X43193728Y-26169571D01*
X42650871Y-26683857D02*
X42708014Y-26712428D01*
X42822300Y-26712428D01*
X42879442Y-26683857D01*
X42908014Y-26655285D01*
X42936585Y-26598142D01*
X42936585Y-26426714D01*
X42908014Y-26369571D01*
X42879442Y-26341000D01*
X42822300Y-26312428D01*
X42708014Y-26312428D01*
X42650871Y-26341000D01*
X42393728Y-26712428D02*
X42393728Y-26112428D01*
X42136585Y-26712428D02*
X42136585Y-26398142D01*
X42165157Y-26341000D01*
X42222300Y-26312428D01*
X42308014Y-26312428D01*
X42365157Y-26341000D01*
X42393728Y-26369571D01*
X41593728Y-26712428D02*
X41593728Y-26398142D01*
X41622300Y-26341000D01*
X41679442Y-26312428D01*
X41793728Y-26312428D01*
X41850871Y-26341000D01*
X41593728Y-26683857D02*
X41650871Y-26712428D01*
X41793728Y-26712428D01*
X41850871Y-26683857D01*
X41879442Y-26626714D01*
X41879442Y-26569571D01*
X41850871Y-26512428D01*
X41793728Y-26483857D01*
X41650871Y-26483857D01*
X41593728Y-26455285D01*
X41079442Y-26683857D02*
X41136585Y-26712428D01*
X41250871Y-26712428D01*
X41308014Y-26683857D01*
X41336585Y-26626714D01*
X41336585Y-26398142D01*
X41308014Y-26341000D01*
X41250871Y-26312428D01*
X41136585Y-26312428D01*
X41079442Y-26341000D01*
X41050871Y-26398142D01*
X41050871Y-26455285D01*
X41336585Y-26512428D01*
X40708014Y-26712428D02*
X40765157Y-26683857D01*
X40793728Y-26626714D01*
X40793728Y-26112428D01*
X39736585Y-26712428D02*
X40022300Y-26712428D01*
X40022300Y-26112428D01*
X39279442Y-26712428D02*
X39279442Y-26398142D01*
X39308014Y-26341000D01*
X39365157Y-26312428D01*
X39479442Y-26312428D01*
X39536585Y-26341000D01*
X39279442Y-26683857D02*
X39336585Y-26712428D01*
X39479442Y-26712428D01*
X39536585Y-26683857D01*
X39565157Y-26626714D01*
X39565157Y-26569571D01*
X39536585Y-26512428D01*
X39479442Y-26483857D01*
X39336585Y-26483857D01*
X39279442Y-26455285D01*
X38993728Y-26312428D02*
X38993728Y-26712428D01*
X38993728Y-26369571D02*
X38965157Y-26341000D01*
X38908014Y-26312428D01*
X38822300Y-26312428D01*
X38765157Y-26341000D01*
X38736585Y-26398142D01*
X38736585Y-26712428D01*
X38193728Y-26312428D02*
X38193728Y-26798142D01*
X38222300Y-26855285D01*
X38250871Y-26883857D01*
X38308014Y-26912428D01*
X38393728Y-26912428D01*
X38450871Y-26883857D01*
X38193728Y-26683857D02*
X38250871Y-26712428D01*
X38365157Y-26712428D01*
X38422300Y-26683857D01*
X38450871Y-26655285D01*
X38479442Y-26598142D01*
X38479442Y-26426714D01*
X38450871Y-26369571D01*
X38422300Y-26341000D01*
X38365157Y-26312428D01*
X38250871Y-26312428D01*
X38193728Y-26341000D01*
X37993728Y-26312428D02*
X37765157Y-26312428D01*
X37908014Y-26712428D02*
X37908014Y-26198142D01*
X37879442Y-26141000D01*
X37822300Y-26112428D01*
X37765157Y-26112428D01*
X37479442Y-26712428D02*
X37536585Y-26683857D01*
X37565157Y-26655285D01*
X37593728Y-26598142D01*
X37593728Y-26426714D01*
X37565157Y-26369571D01*
X37536585Y-26341000D01*
X37479442Y-26312428D01*
X37393728Y-26312428D01*
X37336585Y-26341000D01*
X37308014Y-26369571D01*
X37279442Y-26426714D01*
X37279442Y-26598142D01*
X37308014Y-26655285D01*
X37336585Y-26683857D01*
X37393728Y-26712428D01*
X37479442Y-26712428D01*
X37022300Y-26712428D02*
X37022300Y-26312428D01*
X37022300Y-26426714D02*
X36993728Y-26369571D01*
X36965157Y-26341000D01*
X36908014Y-26312428D01*
X36850871Y-26312428D01*
X36393728Y-26712428D02*
X36393728Y-26112428D01*
X36393728Y-26683857D02*
X36450871Y-26712428D01*
X36565157Y-26712428D01*
X36622300Y-26683857D01*
X36650871Y-26655285D01*
X36679442Y-26598142D01*
X36679442Y-26426714D01*
X36650871Y-26369571D01*
X36622300Y-26341000D01*
X36565157Y-26312428D01*
X36450871Y-26312428D01*
X36393728Y-26341000D01*
X43908014Y-27649857D02*
X43822300Y-27678428D01*
X43679442Y-27678428D01*
X43622300Y-27649857D01*
X43593728Y-27621285D01*
X43565157Y-27564142D01*
X43565157Y-27507000D01*
X43593728Y-27449857D01*
X43622300Y-27421285D01*
X43679442Y-27392714D01*
X43793728Y-27364142D01*
X43850871Y-27335571D01*
X43879442Y-27307000D01*
X43908014Y-27249857D01*
X43908014Y-27192714D01*
X43879442Y-27135571D01*
X43850871Y-27107000D01*
X43793728Y-27078428D01*
X43650871Y-27078428D01*
X43565157Y-27107000D01*
X43050871Y-27678428D02*
X43050871Y-27364142D01*
X43079442Y-27307000D01*
X43136585Y-27278428D01*
X43250871Y-27278428D01*
X43308014Y-27307000D01*
X43050871Y-27649857D02*
X43108014Y-27678428D01*
X43250871Y-27678428D01*
X43308014Y-27649857D01*
X43336585Y-27592714D01*
X43336585Y-27535571D01*
X43308014Y-27478428D01*
X43250871Y-27449857D01*
X43108014Y-27449857D01*
X43050871Y-27421285D01*
X42765157Y-27278428D02*
X42765157Y-27678428D01*
X42765157Y-27335571D02*
X42736585Y-27307000D01*
X42679442Y-27278428D01*
X42593728Y-27278428D01*
X42536585Y-27307000D01*
X42508014Y-27364142D01*
X42508014Y-27678428D01*
X42308014Y-27278428D02*
X42079442Y-27278428D01*
X42222300Y-27078428D02*
X42222300Y-27592714D01*
X42193728Y-27649857D01*
X42136585Y-27678428D01*
X42079442Y-27678428D01*
X41879442Y-27678428D02*
X41879442Y-27278428D01*
X41879442Y-27078428D02*
X41908014Y-27107000D01*
X41879442Y-27135571D01*
X41850871Y-27107000D01*
X41879442Y-27078428D01*
X41879442Y-27135571D01*
X41336585Y-27678428D02*
X41336585Y-27364142D01*
X41365157Y-27307000D01*
X41422300Y-27278428D01*
X41536585Y-27278428D01*
X41593728Y-27307000D01*
X41336585Y-27649857D02*
X41393728Y-27678428D01*
X41536585Y-27678428D01*
X41593728Y-27649857D01*
X41622300Y-27592714D01*
X41622300Y-27535571D01*
X41593728Y-27478428D01*
X41536585Y-27449857D01*
X41393728Y-27449857D01*
X41336585Y-27421285D01*
X40793728Y-27278428D02*
X40793728Y-27764142D01*
X40822300Y-27821285D01*
X40850871Y-27849857D01*
X40908014Y-27878428D01*
X40993728Y-27878428D01*
X41050871Y-27849857D01*
X40793728Y-27649857D02*
X40850871Y-27678428D01*
X40965157Y-27678428D01*
X41022300Y-27649857D01*
X41050871Y-27621285D01*
X41079442Y-27564142D01*
X41079442Y-27392714D01*
X41050871Y-27335571D01*
X41022300Y-27307000D01*
X40965157Y-27278428D01*
X40850871Y-27278428D01*
X40793728Y-27307000D01*
X40422300Y-27678428D02*
X40479442Y-27649857D01*
X40508014Y-27621285D01*
X40536585Y-27564142D01*
X40536585Y-27392714D01*
X40508014Y-27335571D01*
X40479442Y-27307000D01*
X40422300Y-27278428D01*
X40336585Y-27278428D01*
X40279442Y-27307000D01*
X40250871Y-27335571D01*
X40222300Y-27392714D01*
X40222300Y-27564142D01*
X40250871Y-27621285D01*
X40279442Y-27649857D01*
X40336585Y-27678428D01*
X40422300Y-27678428D01*
X39508014Y-27678428D02*
X39508014Y-27078428D01*
X39365157Y-27078428D01*
X39279442Y-27107000D01*
X39222300Y-27164142D01*
X39193728Y-27221285D01*
X39165157Y-27335571D01*
X39165157Y-27421285D01*
X39193728Y-27535571D01*
X39222300Y-27592714D01*
X39279442Y-27649857D01*
X39365157Y-27678428D01*
X39508014Y-27678428D01*
X38679442Y-27649857D02*
X38736585Y-27678428D01*
X38850871Y-27678428D01*
X38908014Y-27649857D01*
X38936585Y-27592714D01*
X38936585Y-27364142D01*
X38908014Y-27307000D01*
X38850871Y-27278428D01*
X38736585Y-27278428D01*
X38679442Y-27307000D01*
X38650871Y-27364142D01*
X38650871Y-27421285D01*
X38936585Y-27478428D01*
X38308014Y-27678428D02*
X38365157Y-27649857D01*
X38393728Y-27592714D01*
X38393728Y-27078428D01*
X37822300Y-27278428D02*
X37822300Y-27764142D01*
X37850871Y-27821285D01*
X37879442Y-27849857D01*
X37936585Y-27878428D01*
X38022300Y-27878428D01*
X38079442Y-27849857D01*
X37822300Y-27649857D02*
X37879442Y-27678428D01*
X37993728Y-27678428D01*
X38050871Y-27649857D01*
X38079442Y-27621285D01*
X38108014Y-27564142D01*
X38108014Y-27392714D01*
X38079442Y-27335571D01*
X38050871Y-27307000D01*
X37993728Y-27278428D01*
X37879442Y-27278428D01*
X37822300Y-27307000D01*
X37279442Y-27678428D02*
X37279442Y-27364142D01*
X37308014Y-27307000D01*
X37365157Y-27278428D01*
X37479442Y-27278428D01*
X37536585Y-27307000D01*
X37279442Y-27649857D02*
X37336585Y-27678428D01*
X37479442Y-27678428D01*
X37536585Y-27649857D01*
X37565157Y-27592714D01*
X37565157Y-27535571D01*
X37536585Y-27478428D01*
X37479442Y-27449857D01*
X37336585Y-27449857D01*
X37279442Y-27421285D01*
X36736585Y-27678428D02*
X36736585Y-27078428D01*
X36736585Y-27649857D02*
X36793728Y-27678428D01*
X36908014Y-27678428D01*
X36965157Y-27649857D01*
X36993728Y-27621285D01*
X37022300Y-27564142D01*
X37022300Y-27392714D01*
X36993728Y-27335571D01*
X36965157Y-27307000D01*
X36908014Y-27278428D01*
X36793728Y-27278428D01*
X36736585Y-27307000D01*
X36365157Y-27678428D02*
X36422300Y-27649857D01*
X36450871Y-27621285D01*
X36479442Y-27564142D01*
X36479442Y-27392714D01*
X36450871Y-27335571D01*
X36422300Y-27307000D01*
X36365157Y-27278428D01*
X36279442Y-27278428D01*
X36222300Y-27307000D01*
X36193728Y-27335571D01*
X36165157Y-27392714D01*
X36165157Y-27564142D01*
X36193728Y-27621285D01*
X36222300Y-27649857D01*
X36279442Y-27678428D01*
X36365157Y-27678428D01*
X43708014Y-28044428D02*
X43708014Y-28473000D01*
X43736585Y-28558714D01*
X43793728Y-28615857D01*
X43879442Y-28644428D01*
X43936585Y-28644428D01*
X43336585Y-28644428D02*
X43393728Y-28615857D01*
X43422300Y-28587285D01*
X43450871Y-28530142D01*
X43450871Y-28358714D01*
X43422300Y-28301571D01*
X43393728Y-28273000D01*
X43336585Y-28244428D01*
X43250871Y-28244428D01*
X43193728Y-28273000D01*
X43165157Y-28301571D01*
X43136585Y-28358714D01*
X43136585Y-28530142D01*
X43165157Y-28587285D01*
X43193728Y-28615857D01*
X43250871Y-28644428D01*
X43336585Y-28644428D01*
X42879442Y-28244428D02*
X42879442Y-28644428D01*
X42879442Y-28301571D02*
X42850871Y-28273000D01*
X42793728Y-28244428D01*
X42708014Y-28244428D01*
X42650871Y-28273000D01*
X42622300Y-28330142D01*
X42622300Y-28644428D01*
X42079442Y-28644428D02*
X42079442Y-28330142D01*
X42108014Y-28273000D01*
X42165157Y-28244428D01*
X42279442Y-28244428D01*
X42336585Y-28273000D01*
X42079442Y-28615857D02*
X42136585Y-28644428D01*
X42279442Y-28644428D01*
X42336585Y-28615857D01*
X42365157Y-28558714D01*
X42365157Y-28501571D01*
X42336585Y-28444428D01*
X42279442Y-28415857D01*
X42136585Y-28415857D01*
X42079442Y-28387285D01*
X41879442Y-28244428D02*
X41650871Y-28244428D01*
X41793728Y-28044428D02*
X41793728Y-28558714D01*
X41765157Y-28615857D01*
X41708014Y-28644428D01*
X41650871Y-28644428D01*
X41450871Y-28644428D02*
X41450871Y-28044428D01*
X41193728Y-28644428D02*
X41193728Y-28330142D01*
X41222300Y-28273000D01*
X41279442Y-28244428D01*
X41365157Y-28244428D01*
X41422300Y-28273000D01*
X41450871Y-28301571D01*
X40650871Y-28644428D02*
X40650871Y-28330142D01*
X40679442Y-28273000D01*
X40736585Y-28244428D01*
X40850871Y-28244428D01*
X40908014Y-28273000D01*
X40650871Y-28615857D02*
X40708014Y-28644428D01*
X40850871Y-28644428D01*
X40908014Y-28615857D01*
X40936585Y-28558714D01*
X40936585Y-28501571D01*
X40908014Y-28444428D01*
X40850871Y-28415857D01*
X40708014Y-28415857D01*
X40650871Y-28387285D01*
X40365157Y-28244428D02*
X40365157Y-28644428D01*
X40365157Y-28301571D02*
X40336585Y-28273000D01*
X40279442Y-28244428D01*
X40193728Y-28244428D01*
X40136585Y-28273000D01*
X40108014Y-28330142D01*
X40108014Y-28644428D01*
X39422300Y-28044428D02*
X39279442Y-28644428D01*
X39165157Y-28215857D01*
X39050871Y-28644428D01*
X38908014Y-28044428D01*
X38593728Y-28644428D02*
X38650871Y-28615857D01*
X38679442Y-28587285D01*
X38708014Y-28530142D01*
X38708014Y-28358714D01*
X38679442Y-28301571D01*
X38650871Y-28273000D01*
X38593728Y-28244428D01*
X38508014Y-28244428D01*
X38450871Y-28273000D01*
X38422300Y-28301571D01*
X38393728Y-28358714D01*
X38393728Y-28530142D01*
X38422300Y-28587285D01*
X38450871Y-28615857D01*
X38508014Y-28644428D01*
X38593728Y-28644428D01*
X38165157Y-28615857D02*
X38108014Y-28644428D01*
X37993728Y-28644428D01*
X37936585Y-28615857D01*
X37908014Y-28558714D01*
X37908014Y-28530142D01*
X37936585Y-28473000D01*
X37993728Y-28444428D01*
X38079442Y-28444428D01*
X38136585Y-28415857D01*
X38165157Y-28358714D01*
X38165157Y-28330142D01*
X38136585Y-28273000D01*
X38079442Y-28244428D01*
X37993728Y-28244428D01*
X37936585Y-28273000D01*
X37650871Y-28644428D02*
X37650871Y-28244428D01*
X37650871Y-28044428D02*
X37679442Y-28073000D01*
X37650871Y-28101571D01*
X37622300Y-28073000D01*
X37650871Y-28044428D01*
X37650871Y-28101571D01*
X37108014Y-28644428D02*
X37108014Y-28330142D01*
X37136585Y-28273000D01*
X37193728Y-28244428D01*
X37308014Y-28244428D01*
X37365157Y-28273000D01*
X37108014Y-28615857D02*
X37165157Y-28644428D01*
X37308014Y-28644428D01*
X37365157Y-28615857D01*
X37393728Y-28558714D01*
X37393728Y-28501571D01*
X37365157Y-28444428D01*
X37308014Y-28415857D01*
X37165157Y-28415857D01*
X37108014Y-28387285D01*
X36822300Y-28644428D02*
X36822300Y-28044428D01*
X36765157Y-28415857D02*
X36593728Y-28644428D01*
X36593728Y-28244428D02*
X36822300Y-28473000D01*
X43765157Y-29010428D02*
X43650871Y-29010428D01*
X43593728Y-29039000D01*
X43536585Y-29096142D01*
X43508014Y-29210428D01*
X43508014Y-29410428D01*
X43536585Y-29524714D01*
X43593728Y-29581857D01*
X43650871Y-29610428D01*
X43765157Y-29610428D01*
X43822300Y-29581857D01*
X43879442Y-29524714D01*
X43908014Y-29410428D01*
X43908014Y-29210428D01*
X43879442Y-29096142D01*
X43822300Y-29039000D01*
X43765157Y-29010428D01*
X43308014Y-29210428D02*
X43193728Y-29610428D01*
X43079442Y-29324714D01*
X42965157Y-29610428D01*
X42850871Y-29210428D01*
X42393728Y-29581857D02*
X42450871Y-29610428D01*
X42565157Y-29610428D01*
X42622300Y-29581857D01*
X42650871Y-29524714D01*
X42650871Y-29296142D01*
X42622300Y-29239000D01*
X42565157Y-29210428D01*
X42450871Y-29210428D01*
X42393728Y-29239000D01*
X42365157Y-29296142D01*
X42365157Y-29353285D01*
X42650871Y-29410428D01*
X42108014Y-29210428D02*
X42108014Y-29610428D01*
X42108014Y-29267571D02*
X42079442Y-29239000D01*
X42022300Y-29210428D01*
X41936585Y-29210428D01*
X41879442Y-29239000D01*
X41850871Y-29296142D01*
X41850871Y-29610428D01*
X41108014Y-29610428D02*
X41108014Y-29010428D01*
X40908014Y-29439000D01*
X40708014Y-29010428D01*
X40708014Y-29610428D01*
X40165157Y-29610428D02*
X40165157Y-29296142D01*
X40193728Y-29239000D01*
X40250871Y-29210428D01*
X40365157Y-29210428D01*
X40422300Y-29239000D01*
X40165157Y-29581857D02*
X40222300Y-29610428D01*
X40365157Y-29610428D01*
X40422300Y-29581857D01*
X40450871Y-29524714D01*
X40450871Y-29467571D01*
X40422300Y-29410428D01*
X40365157Y-29381857D01*
X40222300Y-29381857D01*
X40165157Y-29353285D01*
X39879442Y-29210428D02*
X39879442Y-29610428D01*
X39879442Y-29267571D02*
X39850871Y-29239000D01*
X39793728Y-29210428D01*
X39708014Y-29210428D01*
X39650871Y-29239000D01*
X39622300Y-29296142D01*
X39622300Y-29610428D01*
X39079442Y-29610428D02*
X39079442Y-29010428D01*
X39079442Y-29581857D02*
X39136585Y-29610428D01*
X39250871Y-29610428D01*
X39308014Y-29581857D01*
X39336585Y-29553285D01*
X39365157Y-29496142D01*
X39365157Y-29324714D01*
X39336585Y-29267571D01*
X39308014Y-29239000D01*
X39250871Y-29210428D01*
X39136585Y-29210428D01*
X39079442Y-29239000D01*
X38565157Y-29581857D02*
X38622300Y-29610428D01*
X38736585Y-29610428D01*
X38793728Y-29581857D01*
X38822300Y-29524714D01*
X38822300Y-29296142D01*
X38793728Y-29239000D01*
X38736585Y-29210428D01*
X38622300Y-29210428D01*
X38565157Y-29239000D01*
X38536585Y-29296142D01*
X38536585Y-29353285D01*
X38822300Y-29410428D01*
X38193728Y-29610428D02*
X38250871Y-29581857D01*
X38279442Y-29524714D01*
X38279442Y-29010428D01*
D11*
X54705971Y-11125571D02*
X54705971Y-10675571D01*
X54598828Y-10675571D01*
X54534542Y-10697000D01*
X54491685Y-10739857D01*
X54470257Y-10782714D01*
X54448828Y-10868428D01*
X54448828Y-10932714D01*
X54470257Y-11018428D01*
X54491685Y-11061285D01*
X54534542Y-11104142D01*
X54598828Y-11125571D01*
X54705971Y-11125571D01*
X54255971Y-11125571D02*
X54255971Y-10675571D01*
X53998828Y-11125571D01*
X53998828Y-10675571D01*
X53784542Y-11125571D02*
X53784542Y-10675571D01*
X53613114Y-10675571D01*
X53570257Y-10697000D01*
X53548828Y-10718428D01*
X53527400Y-10761285D01*
X53527400Y-10825571D01*
X53548828Y-10868428D01*
X53570257Y-10889857D01*
X53613114Y-10911285D01*
X53784542Y-10911285D01*
D10*
X47185714Y-9114285D02*
X47214285Y-9142857D01*
X47300000Y-9171428D01*
X47357142Y-9171428D01*
X47442857Y-9142857D01*
X47500000Y-9085714D01*
X47528571Y-9028571D01*
X47557142Y-8914285D01*
X47557142Y-8828571D01*
X47528571Y-8714285D01*
X47500000Y-8657142D01*
X47442857Y-8600000D01*
X47357142Y-8571428D01*
X47300000Y-8571428D01*
X47214285Y-8600000D01*
X47185714Y-8628571D01*
X46957142Y-8628571D02*
X46928571Y-8600000D01*
X46871428Y-8571428D01*
X46728571Y-8571428D01*
X46671428Y-8600000D01*
X46642857Y-8628571D01*
X46614285Y-8685714D01*
X46614285Y-8742857D01*
X46642857Y-8828571D01*
X46985714Y-9171428D01*
X46614285Y-9171428D01*
X46271428Y-8828571D02*
X46328571Y-8800000D01*
X46357142Y-8771428D01*
X46385714Y-8714285D01*
X46385714Y-8685714D01*
X46357142Y-8628571D01*
X46328571Y-8600000D01*
X46271428Y-8571428D01*
X46157142Y-8571428D01*
X46100000Y-8600000D01*
X46071428Y-8628571D01*
X46042857Y-8685714D01*
X46042857Y-8714285D01*
X46071428Y-8771428D01*
X46100000Y-8800000D01*
X46157142Y-8828571D01*
X46271428Y-8828571D01*
X46328571Y-8857142D01*
X46357142Y-8885714D01*
X46385714Y-8942857D01*
X46385714Y-9057142D01*
X46357142Y-9114285D01*
X46328571Y-9142857D01*
X46271428Y-9171428D01*
X46157142Y-9171428D01*
X46100000Y-9142857D01*
X46071428Y-9114285D01*
X46042857Y-9057142D01*
X46042857Y-8942857D01*
X46071428Y-8885714D01*
X46100000Y-8857142D01*
X46157142Y-8828571D01*
X48791811Y-25417995D02*
X48763240Y-25360852D01*
X48706097Y-25303709D01*
X48620382Y-25217995D01*
X48591811Y-25160852D01*
X48591811Y-25103709D01*
X48734668Y-25132280D02*
X48706097Y-25075138D01*
X48648954Y-25017995D01*
X48534668Y-24989423D01*
X48334668Y-24989423D01*
X48220382Y-25017995D01*
X48163240Y-25075138D01*
X48134668Y-25132280D01*
X48134668Y-25246566D01*
X48163240Y-25303709D01*
X48220382Y-25360852D01*
X48334668Y-25389423D01*
X48534668Y-25389423D01*
X48648954Y-25360852D01*
X48706097Y-25303709D01*
X48734668Y-25246566D01*
X48734668Y-25132280D01*
X48734668Y-25960852D02*
X48734668Y-25617995D01*
X48734668Y-25789423D02*
X48134668Y-25789423D01*
X48220382Y-25732280D01*
X48277525Y-25675138D01*
X48306097Y-25617995D01*
X60417962Y-14749631D02*
X60475105Y-14721060D01*
X60532248Y-14663917D01*
X60617962Y-14578202D01*
X60675105Y-14549631D01*
X60732248Y-14549631D01*
X60703677Y-14692488D02*
X60760820Y-14663917D01*
X60817962Y-14606774D01*
X60846534Y-14492488D01*
X60846534Y-14292488D01*
X60817962Y-14178202D01*
X60760820Y-14121060D01*
X60703677Y-14092488D01*
X60589391Y-14092488D01*
X60532248Y-14121060D01*
X60475105Y-14178202D01*
X60446534Y-14292488D01*
X60446534Y-14492488D01*
X60475105Y-14606774D01*
X60532248Y-14663917D01*
X60589391Y-14692488D01*
X60703677Y-14692488D01*
X59932248Y-14292488D02*
X59932248Y-14692488D01*
X60075105Y-14063917D02*
X60217962Y-14492488D01*
X59846534Y-14492488D01*
X54654011Y-25402495D02*
X54625440Y-25345352D01*
X54568297Y-25288209D01*
X54482582Y-25202495D01*
X54454011Y-25145352D01*
X54454011Y-25088209D01*
X54596868Y-25116780D02*
X54568297Y-25059638D01*
X54511154Y-25002495D01*
X54396868Y-24973923D01*
X54196868Y-24973923D01*
X54082582Y-25002495D01*
X54025440Y-25059638D01*
X53996868Y-25116780D01*
X53996868Y-25231066D01*
X54025440Y-25288209D01*
X54082582Y-25345352D01*
X54196868Y-25373923D01*
X54396868Y-25373923D01*
X54511154Y-25345352D01*
X54568297Y-25288209D01*
X54596868Y-25231066D01*
X54596868Y-25116780D01*
X54054011Y-25602495D02*
X54025440Y-25631066D01*
X53996868Y-25688209D01*
X53996868Y-25831066D01*
X54025440Y-25888209D01*
X54054011Y-25916780D01*
X54111154Y-25945352D01*
X54168297Y-25945352D01*
X54254011Y-25916780D01*
X54596868Y-25573923D01*
X54596868Y-25945352D01*
X60459482Y-16100951D02*
X60516625Y-16072380D01*
X60573768Y-16015237D01*
X60659482Y-15929522D01*
X60716625Y-15900951D01*
X60773768Y-15900951D01*
X60745197Y-16043808D02*
X60802340Y-16015237D01*
X60859482Y-15958094D01*
X60888054Y-15843808D01*
X60888054Y-15643808D01*
X60859482Y-15529522D01*
X60802340Y-15472380D01*
X60745197Y-15443808D01*
X60630911Y-15443808D01*
X60573768Y-15472380D01*
X60516625Y-15529522D01*
X60488054Y-15643808D01*
X60488054Y-15843808D01*
X60516625Y-15958094D01*
X60573768Y-16015237D01*
X60630911Y-16043808D01*
X60745197Y-16043808D01*
X60288054Y-15443808D02*
X59916625Y-15443808D01*
X60116625Y-15672380D01*
X60030911Y-15672380D01*
X59973768Y-15700951D01*
X59945197Y-15729522D01*
X59916625Y-15786665D01*
X59916625Y-15929522D01*
X59945197Y-15986665D01*
X59973768Y-16015237D01*
X60030911Y-16043808D01*
X60202340Y-16043808D01*
X60259482Y-16015237D01*
X60288054Y-15986665D01*
X51763600Y-15784485D02*
X51792171Y-15813057D01*
X51877885Y-15841628D01*
X51935028Y-15841628D01*
X52020742Y-15813057D01*
X52077885Y-15755914D01*
X52106457Y-15698771D01*
X52135028Y-15584485D01*
X52135028Y-15498771D01*
X52106457Y-15384485D01*
X52077885Y-15327342D01*
X52020742Y-15270200D01*
X51935028Y-15241628D01*
X51877885Y-15241628D01*
X51792171Y-15270200D01*
X51763600Y-15298771D01*
X51535028Y-15298771D02*
X51506457Y-15270200D01*
X51449314Y-15241628D01*
X51306457Y-15241628D01*
X51249314Y-15270200D01*
X51220742Y-15298771D01*
X51192171Y-15355914D01*
X51192171Y-15413057D01*
X51220742Y-15498771D01*
X51563600Y-15841628D01*
X51192171Y-15841628D01*
X47280485Y-23725200D02*
X47309057Y-23696628D01*
X47337628Y-23610914D01*
X47337628Y-23553771D01*
X47309057Y-23468057D01*
X47251914Y-23410914D01*
X47194771Y-23382342D01*
X47080485Y-23353771D01*
X46994771Y-23353771D01*
X46880485Y-23382342D01*
X46823342Y-23410914D01*
X46766200Y-23468057D01*
X46737628Y-23553771D01*
X46737628Y-23610914D01*
X46766200Y-23696628D01*
X46794771Y-23725200D01*
X46737628Y-24268057D02*
X46737628Y-23982342D01*
X47023342Y-23953771D01*
X46994771Y-23982342D01*
X46966200Y-24039485D01*
X46966200Y-24182342D01*
X46994771Y-24239485D01*
X47023342Y-24268057D01*
X47080485Y-24296628D01*
X47223342Y-24296628D01*
X47280485Y-24268057D01*
X47309057Y-24239485D01*
X47337628Y-24182342D01*
X47337628Y-24039485D01*
X47309057Y-23982342D01*
X47280485Y-23953771D01*
X16223285Y-16061485D02*
X16251857Y-16032914D01*
X16280428Y-15947200D01*
X16280428Y-15890057D01*
X16251857Y-15804342D01*
X16194714Y-15747200D01*
X16137571Y-15718628D01*
X16023285Y-15690057D01*
X15937571Y-15690057D01*
X15823285Y-15718628D01*
X15766142Y-15747200D01*
X15709000Y-15804342D01*
X15680428Y-15890057D01*
X15680428Y-15947200D01*
X15709000Y-16032914D01*
X15737571Y-16061485D01*
X16280428Y-16632914D02*
X16280428Y-16290057D01*
X16280428Y-16461485D02*
X15680428Y-16461485D01*
X15766142Y-16404342D01*
X15823285Y-16347200D01*
X15851857Y-16290057D01*
X15680428Y-16832914D02*
X15680428Y-17204342D01*
X15909000Y-17004342D01*
X15909000Y-17090057D01*
X15937571Y-17147200D01*
X15966142Y-17175771D01*
X16023285Y-17204342D01*
X16166142Y-17204342D01*
X16223285Y-17175771D01*
X16251857Y-17147200D01*
X16280428Y-17090057D01*
X16280428Y-16918628D01*
X16251857Y-16861485D01*
X16223285Y-16832914D01*
X47869428Y-1912857D02*
X47869428Y-2255714D01*
X48469428Y-2084285D02*
X47869428Y-2084285D01*
X48469428Y-2455714D02*
X47869428Y-2455714D01*
X47869428Y-2684285D01*
X47898000Y-2741428D01*
X47926571Y-2770000D01*
X47983714Y-2798571D01*
X48069428Y-2798571D01*
X48126571Y-2770000D01*
X48155142Y-2741428D01*
X48183714Y-2684285D01*
X48183714Y-2455714D01*
X47926571Y-3027142D02*
X47898000Y-3055714D01*
X47869428Y-3112857D01*
X47869428Y-3255714D01*
X47898000Y-3312857D01*
X47926571Y-3341428D01*
X47983714Y-3370000D01*
X48040857Y-3370000D01*
X48126571Y-3341428D01*
X48469428Y-2998571D01*
X48469428Y-3370000D01*
X55040200Y-15733685D02*
X55068771Y-15762257D01*
X55154485Y-15790828D01*
X55211628Y-15790828D01*
X55297342Y-15762257D01*
X55354485Y-15705114D01*
X55383057Y-15647971D01*
X55411628Y-15533685D01*
X55411628Y-15447971D01*
X55383057Y-15333685D01*
X55354485Y-15276542D01*
X55297342Y-15219400D01*
X55211628Y-15190828D01*
X55154485Y-15190828D01*
X55068771Y-15219400D01*
X55040200Y-15247971D01*
X54525914Y-15390828D02*
X54525914Y-15790828D01*
X54668771Y-15162257D02*
X54811628Y-15590828D01*
X54440200Y-15590828D01*
X43845114Y-7078628D02*
X44045114Y-6792914D01*
X44187971Y-7078628D02*
X44187971Y-6478628D01*
X43959400Y-6478628D01*
X43902257Y-6507200D01*
X43873685Y-6535771D01*
X43845114Y-6592914D01*
X43845114Y-6678628D01*
X43873685Y-6735771D01*
X43902257Y-6764342D01*
X43959400Y-6792914D01*
X44187971Y-6792914D01*
X43273685Y-7078628D02*
X43616542Y-7078628D01*
X43445114Y-7078628D02*
X43445114Y-6478628D01*
X43502257Y-6564342D01*
X43559400Y-6621485D01*
X43616542Y-6650057D01*
X43045114Y-6535771D02*
X43016542Y-6507200D01*
X42959400Y-6478628D01*
X42816542Y-6478628D01*
X42759400Y-6507200D01*
X42730828Y-6535771D01*
X42702257Y-6592914D01*
X42702257Y-6650057D01*
X42730828Y-6735771D01*
X43073685Y-7078628D01*
X42702257Y-7078628D01*
X54051142Y-23729428D02*
X54051142Y-24215142D01*
X54022571Y-24272285D01*
X53994000Y-24300857D01*
X53936857Y-24329428D01*
X53822571Y-24329428D01*
X53765428Y-24300857D01*
X53736857Y-24272285D01*
X53708285Y-24215142D01*
X53708285Y-23729428D01*
X53479714Y-23729428D02*
X53108285Y-23729428D01*
X53308285Y-23958000D01*
X53222571Y-23958000D01*
X53165428Y-23986571D01*
X53136857Y-24015142D01*
X53108285Y-24072285D01*
X53108285Y-24215142D01*
X53136857Y-24272285D01*
X53165428Y-24300857D01*
X53222571Y-24329428D01*
X53394000Y-24329428D01*
X53451142Y-24300857D01*
X53479714Y-24272285D01*
X45451685Y-22201200D02*
X45480257Y-22172628D01*
X45508828Y-22086914D01*
X45508828Y-22029771D01*
X45480257Y-21944057D01*
X45423114Y-21886914D01*
X45365971Y-21858342D01*
X45251685Y-21829771D01*
X45165971Y-21829771D01*
X45051685Y-21858342D01*
X44994542Y-21886914D01*
X44937400Y-21944057D01*
X44908828Y-22029771D01*
X44908828Y-22086914D01*
X44937400Y-22172628D01*
X44965971Y-22201200D01*
X44908828Y-22715485D02*
X44908828Y-22601200D01*
X44937400Y-22544057D01*
X44965971Y-22515485D01*
X45051685Y-22458342D01*
X45165971Y-22429771D01*
X45394542Y-22429771D01*
X45451685Y-22458342D01*
X45480257Y-22486914D01*
X45508828Y-22544057D01*
X45508828Y-22658342D01*
X45480257Y-22715485D01*
X45451685Y-22744057D01*
X45394542Y-22772628D01*
X45251685Y-22772628D01*
X45194542Y-22744057D01*
X45165971Y-22715485D01*
X45137400Y-22658342D01*
X45137400Y-22544057D01*
X45165971Y-22486914D01*
X45194542Y-22458342D01*
X45251685Y-22429771D01*
X52779600Y-11244228D02*
X52979600Y-10958514D01*
X53122457Y-11244228D02*
X53122457Y-10644228D01*
X52893885Y-10644228D01*
X52836742Y-10672800D01*
X52808171Y-10701371D01*
X52779600Y-10758514D01*
X52779600Y-10844228D01*
X52808171Y-10901371D01*
X52836742Y-10929942D01*
X52893885Y-10958514D01*
X53122457Y-10958514D01*
X52579600Y-10644228D02*
X52179600Y-10644228D01*
X52436742Y-11244228D01*
X22026514Y-20966085D02*
X22055085Y-20994657D01*
X22140800Y-21023228D01*
X22197942Y-21023228D01*
X22283657Y-20994657D01*
X22340800Y-20937514D01*
X22369371Y-20880371D01*
X22397942Y-20766085D01*
X22397942Y-20680371D01*
X22369371Y-20566085D01*
X22340800Y-20508942D01*
X22283657Y-20451800D01*
X22197942Y-20423228D01*
X22140800Y-20423228D01*
X22055085Y-20451800D01*
X22026514Y-20480371D01*
X21455085Y-21023228D02*
X21797942Y-21023228D01*
X21626514Y-21023228D02*
X21626514Y-20423228D01*
X21683657Y-20508942D01*
X21740800Y-20566085D01*
X21797942Y-20594657D01*
X21226514Y-20480371D02*
X21197942Y-20451800D01*
X21140800Y-20423228D01*
X20997942Y-20423228D01*
X20940800Y-20451800D01*
X20912228Y-20480371D01*
X20883657Y-20537514D01*
X20883657Y-20594657D01*
X20912228Y-20680371D01*
X21255085Y-21023228D01*
X20883657Y-21023228D01*
X43921314Y-1592228D02*
X44121314Y-1306514D01*
X44264171Y-1592228D02*
X44264171Y-992228D01*
X44035600Y-992228D01*
X43978457Y-1020800D01*
X43949885Y-1049371D01*
X43921314Y-1106514D01*
X43921314Y-1192228D01*
X43949885Y-1249371D01*
X43978457Y-1277942D01*
X44035600Y-1306514D01*
X44264171Y-1306514D01*
X43349885Y-1592228D02*
X43692742Y-1592228D01*
X43521314Y-1592228D02*
X43521314Y-992228D01*
X43578457Y-1077942D01*
X43635600Y-1135085D01*
X43692742Y-1163657D01*
X42778457Y-1592228D02*
X43121314Y-1592228D01*
X42949885Y-1592228D02*
X42949885Y-992228D01*
X43007028Y-1077942D01*
X43064171Y-1135085D01*
X43121314Y-1163657D01*
X20585085Y-8478885D02*
X20613657Y-8450314D01*
X20642228Y-8364600D01*
X20642228Y-8307457D01*
X20613657Y-8221742D01*
X20556514Y-8164600D01*
X20499371Y-8136028D01*
X20385085Y-8107457D01*
X20299371Y-8107457D01*
X20185085Y-8136028D01*
X20127942Y-8164600D01*
X20070800Y-8221742D01*
X20042228Y-8307457D01*
X20042228Y-8364600D01*
X20070800Y-8450314D01*
X20099371Y-8478885D01*
X20642228Y-9050314D02*
X20642228Y-8707457D01*
X20642228Y-8878885D02*
X20042228Y-8878885D01*
X20127942Y-8821742D01*
X20185085Y-8764600D01*
X20213657Y-8707457D01*
X20242228Y-9564600D02*
X20642228Y-9564600D01*
X20013657Y-9421742D02*
X20442228Y-9278885D01*
X20442228Y-9650314D01*
X24420485Y-17064085D02*
X24449057Y-17035514D01*
X24477628Y-16949800D01*
X24477628Y-16892657D01*
X24449057Y-16806942D01*
X24391914Y-16749800D01*
X24334771Y-16721228D01*
X24220485Y-16692657D01*
X24134771Y-16692657D01*
X24020485Y-16721228D01*
X23963342Y-16749800D01*
X23906200Y-16806942D01*
X23877628Y-16892657D01*
X23877628Y-16949800D01*
X23906200Y-17035514D01*
X23934771Y-17064085D01*
X24477628Y-17635514D02*
X24477628Y-17292657D01*
X24477628Y-17464085D02*
X23877628Y-17464085D01*
X23963342Y-17406942D01*
X24020485Y-17349800D01*
X24049057Y-17292657D01*
X24477628Y-18206942D02*
X24477628Y-17864085D01*
X24477628Y-18035514D02*
X23877628Y-18035514D01*
X23963342Y-17978371D01*
X24020485Y-17921228D01*
X24049057Y-17864085D01*
X29254714Y-12503485D02*
X29283285Y-12532057D01*
X29369000Y-12560628D01*
X29426142Y-12560628D01*
X29511857Y-12532057D01*
X29569000Y-12474914D01*
X29597571Y-12417771D01*
X29626142Y-12303485D01*
X29626142Y-12217771D01*
X29597571Y-12103485D01*
X29569000Y-12046342D01*
X29511857Y-11989200D01*
X29426142Y-11960628D01*
X29369000Y-11960628D01*
X29283285Y-11989200D01*
X29254714Y-12017771D01*
X28683285Y-12560628D02*
X29026142Y-12560628D01*
X28854714Y-12560628D02*
X28854714Y-11960628D01*
X28911857Y-12046342D01*
X28969000Y-12103485D01*
X29026142Y-12132057D01*
X28311857Y-11960628D02*
X28254714Y-11960628D01*
X28197571Y-11989200D01*
X28169000Y-12017771D01*
X28140428Y-12074914D01*
X28111857Y-12189200D01*
X28111857Y-12332057D01*
X28140428Y-12446342D01*
X28169000Y-12503485D01*
X28197571Y-12532057D01*
X28254714Y-12560628D01*
X28311857Y-12560628D01*
X28369000Y-12532057D01*
X28397571Y-12503485D01*
X28426142Y-12446342D01*
X28454714Y-12332057D01*
X28454714Y-12189200D01*
X28426142Y-12074914D01*
X28397571Y-12017771D01*
X28369000Y-11989200D01*
X28311857Y-11960628D01*
X42733885Y-16835485D02*
X42762457Y-16806914D01*
X42791028Y-16721200D01*
X42791028Y-16664057D01*
X42762457Y-16578342D01*
X42705314Y-16521200D01*
X42648171Y-16492628D01*
X42533885Y-16464057D01*
X42448171Y-16464057D01*
X42333885Y-16492628D01*
X42276742Y-16521200D01*
X42219600Y-16578342D01*
X42191028Y-16664057D01*
X42191028Y-16721200D01*
X42219600Y-16806914D01*
X42248171Y-16835485D01*
X42791028Y-17406914D02*
X42791028Y-17064057D01*
X42791028Y-17235485D02*
X42191028Y-17235485D01*
X42276742Y-17178342D01*
X42333885Y-17121200D01*
X42362457Y-17064057D01*
X42191028Y-17921200D02*
X42191028Y-17806914D01*
X42219600Y-17749771D01*
X42248171Y-17721200D01*
X42333885Y-17664057D01*
X42448171Y-17635485D01*
X42676742Y-17635485D01*
X42733885Y-17664057D01*
X42762457Y-17692628D01*
X42791028Y-17749771D01*
X42791028Y-17864057D01*
X42762457Y-17921200D01*
X42733885Y-17949771D01*
X42676742Y-17978342D01*
X42533885Y-17978342D01*
X42476742Y-17949771D01*
X42448171Y-17921200D01*
X42419600Y-17864057D01*
X42419600Y-17749771D01*
X42448171Y-17692628D01*
X42476742Y-17664057D01*
X42533885Y-17635485D01*
X25969885Y-16937085D02*
X25998457Y-16908514D01*
X26027028Y-16822800D01*
X26027028Y-16765657D01*
X25998457Y-16679942D01*
X25941314Y-16622800D01*
X25884171Y-16594228D01*
X25769885Y-16565657D01*
X25684171Y-16565657D01*
X25569885Y-16594228D01*
X25512742Y-16622800D01*
X25455600Y-16679942D01*
X25427028Y-16765657D01*
X25427028Y-16822800D01*
X25455600Y-16908514D01*
X25484171Y-16937085D01*
X26027028Y-17508514D02*
X26027028Y-17165657D01*
X26027028Y-17337085D02*
X25427028Y-17337085D01*
X25512742Y-17279942D01*
X25569885Y-17222800D01*
X25598457Y-17165657D01*
X25427028Y-18051371D02*
X25427028Y-17765657D01*
X25712742Y-17737085D01*
X25684171Y-17765657D01*
X25655600Y-17822800D01*
X25655600Y-17965657D01*
X25684171Y-18022800D01*
X25712742Y-18051371D01*
X25769885Y-18079942D01*
X25912742Y-18079942D01*
X25969885Y-18051371D01*
X25998457Y-18022800D01*
X26027028Y-17965657D01*
X26027028Y-17822800D01*
X25998457Y-17765657D01*
X25969885Y-17737085D01*
X23531485Y-9831400D02*
X23560057Y-9802828D01*
X23588628Y-9717114D01*
X23588628Y-9659971D01*
X23560057Y-9574257D01*
X23502914Y-9517114D01*
X23445771Y-9488542D01*
X23331485Y-9459971D01*
X23245771Y-9459971D01*
X23131485Y-9488542D01*
X23074342Y-9517114D01*
X23017200Y-9574257D01*
X22988628Y-9659971D01*
X22988628Y-9717114D01*
X23017200Y-9802828D01*
X23045771Y-9831400D01*
X23245771Y-10174257D02*
X23217200Y-10117114D01*
X23188628Y-10088542D01*
X23131485Y-10059971D01*
X23102914Y-10059971D01*
X23045771Y-10088542D01*
X23017200Y-10117114D01*
X22988628Y-10174257D01*
X22988628Y-10288542D01*
X23017200Y-10345685D01*
X23045771Y-10374257D01*
X23102914Y-10402828D01*
X23131485Y-10402828D01*
X23188628Y-10374257D01*
X23217200Y-10345685D01*
X23245771Y-10288542D01*
X23245771Y-10174257D01*
X23274342Y-10117114D01*
X23302914Y-10088542D01*
X23360057Y-10059971D01*
X23474342Y-10059971D01*
X23531485Y-10088542D01*
X23560057Y-10117114D01*
X23588628Y-10174257D01*
X23588628Y-10288542D01*
X23560057Y-10345685D01*
X23531485Y-10374257D01*
X23474342Y-10402828D01*
X23360057Y-10402828D01*
X23302914Y-10374257D01*
X23274342Y-10345685D01*
X23245771Y-10288542D01*
X22439285Y-9856800D02*
X22467857Y-9828228D01*
X22496428Y-9742514D01*
X22496428Y-9685371D01*
X22467857Y-9599657D01*
X22410714Y-9542514D01*
X22353571Y-9513942D01*
X22239285Y-9485371D01*
X22153571Y-9485371D01*
X22039285Y-9513942D01*
X21982142Y-9542514D01*
X21925000Y-9599657D01*
X21896428Y-9685371D01*
X21896428Y-9742514D01*
X21925000Y-9828228D01*
X21953571Y-9856800D01*
X22496428Y-10142514D02*
X22496428Y-10256800D01*
X22467857Y-10313942D01*
X22439285Y-10342514D01*
X22353571Y-10399657D01*
X22239285Y-10428228D01*
X22010714Y-10428228D01*
X21953571Y-10399657D01*
X21925000Y-10371085D01*
X21896428Y-10313942D01*
X21896428Y-10199657D01*
X21925000Y-10142514D01*
X21953571Y-10113942D01*
X22010714Y-10085371D01*
X22153571Y-10085371D01*
X22210714Y-10113942D01*
X22239285Y-10142514D01*
X22267857Y-10199657D01*
X22267857Y-10313942D01*
X22239285Y-10371085D01*
X22210714Y-10399657D01*
X22153571Y-10428228D01*
X43946714Y-830228D02*
X44146714Y-544514D01*
X44289571Y-830228D02*
X44289571Y-230228D01*
X44061000Y-230228D01*
X44003857Y-258800D01*
X43975285Y-287371D01*
X43946714Y-344514D01*
X43946714Y-430228D01*
X43975285Y-487371D01*
X44003857Y-515942D01*
X44061000Y-544514D01*
X44289571Y-544514D01*
X43375285Y-830228D02*
X43718142Y-830228D01*
X43546714Y-830228D02*
X43546714Y-230228D01*
X43603857Y-315942D01*
X43661000Y-373085D01*
X43718142Y-401657D01*
X43175285Y-230228D02*
X42803857Y-230228D01*
X43003857Y-458800D01*
X42918142Y-458800D01*
X42861000Y-487371D01*
X42832428Y-515942D01*
X42803857Y-573085D01*
X42803857Y-715942D01*
X42832428Y-773085D01*
X42861000Y-801657D01*
X42918142Y-830228D01*
X43089571Y-830228D01*
X43146714Y-801657D01*
X43175285Y-773085D01*
X55527314Y-3643285D02*
X55555885Y-3671857D01*
X55641600Y-3700428D01*
X55698742Y-3700428D01*
X55784457Y-3671857D01*
X55841600Y-3614714D01*
X55870171Y-3557571D01*
X55898742Y-3443285D01*
X55898742Y-3357571D01*
X55870171Y-3243285D01*
X55841600Y-3186142D01*
X55784457Y-3129000D01*
X55698742Y-3100428D01*
X55641600Y-3100428D01*
X55555885Y-3129000D01*
X55527314Y-3157571D01*
X55298742Y-3157571D02*
X55270171Y-3129000D01*
X55213028Y-3100428D01*
X55070171Y-3100428D01*
X55013028Y-3129000D01*
X54984457Y-3157571D01*
X54955885Y-3214714D01*
X54955885Y-3271857D01*
X54984457Y-3357571D01*
X55327314Y-3700428D01*
X54955885Y-3700428D01*
X54670171Y-3700428D02*
X54555885Y-3700428D01*
X54498742Y-3671857D01*
X54470171Y-3643285D01*
X54413028Y-3557571D01*
X54384457Y-3443285D01*
X54384457Y-3214714D01*
X54413028Y-3157571D01*
X54441600Y-3129000D01*
X54498742Y-3100428D01*
X54613028Y-3100428D01*
X54670171Y-3129000D01*
X54698742Y-3157571D01*
X54727314Y-3214714D01*
X54727314Y-3357571D01*
X54698742Y-3414714D01*
X54670171Y-3443285D01*
X54613028Y-3471857D01*
X54498742Y-3471857D01*
X54441600Y-3443285D01*
X54413028Y-3414714D01*
X54384457Y-3357571D01*
X47799428Y-4032857D02*
X47799428Y-4375714D01*
X48399428Y-4204285D02*
X47799428Y-4204285D01*
X48399428Y-4575714D02*
X47799428Y-4575714D01*
X47799428Y-4804285D01*
X47828000Y-4861428D01*
X47856571Y-4890000D01*
X47913714Y-4918571D01*
X47999428Y-4918571D01*
X48056571Y-4890000D01*
X48085142Y-4861428D01*
X48113714Y-4804285D01*
X48113714Y-4575714D01*
X48399428Y-5490000D02*
X48399428Y-5147142D01*
X48399428Y-5318571D02*
X47799428Y-5318571D01*
X47885142Y-5261428D01*
X47942285Y-5204285D01*
X47970857Y-5147142D01*
D12*
X46940580Y-8210000D02*
X46659420Y-8210000D01*
X46940580Y-7190000D02*
X46659420Y-7190000D01*
X51249700Y-26438398D02*
X50319700Y-26438398D01*
X48089700Y-26438398D02*
X48089700Y-27898398D01*
X51249700Y-26438398D02*
X51249700Y-29598398D01*
X48089700Y-26438398D02*
X49019700Y-26438398D01*
X61280900Y-11736200D02*
X64440900Y-11736200D01*
X61280900Y-14896200D02*
X61280900Y-13966200D01*
X61280900Y-11736200D02*
X61280900Y-12666200D01*
X61280900Y-14896200D02*
X62740900Y-14896200D01*
X51622800Y-26435598D02*
X51622800Y-27895598D01*
X51622800Y-26435598D02*
X52552800Y-26435598D01*
X54782800Y-26435598D02*
X53852800Y-26435598D01*
X54782800Y-26435598D02*
X54782800Y-29595598D01*
X61279500Y-18388700D02*
X62739500Y-18388700D01*
X61279500Y-15228700D02*
X64439500Y-15228700D01*
X61279500Y-18388700D02*
X61279500Y-17458700D01*
X61279500Y-15228700D02*
X61279500Y-16158700D01*
X51548420Y-14861000D02*
X51829580Y-14861000D01*
X51548420Y-13841000D02*
X51829580Y-13841000D01*
X46011000Y-20116748D02*
X46011000Y-21539252D01*
X48731000Y-20116748D02*
X48731000Y-21539252D01*
X17949000Y-16306620D02*
X17949000Y-16587780D01*
X16929000Y-16306620D02*
X16929000Y-16587780D01*
X47450000Y-2670000D02*
G75*
G03*
X47450000Y-2670000I-700000J0D01*
G01*
X55004580Y-14861000D02*
X54723420Y-14861000D01*
X55004580Y-13841000D02*
X54723420Y-13841000D01*
X43847542Y-5017500D02*
X44322058Y-5017500D01*
X43847542Y-6062500D02*
X44322058Y-6062500D01*
X51744000Y-16148000D02*
X55504000Y-16148000D01*
X55504000Y-16148000D02*
X55504000Y-17408000D01*
X49494000Y-22968000D02*
X55504000Y-22968000D01*
X55504000Y-22968000D02*
X55504000Y-21708000D01*
X44852000Y-20593164D02*
X44852000Y-20808836D01*
X45572000Y-20593164D02*
X45572000Y-20808836D01*
X52751258Y-9129500D02*
X52276742Y-9129500D01*
X52751258Y-10174500D02*
X52276742Y-10174500D01*
X19063420Y-20255200D02*
X19344580Y-20255200D01*
X19063420Y-21275200D02*
X19344580Y-21275200D01*
X44317258Y-3472500D02*
X43842742Y-3472500D01*
X44317258Y-4517500D02*
X43842742Y-4517500D01*
X20870000Y-12128620D02*
X20870000Y-12409780D01*
X19850000Y-12128620D02*
X19850000Y-12409780D01*
X24680000Y-19735620D02*
X24680000Y-20016780D01*
X23660000Y-19735620D02*
X23660000Y-20016780D01*
X28728420Y-10349200D02*
X29009580Y-10349200D01*
X28728420Y-11369200D02*
X29009580Y-11369200D01*
X40739600Y-17106020D02*
X40739600Y-17387180D01*
X41759600Y-17106020D02*
X41759600Y-17387180D01*
X25184000Y-20016780D02*
X25184000Y-19735620D01*
X26204000Y-20016780D02*
X26204000Y-19735620D01*
X23918000Y-12409780D02*
X23918000Y-12128620D01*
X22898000Y-12409780D02*
X22898000Y-12128620D01*
X21374000Y-12409780D02*
X21374000Y-12128620D01*
X22394000Y-12409780D02*
X22394000Y-12128620D01*
X43847542Y-3002500D02*
X44322058Y-3002500D01*
X43847542Y-1957500D02*
X44322058Y-1957500D01*
X54482948Y-5863000D02*
X55905452Y-5863000D01*
X54482948Y-4043000D02*
X55905452Y-4043000D01*
X47380000Y-4790000D02*
G75*
G03*
X47380000Y-4790000I-700000J0D01*
G01*
M02*
