%TF.GenerationSoftware,KiCad,Pcbnew,(6.0.7)*%
%TF.CreationDate,2022-10-20T14:14:51-04:00*%
%TF.ProjectId,ECE477_PCB,45434534-3737-45f5-9043-422e6b696361,rev?*%
%TF.SameCoordinates,PX2daf690PY1aab7d8*%
%TF.FileFunction,Drillmap*%
%TF.FilePolarity,Positive*%
%FSLAX45Y45*%
G04 Gerber Fmt 4.5, Leading zero omitted, Abs format (unit mm)*
G04 Created by KiCad (PCBNEW (6.0.7)) date 2022-10-20 14:14:51*
%MOMM*%
%LPD*%
G01*
G04 APERTURE LIST*
%ADD10C,0.100000*%
%ADD11C,0.200000*%
%ADD12C,0.320000*%
G04 APERTURE END LIST*
D10*
X3956500Y-2319020D02*
G75*
G03*
X3956500Y-2319020I-57600J0D01*
G01*
X0Y-350000D02*
X0Y-2650000D01*
X350000Y-3000000D02*
X6150000Y-3000000D01*
X6150000Y0D02*
X350000Y0D01*
X350000Y0D02*
G75*
G03*
X0Y-350000I0J-350000D01*
G01*
X6500000Y-350000D02*
G75*
G03*
X6150000Y0I-350000J0D01*
G01*
X6500000Y-2650000D02*
X6500000Y-350000D01*
X6150000Y-3000000D02*
G75*
G03*
X6500000Y-2650000I0J350000D01*
G01*
X0Y-2650000D02*
G75*
G03*
X350000Y-3000000I350000J0D01*
G01*
D11*
D12*
X190000Y-190000D02*
X510000Y-510000D01*
X510000Y-190000D02*
X190000Y-510000D01*
X190000Y-2490000D02*
X510000Y-2810000D01*
X510000Y-2490000D02*
X190000Y-2810000D01*
X5990000Y-190000D02*
X6310000Y-510000D01*
X6310000Y-190000D02*
X5990000Y-510000D01*
X5990000Y-2490000D02*
X6310000Y-2810000D01*
X6310000Y-2490000D02*
X5990000Y-2810000D01*
D11*
X252619Y-3315476D02*
X252619Y-3115476D01*
X300238Y-3115476D01*
X328810Y-3125000D01*
X347857Y-3144048D01*
X357381Y-3163095D01*
X366905Y-3201190D01*
X366905Y-3229762D01*
X357381Y-3267857D01*
X347857Y-3286905D01*
X328810Y-3305952D01*
X300238Y-3315476D01*
X252619Y-3315476D01*
X452619Y-3315476D02*
X452619Y-3182143D01*
X452619Y-3220238D02*
X462143Y-3201190D01*
X471667Y-3191667D01*
X490714Y-3182143D01*
X509762Y-3182143D01*
X576429Y-3315476D02*
X576429Y-3182143D01*
X576429Y-3115476D02*
X566905Y-3125000D01*
X576429Y-3134524D01*
X585952Y-3125000D01*
X576429Y-3115476D01*
X576429Y-3134524D01*
X700238Y-3315476D02*
X681190Y-3305952D01*
X671667Y-3286905D01*
X671667Y-3115476D01*
X805000Y-3315476D02*
X785952Y-3305952D01*
X776428Y-3286905D01*
X776428Y-3115476D01*
X1033571Y-3315476D02*
X1033571Y-3115476D01*
X1100238Y-3258333D01*
X1166905Y-3115476D01*
X1166905Y-3315476D01*
X1347857Y-3315476D02*
X1347857Y-3210714D01*
X1338333Y-3191667D01*
X1319286Y-3182143D01*
X1281190Y-3182143D01*
X1262143Y-3191667D01*
X1347857Y-3305952D02*
X1328810Y-3315476D01*
X1281190Y-3315476D01*
X1262143Y-3305952D01*
X1252619Y-3286905D01*
X1252619Y-3267857D01*
X1262143Y-3248809D01*
X1281190Y-3239286D01*
X1328810Y-3239286D01*
X1347857Y-3229762D01*
X1443095Y-3182143D02*
X1443095Y-3382143D01*
X1443095Y-3191667D02*
X1462143Y-3182143D01*
X1500238Y-3182143D01*
X1519286Y-3191667D01*
X1528809Y-3201190D01*
X1538333Y-3220238D01*
X1538333Y-3277381D01*
X1528809Y-3296428D01*
X1519286Y-3305952D01*
X1500238Y-3315476D01*
X1462143Y-3315476D01*
X1443095Y-3305952D01*
X1624048Y-3296428D02*
X1633571Y-3305952D01*
X1624048Y-3315476D01*
X1614524Y-3305952D01*
X1624048Y-3296428D01*
X1624048Y-3315476D01*
X1624048Y-3191667D02*
X1633571Y-3201190D01*
X1624048Y-3210714D01*
X1614524Y-3201190D01*
X1624048Y-3191667D01*
X1624048Y-3210714D01*
X-205000Y-3545000D02*
X-5000Y-3745000D01*
X-5000Y-3545000D02*
X-205000Y-3745000D01*
X233571Y-3535476D02*
X357381Y-3535476D01*
X290714Y-3611667D01*
X319286Y-3611667D01*
X338333Y-3621190D01*
X347857Y-3630714D01*
X357381Y-3649762D01*
X357381Y-3697381D01*
X347857Y-3716428D01*
X338333Y-3725952D01*
X319286Y-3735476D01*
X262143Y-3735476D01*
X243095Y-3725952D01*
X233571Y-3716428D01*
X443095Y-3716428D02*
X452619Y-3725952D01*
X443095Y-3735476D01*
X433571Y-3725952D01*
X443095Y-3716428D01*
X443095Y-3735476D01*
X528810Y-3554524D02*
X538333Y-3545000D01*
X557381Y-3535476D01*
X605000Y-3535476D01*
X624048Y-3545000D01*
X633571Y-3554524D01*
X643095Y-3573571D01*
X643095Y-3592619D01*
X633571Y-3621190D01*
X519286Y-3735476D01*
X643095Y-3735476D01*
X766905Y-3535476D02*
X785952Y-3535476D01*
X805000Y-3545000D01*
X814524Y-3554524D01*
X824048Y-3573571D01*
X833571Y-3611667D01*
X833571Y-3659286D01*
X824048Y-3697381D01*
X814524Y-3716428D01*
X805000Y-3725952D01*
X785952Y-3735476D01*
X766905Y-3735476D01*
X747857Y-3725952D01*
X738333Y-3716428D01*
X728809Y-3697381D01*
X719286Y-3659286D01*
X719286Y-3611667D01*
X728809Y-3573571D01*
X738333Y-3554524D01*
X747857Y-3545000D01*
X766905Y-3535476D01*
X957381Y-3535476D02*
X976428Y-3535476D01*
X995476Y-3545000D01*
X1005000Y-3554524D01*
X1014524Y-3573571D01*
X1024048Y-3611667D01*
X1024048Y-3659286D01*
X1014524Y-3697381D01*
X1005000Y-3716428D01*
X995476Y-3725952D01*
X976428Y-3735476D01*
X957381Y-3735476D01*
X938333Y-3725952D01*
X928809Y-3716428D01*
X919286Y-3697381D01*
X909762Y-3659286D01*
X909762Y-3611667D01*
X919286Y-3573571D01*
X928809Y-3554524D01*
X938333Y-3545000D01*
X957381Y-3535476D01*
X1109762Y-3735476D02*
X1109762Y-3602143D01*
X1109762Y-3621190D02*
X1119286Y-3611667D01*
X1138333Y-3602143D01*
X1166905Y-3602143D01*
X1185952Y-3611667D01*
X1195476Y-3630714D01*
X1195476Y-3735476D01*
X1195476Y-3630714D02*
X1205000Y-3611667D01*
X1224048Y-3602143D01*
X1252619Y-3602143D01*
X1271667Y-3611667D01*
X1281190Y-3630714D01*
X1281190Y-3735476D01*
X1376429Y-3735476D02*
X1376429Y-3602143D01*
X1376429Y-3621190D02*
X1385952Y-3611667D01*
X1405000Y-3602143D01*
X1433571Y-3602143D01*
X1452619Y-3611667D01*
X1462143Y-3630714D01*
X1462143Y-3735476D01*
X1462143Y-3630714D02*
X1471667Y-3611667D01*
X1490714Y-3602143D01*
X1519286Y-3602143D01*
X1538333Y-3611667D01*
X1547857Y-3630714D01*
X1547857Y-3735476D01*
X1938333Y-3525952D02*
X1766905Y-3783095D01*
X2195476Y-3535476D02*
X2214524Y-3535476D01*
X2233571Y-3545000D01*
X2243095Y-3554524D01*
X2252619Y-3573571D01*
X2262143Y-3611667D01*
X2262143Y-3659286D01*
X2252619Y-3697381D01*
X2243095Y-3716428D01*
X2233571Y-3725952D01*
X2214524Y-3735476D01*
X2195476Y-3735476D01*
X2176429Y-3725952D01*
X2166905Y-3716428D01*
X2157381Y-3697381D01*
X2147857Y-3659286D01*
X2147857Y-3611667D01*
X2157381Y-3573571D01*
X2166905Y-3554524D01*
X2176429Y-3545000D01*
X2195476Y-3535476D01*
X2347857Y-3716428D02*
X2357381Y-3725952D01*
X2347857Y-3735476D01*
X2338333Y-3725952D01*
X2347857Y-3716428D01*
X2347857Y-3735476D01*
X2547857Y-3735476D02*
X2433571Y-3735476D01*
X2490714Y-3735476D02*
X2490714Y-3535476D01*
X2471667Y-3564048D01*
X2452619Y-3583095D01*
X2433571Y-3592619D01*
X2624048Y-3554524D02*
X2633571Y-3545000D01*
X2652619Y-3535476D01*
X2700238Y-3535476D01*
X2719286Y-3545000D01*
X2728810Y-3554524D01*
X2738333Y-3573571D01*
X2738333Y-3592619D01*
X2728810Y-3621190D01*
X2614524Y-3735476D01*
X2738333Y-3735476D01*
X2909762Y-3535476D02*
X2871667Y-3535476D01*
X2852619Y-3545000D01*
X2843095Y-3554524D01*
X2824048Y-3583095D01*
X2814524Y-3621190D01*
X2814524Y-3697381D01*
X2824048Y-3716428D01*
X2833571Y-3725952D01*
X2852619Y-3735476D01*
X2890714Y-3735476D01*
X2909762Y-3725952D01*
X2919286Y-3716428D01*
X2928809Y-3697381D01*
X2928809Y-3649762D01*
X2919286Y-3630714D01*
X2909762Y-3621190D01*
X2890714Y-3611667D01*
X2852619Y-3611667D01*
X2833571Y-3621190D01*
X2824048Y-3630714D01*
X2814524Y-3649762D01*
X3052619Y-3535476D02*
X3071667Y-3535476D01*
X3090714Y-3545000D01*
X3100238Y-3554524D01*
X3109762Y-3573571D01*
X3119286Y-3611667D01*
X3119286Y-3659286D01*
X3109762Y-3697381D01*
X3100238Y-3716428D01*
X3090714Y-3725952D01*
X3071667Y-3735476D01*
X3052619Y-3735476D01*
X3033571Y-3725952D01*
X3024048Y-3716428D01*
X3014524Y-3697381D01*
X3005000Y-3659286D01*
X3005000Y-3611667D01*
X3014524Y-3573571D01*
X3024048Y-3554524D01*
X3033571Y-3545000D01*
X3052619Y-3535476D01*
X3195476Y-3535476D02*
X3195476Y-3573571D01*
X3271667Y-3535476D02*
X3271667Y-3573571D01*
X3566905Y-3811667D02*
X3557381Y-3802143D01*
X3538333Y-3773571D01*
X3528809Y-3754524D01*
X3519286Y-3725952D01*
X3509762Y-3678333D01*
X3509762Y-3640238D01*
X3519286Y-3592619D01*
X3528809Y-3564048D01*
X3538333Y-3545000D01*
X3557381Y-3516428D01*
X3566905Y-3506905D01*
X3728809Y-3602143D02*
X3728809Y-3735476D01*
X3681190Y-3525952D02*
X3633571Y-3668809D01*
X3757381Y-3668809D01*
X3985952Y-3735476D02*
X3985952Y-3535476D01*
X4071667Y-3735476D02*
X4071667Y-3630714D01*
X4062143Y-3611667D01*
X4043095Y-3602143D01*
X4014524Y-3602143D01*
X3995476Y-3611667D01*
X3985952Y-3621190D01*
X4195476Y-3735476D02*
X4176428Y-3725952D01*
X4166905Y-3716428D01*
X4157381Y-3697381D01*
X4157381Y-3640238D01*
X4166905Y-3621190D01*
X4176428Y-3611667D01*
X4195476Y-3602143D01*
X4224048Y-3602143D01*
X4243095Y-3611667D01*
X4252619Y-3621190D01*
X4262143Y-3640238D01*
X4262143Y-3697381D01*
X4252619Y-3716428D01*
X4243095Y-3725952D01*
X4224048Y-3735476D01*
X4195476Y-3735476D01*
X4376429Y-3735476D02*
X4357381Y-3725952D01*
X4347857Y-3706905D01*
X4347857Y-3535476D01*
X4528810Y-3725952D02*
X4509762Y-3735476D01*
X4471667Y-3735476D01*
X4452619Y-3725952D01*
X4443095Y-3706905D01*
X4443095Y-3630714D01*
X4452619Y-3611667D01*
X4471667Y-3602143D01*
X4509762Y-3602143D01*
X4528810Y-3611667D01*
X4538333Y-3630714D01*
X4538333Y-3649762D01*
X4443095Y-3668809D01*
X4614524Y-3725952D02*
X4633571Y-3735476D01*
X4671667Y-3735476D01*
X4690714Y-3725952D01*
X4700238Y-3706905D01*
X4700238Y-3697381D01*
X4690714Y-3678333D01*
X4671667Y-3668809D01*
X4643095Y-3668809D01*
X4624048Y-3659286D01*
X4614524Y-3640238D01*
X4614524Y-3630714D01*
X4624048Y-3611667D01*
X4643095Y-3602143D01*
X4671667Y-3602143D01*
X4690714Y-3611667D01*
X4766905Y-3811667D02*
X4776429Y-3802143D01*
X4795476Y-3773571D01*
X4805000Y-3754524D01*
X4814524Y-3725952D01*
X4824048Y-3678333D01*
X4824048Y-3640238D01*
X4814524Y-3592619D01*
X4805000Y-3564048D01*
X4795476Y-3545000D01*
X4776429Y-3516428D01*
X4766905Y-3506905D01*
X5128810Y-3811667D02*
X5119286Y-3802143D01*
X5100238Y-3773571D01*
X5090714Y-3754524D01*
X5081190Y-3725952D01*
X5071667Y-3678333D01*
X5071667Y-3640238D01*
X5081190Y-3592619D01*
X5090714Y-3564048D01*
X5100238Y-3545000D01*
X5119286Y-3516428D01*
X5128810Y-3506905D01*
X5205000Y-3602143D02*
X5205000Y-3735476D01*
X5205000Y-3621190D02*
X5214524Y-3611667D01*
X5233571Y-3602143D01*
X5262143Y-3602143D01*
X5281190Y-3611667D01*
X5290714Y-3630714D01*
X5290714Y-3735476D01*
X5414524Y-3735476D02*
X5395476Y-3725952D01*
X5385952Y-3716428D01*
X5376429Y-3697381D01*
X5376429Y-3640238D01*
X5385952Y-3621190D01*
X5395476Y-3611667D01*
X5414524Y-3602143D01*
X5443095Y-3602143D01*
X5462143Y-3611667D01*
X5471667Y-3621190D01*
X5481190Y-3640238D01*
X5481190Y-3697381D01*
X5471667Y-3716428D01*
X5462143Y-3725952D01*
X5443095Y-3735476D01*
X5414524Y-3735476D01*
X5538333Y-3602143D02*
X5614524Y-3602143D01*
X5566905Y-3535476D02*
X5566905Y-3706905D01*
X5576429Y-3725952D01*
X5595476Y-3735476D01*
X5614524Y-3735476D01*
X5833571Y-3602143D02*
X5833571Y-3802143D01*
X5833571Y-3611667D02*
X5852619Y-3602143D01*
X5890714Y-3602143D01*
X5909762Y-3611667D01*
X5919286Y-3621190D01*
X5928809Y-3640238D01*
X5928809Y-3697381D01*
X5919286Y-3716428D01*
X5909762Y-3725952D01*
X5890714Y-3735476D01*
X5852619Y-3735476D01*
X5833571Y-3725952D01*
X6043095Y-3735476D02*
X6024048Y-3725952D01*
X6014524Y-3706905D01*
X6014524Y-3535476D01*
X6205000Y-3735476D02*
X6205000Y-3630714D01*
X6195476Y-3611667D01*
X6176428Y-3602143D01*
X6138333Y-3602143D01*
X6119286Y-3611667D01*
X6205000Y-3725952D02*
X6185952Y-3735476D01*
X6138333Y-3735476D01*
X6119286Y-3725952D01*
X6109762Y-3706905D01*
X6109762Y-3687857D01*
X6119286Y-3668809D01*
X6138333Y-3659286D01*
X6185952Y-3659286D01*
X6205000Y-3649762D01*
X6271667Y-3602143D02*
X6347857Y-3602143D01*
X6300238Y-3535476D02*
X6300238Y-3706905D01*
X6309762Y-3725952D01*
X6328809Y-3735476D01*
X6347857Y-3735476D01*
X6490714Y-3725952D02*
X6471667Y-3735476D01*
X6433571Y-3735476D01*
X6414524Y-3725952D01*
X6405000Y-3706905D01*
X6405000Y-3630714D01*
X6414524Y-3611667D01*
X6433571Y-3602143D01*
X6471667Y-3602143D01*
X6490714Y-3611667D01*
X6500238Y-3630714D01*
X6500238Y-3649762D01*
X6405000Y-3668809D01*
X6671667Y-3735476D02*
X6671667Y-3535476D01*
X6671667Y-3725952D02*
X6652619Y-3735476D01*
X6614524Y-3735476D01*
X6595476Y-3725952D01*
X6585952Y-3716428D01*
X6576428Y-3697381D01*
X6576428Y-3640238D01*
X6585952Y-3621190D01*
X6595476Y-3611667D01*
X6614524Y-3602143D01*
X6652619Y-3602143D01*
X6671667Y-3611667D01*
X6747857Y-3811667D02*
X6757381Y-3802143D01*
X6776428Y-3773571D01*
X6785952Y-3754524D01*
X6795476Y-3725952D01*
X6805000Y-3678333D01*
X6805000Y-3640238D01*
X6795476Y-3592619D01*
X6785952Y-3564048D01*
X6776428Y-3545000D01*
X6757381Y-3516428D01*
X6747857Y-3506905D01*
M02*
