G04 #@! TF.GenerationSoftware,KiCad,Pcbnew,(6.0.7)*
G04 #@! TF.CreationDate,2022-10-20T14:31:20-04:00*
G04 #@! TF.ProjectId,ECE477_PCB,45434534-3737-45f5-9043-422e6b696361,rev?*
G04 #@! TF.SameCoordinates,PX2daf690PY1aab7d8*
G04 #@! TF.FileFunction,Soldermask,Bot*
G04 #@! TF.FilePolarity,Negative*
%FSLAX46Y46*%
G04 Gerber Fmt 4.6, Leading zero omitted, Abs format (unit mm)*
G04 Created by KiCad (PCBNEW (6.0.7)) date 2022-10-20 14:31:20*
%MOMM*%
%LPD*%
G01*
G04 APERTURE LIST*
G04 Aperture macros list*
%AMRoundRect*
0 Rectangle with rounded corners*
0 $1 Rounding radius*
0 $2 $3 $4 $5 $6 $7 $8 $9 X,Y pos of 4 corners*
0 Add a 4 corners polygon primitive as box body*
4,1,4,$2,$3,$4,$5,$6,$7,$8,$9,$2,$3,0*
0 Add four circle primitives for the rounded corners*
1,1,$1+$1,$2,$3*
1,1,$1+$1,$4,$5*
1,1,$1+$1,$6,$7*
1,1,$1+$1,$8,$9*
0 Add four rect primitives between the rounded corners*
20,1,$1+$1,$2,$3,$4,$5,0*
20,1,$1+$1,$4,$5,$6,$7,0*
20,1,$1+$1,$6,$7,$8,$9,0*
20,1,$1+$1,$8,$9,$2,$3,0*%
G04 Aperture macros list end*
%ADD10R,1.350000X1.350000*%
%ADD11O,1.350000X1.350000*%
%ADD12R,1.000000X1.000000*%
%ADD13O,1.000000X1.000000*%
%ADD14R,1.700000X1.700000*%
%ADD15O,1.700000X1.700000*%
%ADD16C,1.450000*%
%ADD17O,1.900000X1.200000*%
%ADD18C,3.200000*%
%ADD19R,0.850000X0.850000*%
%ADD20O,0.850000X0.850000*%
%ADD21R,0.800000X1.900000*%
%ADD22R,1.900000X0.800000*%
%ADD23RoundRect,0.225000X-0.225000X-0.250000X0.225000X-0.250000X0.225000X0.250000X-0.225000X0.250000X0*%
%ADD24RoundRect,0.250000X-1.100000X0.325000X-1.100000X-0.325000X1.100000X-0.325000X1.100000X0.325000X0*%
%ADD25RoundRect,0.225000X0.225000X0.250000X-0.225000X0.250000X-0.225000X-0.250000X0.225000X-0.250000X0*%
%ADD26RoundRect,0.225000X-0.250000X0.225000X-0.250000X-0.225000X0.250000X-0.225000X0.250000X0.225000X0*%
%ADD27C,1.000000*%
%ADD28RoundRect,0.200000X-0.200000X-0.275000X0.200000X-0.275000X0.200000X0.275000X-0.200000X0.275000X0*%
%ADD29R,2.000000X1.500000*%
%ADD30R,2.000000X3.800000*%
%ADD31RoundRect,0.140000X-0.170000X0.140000X-0.170000X-0.140000X0.170000X-0.140000X0.170000X0.140000X0*%
%ADD32RoundRect,0.200000X0.200000X0.275000X-0.200000X0.275000X-0.200000X-0.275000X0.200000X-0.275000X0*%
%ADD33RoundRect,0.225000X0.250000X-0.225000X0.250000X0.225000X-0.250000X0.225000X-0.250000X-0.225000X0*%
%ADD34RoundRect,0.250000X-0.325000X-0.650000X0.325000X-0.650000X0.325000X0.650000X-0.325000X0.650000X0*%
%ADD35C,0.800000*%
G04 APERTURE END LIST*
D10*
X45080289Y-28397700D03*
D11*
X47080289Y-28397700D03*
D10*
X58039000Y-28378098D03*
D11*
X56039000Y-28378098D03*
D10*
X63246000Y-19336000D03*
D11*
X63246000Y-21336000D03*
D10*
X63246000Y-8642600D03*
D11*
X63246000Y-10642600D03*
D12*
X38608000Y-20701000D03*
D13*
X38608000Y-19431000D03*
X38608000Y-18161000D03*
X38608000Y-16891000D03*
D14*
X56119000Y-12389000D03*
D15*
X53579000Y-12389000D03*
X51039000Y-12389000D03*
D16*
X4116800Y-17200000D03*
X4116800Y-12200000D03*
D17*
X1416800Y-18200000D03*
X1416800Y-11200000D03*
D18*
X61500000Y-3500000D03*
X61500000Y-26500000D03*
X3500000Y-26500000D03*
X3500000Y-3500000D03*
D14*
X8280400Y-4790000D03*
D15*
X8280400Y-2250000D03*
X10820400Y-4790000D03*
X10820400Y-2250000D03*
X13360400Y-4790000D03*
X13360400Y-2250000D03*
X15900400Y-4790000D03*
X15900400Y-2250000D03*
X18440400Y-4790000D03*
X18440400Y-2250000D03*
D19*
X34608000Y-1022600D03*
D20*
X34608000Y-2022600D03*
X34608000Y-3022600D03*
X34608000Y-4022600D03*
X34608000Y-5022600D03*
D19*
X39205400Y-1022600D03*
D20*
X39205400Y-2022600D03*
X39205400Y-3022600D03*
X39205400Y-4022600D03*
X39205400Y-5022600D03*
D19*
X36919400Y-1022600D03*
D20*
X36919400Y-2022600D03*
X36919400Y-3022600D03*
X36919400Y-4022600D03*
X36919400Y-5022600D03*
D19*
X41491400Y-1022600D03*
D20*
X41491400Y-2022600D03*
X41491400Y-3022600D03*
X41491400Y-4022600D03*
X41491400Y-5022600D03*
D19*
X32296600Y-1022600D03*
D20*
X32296600Y-2022600D03*
X32296600Y-3022600D03*
X32296600Y-4022600D03*
X32296600Y-5022600D03*
D14*
X57785000Y-8382000D03*
D15*
X55245000Y-8382000D03*
D21*
X50619700Y-28698398D03*
X48719700Y-28698398D03*
X49669700Y-25698398D03*
D22*
X63540900Y-12366200D03*
X63540900Y-14266200D03*
X60540900Y-13316200D03*
D21*
X54152800Y-28695598D03*
X52252800Y-28695598D03*
X53202800Y-25695598D03*
D22*
X63539500Y-15858700D03*
X63539500Y-17758700D03*
X60539500Y-16808700D03*
D23*
X50914000Y-14351000D03*
X52464000Y-14351000D03*
D24*
X47371000Y-19353000D03*
X47371000Y-22303000D03*
D25*
X47575000Y-7700000D03*
X46025000Y-7700000D03*
D26*
X17439000Y-15672200D03*
X17439000Y-17222200D03*
D27*
X46750000Y-2670000D03*
D25*
X55639000Y-14351000D03*
X54089000Y-14351000D03*
D28*
X43259800Y-5540000D03*
X44909800Y-5540000D03*
D29*
X50444000Y-21858000D03*
X50444000Y-19558000D03*
X50444000Y-17258000D03*
D30*
X56744000Y-19558000D03*
D31*
X45212000Y-20221000D03*
X45212000Y-21181000D03*
D32*
X53339000Y-9652000D03*
X51689000Y-9652000D03*
D23*
X18429000Y-20765200D03*
X19979000Y-20765200D03*
D32*
X44905000Y-3995000D03*
X43255000Y-3995000D03*
D26*
X20360000Y-11494200D03*
X20360000Y-13044200D03*
X24170000Y-19101200D03*
X24170000Y-20651200D03*
D23*
X28094000Y-10859200D03*
X29644000Y-10859200D03*
D26*
X41249600Y-16471600D03*
X41249600Y-18021600D03*
D33*
X25694000Y-20651200D03*
X25694000Y-19101200D03*
X23408000Y-13044200D03*
X23408000Y-11494200D03*
X21884000Y-13044200D03*
X21884000Y-11494200D03*
D28*
X43259800Y-2480000D03*
X44909800Y-2480000D03*
D34*
X53719200Y-4953000D03*
X56669200Y-4953000D03*
D27*
X46680000Y-4790000D03*
D35*
X47498000Y-3530600D03*
X5304302Y-15340600D03*
X5257800Y-14039600D03*
X50825400Y-29152998D03*
X53771800Y-29152798D03*
X64046100Y-15792700D03*
X64046200Y-12871700D03*
X50917215Y-25777188D03*
X52755800Y-3403600D03*
X26762036Y-25566158D03*
X22008282Y-23098847D03*
X20877252Y-22899675D03*
X29743400Y-27686000D03*
X21285200Y-22098000D03*
X27170999Y-24765000D03*
X17816987Y-25600000D03*
X16713200Y-27635200D03*
X51714400Y-3403600D03*
X51854100Y-25812698D03*
X61489499Y-15864750D03*
X50698400Y-3403600D03*
X61406356Y-14218136D03*
X49733200Y-3429000D03*
X9210800Y-20539200D03*
X25880000Y-11010000D03*
X8610600Y-11023600D03*
X44858200Y-19353000D03*
X26847800Y-18846800D03*
X26543000Y-2946400D03*
X5700000Y-19700000D03*
X21158200Y-12369800D03*
X29895800Y-685800D03*
X18709000Y-17133000D03*
X28196803Y-22093483D03*
X21005800Y-18846800D03*
X9474300Y-11902901D03*
X24540000Y-12930000D03*
X8585200Y-27330400D03*
X28000000Y-25800000D03*
X16640000Y-8320000D03*
X28219400Y-9601200D03*
X26314400Y-17322800D03*
X37744400Y-15163800D03*
X27787600Y-3327400D03*
X10337800Y-17018000D03*
X11430000Y-8458200D03*
X23393400Y-14376400D03*
X52298600Y-27577898D03*
X28854400Y-7112000D03*
X32562800Y-26492200D03*
X18567400Y-18999200D03*
X29800000Y-19184000D03*
X13200000Y-24100000D03*
X36271200Y-15163800D03*
X28784000Y-20200000D03*
X6705600Y-4572000D03*
X30022800Y-8940800D03*
X29464000Y-8102600D03*
X25273000Y-23850600D03*
X27152600Y-22961600D03*
X22910800Y-3251200D03*
X45567600Y-12268200D03*
X6985000Y-20955000D03*
X42697400Y-9245600D03*
X39497000Y-15163800D03*
X50965100Y-27082698D03*
X21884000Y-11494200D03*
X21818600Y-14401800D03*
X14554200Y-18669000D03*
X26339800Y-12827000D03*
X26365200Y-23850600D03*
X25323800Y-27482800D03*
X20802600Y-3251200D03*
X29800000Y-20200000D03*
X13538200Y-19177000D03*
X11909500Y-14258340D03*
X44729400Y-11531600D03*
X62471300Y-14332200D03*
X19862800Y-14935200D03*
X6705600Y-5715000D03*
X6959600Y-22123400D03*
X10109200Y-23241000D03*
X11074400Y-10312400D03*
X10109200Y-24460200D03*
X30657800Y-9956800D03*
X43103800Y-14528800D03*
X6959600Y-24790400D03*
X17780000Y-8585200D03*
X8915400Y-9067800D03*
X28784000Y-19184000D03*
X37820600Y-11099800D03*
X18846800Y-15316200D03*
X33400000Y-23500000D03*
X15671900Y-18745200D03*
X43815000Y-15240000D03*
X20360000Y-11494200D03*
X42443400Y-13868400D03*
X17729200Y-9677400D03*
X6959600Y-26035000D03*
X20726400Y-17399000D03*
X19126200Y-14147800D03*
X10109200Y-22021800D03*
X11379200Y-16840200D03*
X10668000Y-27051000D03*
X21894800Y-3251200D03*
X7035800Y-23368000D03*
X24358600Y-23342600D03*
X11887200Y-13106400D03*
X41325800Y-8001000D03*
X36398200Y-11074400D03*
X39370000Y-11150600D03*
X42062400Y-8636000D03*
X18430000Y-20770000D03*
X31115000Y-11023600D03*
X11709400Y-11912600D03*
X7900000Y-18200000D03*
X5368127Y-13055437D03*
X18709000Y-11480800D03*
X21031200Y-5003800D03*
X19680000Y-6132199D03*
X24700000Y-3500000D03*
X22987000Y-7560000D03*
X21274500Y-10313216D03*
X29087097Y-5420693D03*
X20376563Y-10260175D03*
X29083000Y-4521200D03*
X53695600Y-6299200D03*
X53187600Y-7061200D03*
X49314100Y-16954500D03*
X51296600Y-17258000D03*
X50331400Y-17258000D03*
X52211000Y-17258000D03*
X48514100Y-3429000D03*
X46685200Y-5969000D03*
X21666200Y-26619200D03*
X18355341Y-27514158D03*
X44920000Y-7720000D03*
X31101482Y-18479318D03*
X35179000Y-9398000D03*
X33655000Y-9423400D03*
X31115000Y-16967200D03*
X31724600Y-15163800D03*
X32969200Y-10185400D03*
X30776037Y-14782900D03*
X32308800Y-9423400D03*
X34391600Y-10210800D03*
X31775400Y-17780000D03*
X18567400Y-22809200D03*
X19405953Y-24714553D03*
M02*
