G04 #@! TF.GenerationSoftware,KiCad,Pcbnew,(6.0.7)*
G04 #@! TF.CreationDate,2022-10-20T14:14:45-04:00*
G04 #@! TF.ProjectId,ECE477_PCB,45434534-3737-45f5-9043-422e6b696361,rev?*
G04 #@! TF.SameCoordinates,PX2daf690PY1aab7d8*
G04 #@! TF.FileFunction,Soldermask,Bot*
G04 #@! TF.FilePolarity,Negative*
%FSLAX46Y46*%
G04 Gerber Fmt 4.6, Leading zero omitted, Abs format (unit mm)*
G04 Created by KiCad (PCBNEW (6.0.7)) date 2022-10-20 14:14:45*
%MOMM*%
%LPD*%
G01*
G04 APERTURE LIST*
G04 Aperture macros list*
%AMRoundRect*
0 Rectangle with rounded corners*
0 $1 Rounding radius*
0 $2 $3 $4 $5 $6 $7 $8 $9 X,Y pos of 4 corners*
0 Add a 4 corners polygon primitive as box body*
4,1,4,$2,$3,$4,$5,$6,$7,$8,$9,$2,$3,0*
0 Add four circle primitives for the rounded corners*
1,1,$1+$1,$2,$3*
1,1,$1+$1,$4,$5*
1,1,$1+$1,$6,$7*
1,1,$1+$1,$8,$9*
0 Add four rect primitives between the rounded corners*
20,1,$1+$1,$2,$3,$4,$5,0*
20,1,$1+$1,$4,$5,$6,$7,0*
20,1,$1+$1,$6,$7,$8,$9,0*
20,1,$1+$1,$8,$9,$2,$3,0*%
G04 Aperture macros list end*
%ADD10RoundRect,0.225000X0.225000X0.250000X-0.225000X0.250000X-0.225000X-0.250000X0.225000X-0.250000X0*%
%ADD11O,1.700000X1.700000*%
%ADD12R,1.700000X1.700000*%
%ADD13R,1.350000X1.350000*%
%ADD14O,1.350000X1.350000*%
%ADD15R,1.000000X1.000000*%
%ADD16O,1.000000X1.000000*%
%ADD17C,1.450000*%
%ADD18O,1.900000X1.200000*%
%ADD19C,3.200000*%
%ADD20R,0.850000X0.850000*%
%ADD21O,0.850000X0.850000*%
%ADD22R,0.800000X1.900000*%
%ADD23R,1.900000X0.800000*%
%ADD24RoundRect,0.225000X-0.225000X-0.250000X0.225000X-0.250000X0.225000X0.250000X-0.225000X0.250000X0*%
%ADD25RoundRect,0.250000X-1.100000X0.325000X-1.100000X-0.325000X1.100000X-0.325000X1.100000X0.325000X0*%
%ADD26RoundRect,0.225000X-0.250000X0.225000X-0.250000X-0.225000X0.250000X-0.225000X0.250000X0.225000X0*%
%ADD27C,1.000000*%
%ADD28RoundRect,0.200000X-0.200000X-0.275000X0.200000X-0.275000X0.200000X0.275000X-0.200000X0.275000X0*%
%ADD29R,2.000000X1.500000*%
%ADD30R,2.000000X3.800000*%
%ADD31RoundRect,0.140000X-0.170000X0.140000X-0.170000X-0.140000X0.170000X-0.140000X0.170000X0.140000X0*%
%ADD32RoundRect,0.200000X0.200000X0.275000X-0.200000X0.275000X-0.200000X-0.275000X0.200000X-0.275000X0*%
%ADD33RoundRect,0.225000X0.250000X-0.225000X0.250000X0.225000X-0.250000X0.225000X-0.250000X-0.225000X0*%
%ADD34RoundRect,0.250000X-0.325000X-0.650000X0.325000X-0.650000X0.325000X0.650000X-0.325000X0.650000X0*%
G04 APERTURE END LIST*
D10*
X47575000Y-7700000D03*
X46025000Y-7700000D03*
D11*
X51039000Y-12389000D03*
X53579000Y-12389000D03*
D12*
X56119000Y-12389000D03*
D13*
X45080289Y-28397700D03*
D14*
X47080289Y-28397700D03*
D13*
X58039000Y-28378098D03*
D14*
X56039000Y-28378098D03*
D13*
X63246000Y-19336000D03*
D14*
X63246000Y-21336000D03*
D13*
X63246000Y-8642600D03*
D14*
X63246000Y-10642600D03*
D15*
X38608000Y-20701000D03*
D16*
X38608000Y-19431000D03*
X38608000Y-18161000D03*
X38608000Y-16891000D03*
D17*
X4116800Y-17200000D03*
X4116800Y-12200000D03*
D18*
X1416800Y-18200000D03*
X1416800Y-11200000D03*
D19*
X61500000Y-3500000D03*
X61500000Y-26500000D03*
X3500000Y-26500000D03*
X3500000Y-3500000D03*
D12*
X8280400Y-4790000D03*
D11*
X8280400Y-2250000D03*
X10820400Y-4790000D03*
X10820400Y-2250000D03*
X13360400Y-4790000D03*
X13360400Y-2250000D03*
X15900400Y-4790000D03*
X15900400Y-2250000D03*
X18440400Y-4790000D03*
X18440400Y-2250000D03*
D20*
X34608000Y-1022600D03*
D21*
X34608000Y-2022600D03*
X34608000Y-3022600D03*
X34608000Y-4022600D03*
X34608000Y-5022600D03*
D20*
X39205400Y-1022600D03*
D21*
X39205400Y-2022600D03*
X39205400Y-3022600D03*
X39205400Y-4022600D03*
X39205400Y-5022600D03*
D20*
X36919400Y-1022600D03*
D21*
X36919400Y-2022600D03*
X36919400Y-3022600D03*
X36919400Y-4022600D03*
X36919400Y-5022600D03*
D20*
X41491400Y-1022600D03*
D21*
X41491400Y-2022600D03*
X41491400Y-3022600D03*
X41491400Y-4022600D03*
X41491400Y-5022600D03*
D20*
X32296600Y-1022600D03*
D21*
X32296600Y-2022600D03*
X32296600Y-3022600D03*
X32296600Y-4022600D03*
X32296600Y-5022600D03*
D12*
X57785000Y-8382000D03*
D11*
X55245000Y-8382000D03*
D22*
X50619700Y-28698398D03*
X48719700Y-28698398D03*
X49669700Y-25698398D03*
D23*
X63540900Y-12366200D03*
X63540900Y-14266200D03*
X60540900Y-13316200D03*
D22*
X54152800Y-28695598D03*
X52252800Y-28695598D03*
X53202800Y-25695598D03*
D23*
X63539500Y-15858700D03*
X63539500Y-17758700D03*
X60539500Y-16808700D03*
D24*
X50914000Y-14351000D03*
X52464000Y-14351000D03*
D25*
X47371000Y-19353000D03*
X47371000Y-22303000D03*
D26*
X17439000Y-15672200D03*
X17439000Y-17222200D03*
D27*
X46750000Y-2670000D03*
D10*
X55639000Y-14351000D03*
X54089000Y-14351000D03*
D28*
X43259800Y-5540000D03*
X44909800Y-5540000D03*
D29*
X50444000Y-21858000D03*
X50444000Y-19558000D03*
X50444000Y-17258000D03*
D30*
X56744000Y-19558000D03*
D31*
X45212000Y-20221000D03*
X45212000Y-21181000D03*
D32*
X53339000Y-9652000D03*
X51689000Y-9652000D03*
D24*
X18429000Y-20765200D03*
X19979000Y-20765200D03*
D32*
X44905000Y-3995000D03*
X43255000Y-3995000D03*
D26*
X20360000Y-11494200D03*
X20360000Y-13044200D03*
X24170000Y-19101200D03*
X24170000Y-20651200D03*
D24*
X28094000Y-10859200D03*
X29644000Y-10859200D03*
D26*
X41249600Y-16471600D03*
X41249600Y-18021600D03*
D33*
X25694000Y-20651200D03*
X25694000Y-19101200D03*
X23408000Y-13044200D03*
X23408000Y-11494200D03*
X21884000Y-13044200D03*
X21884000Y-11494200D03*
D28*
X43259800Y-2480000D03*
X44909800Y-2480000D03*
D34*
X53719200Y-4953000D03*
X56669200Y-4953000D03*
D27*
X46680000Y-4790000D03*
M02*
