G04 #@! TF.GenerationSoftware,KiCad,Pcbnew,(6.0.7)*
G04 #@! TF.CreationDate,2022-10-20T14:31:20-04:00*
G04 #@! TF.ProjectId,ECE477_PCB,45434534-3737-45f5-9043-422e6b696361,rev?*
G04 #@! TF.SameCoordinates,PX2daf690PY1aab7d8*
G04 #@! TF.FileFunction,Paste,Bot*
G04 #@! TF.FilePolarity,Positive*
%FSLAX46Y46*%
G04 Gerber Fmt 4.6, Leading zero omitted, Abs format (unit mm)*
G04 Created by KiCad (PCBNEW (6.0.7)) date 2022-10-20 14:31:20*
%MOMM*%
%LPD*%
G01*
G04 APERTURE LIST*
G04 Aperture macros list*
%AMRoundRect*
0 Rectangle with rounded corners*
0 $1 Rounding radius*
0 $2 $3 $4 $5 $6 $7 $8 $9 X,Y pos of 4 corners*
0 Add a 4 corners polygon primitive as box body*
4,1,4,$2,$3,$4,$5,$6,$7,$8,$9,$2,$3,0*
0 Add four circle primitives for the rounded corners*
1,1,$1+$1,$2,$3*
1,1,$1+$1,$4,$5*
1,1,$1+$1,$6,$7*
1,1,$1+$1,$8,$9*
0 Add four rect primitives between the rounded corners*
20,1,$1+$1,$2,$3,$4,$5,0*
20,1,$1+$1,$4,$5,$6,$7,0*
20,1,$1+$1,$6,$7,$8,$9,0*
20,1,$1+$1,$8,$9,$2,$3,0*%
G04 Aperture macros list end*
%ADD10R,0.800000X1.900000*%
%ADD11R,1.900000X0.800000*%
%ADD12RoundRect,0.225000X-0.225000X-0.250000X0.225000X-0.250000X0.225000X0.250000X-0.225000X0.250000X0*%
%ADD13RoundRect,0.250000X-1.100000X0.325000X-1.100000X-0.325000X1.100000X-0.325000X1.100000X0.325000X0*%
%ADD14RoundRect,0.225000X0.225000X0.250000X-0.225000X0.250000X-0.225000X-0.250000X0.225000X-0.250000X0*%
%ADD15RoundRect,0.225000X-0.250000X0.225000X-0.250000X-0.225000X0.250000X-0.225000X0.250000X0.225000X0*%
%ADD16RoundRect,0.200000X-0.200000X-0.275000X0.200000X-0.275000X0.200000X0.275000X-0.200000X0.275000X0*%
%ADD17R,2.000000X1.500000*%
%ADD18R,2.000000X3.800000*%
%ADD19RoundRect,0.140000X-0.170000X0.140000X-0.170000X-0.140000X0.170000X-0.140000X0.170000X0.140000X0*%
%ADD20RoundRect,0.200000X0.200000X0.275000X-0.200000X0.275000X-0.200000X-0.275000X0.200000X-0.275000X0*%
%ADD21RoundRect,0.225000X0.250000X-0.225000X0.250000X0.225000X-0.250000X0.225000X-0.250000X-0.225000X0*%
%ADD22RoundRect,0.250000X-0.325000X-0.650000X0.325000X-0.650000X0.325000X0.650000X-0.325000X0.650000X0*%
G04 APERTURE END LIST*
D10*
X50619700Y-28698398D03*
X48719700Y-28698398D03*
X49669700Y-25698398D03*
D11*
X63540900Y-12366200D03*
X63540900Y-14266200D03*
X60540900Y-13316200D03*
D10*
X54152800Y-28695598D03*
X52252800Y-28695598D03*
X53202800Y-25695598D03*
D11*
X63539500Y-15858700D03*
X63539500Y-17758700D03*
X60539500Y-16808700D03*
D12*
X50914000Y-14351000D03*
X52464000Y-14351000D03*
D13*
X47371000Y-19353000D03*
X47371000Y-22303000D03*
D14*
X47575000Y-7700000D03*
X46025000Y-7700000D03*
D15*
X17439000Y-15672200D03*
X17439000Y-17222200D03*
D14*
X55639000Y-14351000D03*
X54089000Y-14351000D03*
D16*
X43259800Y-5540000D03*
X44909800Y-5540000D03*
D17*
X50444000Y-21858000D03*
X50444000Y-19558000D03*
X50444000Y-17258000D03*
D18*
X56744000Y-19558000D03*
D19*
X45212000Y-20221000D03*
X45212000Y-21181000D03*
D20*
X53339000Y-9652000D03*
X51689000Y-9652000D03*
D12*
X18429000Y-20765200D03*
X19979000Y-20765200D03*
D20*
X44905000Y-3995000D03*
X43255000Y-3995000D03*
D15*
X20360000Y-11494200D03*
X20360000Y-13044200D03*
X24170000Y-19101200D03*
X24170000Y-20651200D03*
D12*
X28094000Y-10859200D03*
X29644000Y-10859200D03*
D15*
X41249600Y-16471600D03*
X41249600Y-18021600D03*
D21*
X25694000Y-20651200D03*
X25694000Y-19101200D03*
X23408000Y-13044200D03*
X23408000Y-11494200D03*
X21884000Y-13044200D03*
X21884000Y-11494200D03*
D16*
X43259800Y-2480000D03*
X44909800Y-2480000D03*
D22*
X53719200Y-4953000D03*
X56669200Y-4953000D03*
M02*
