%TF.GenerationSoftware,KiCad,Pcbnew,(6.0.7)*%
%TF.CreationDate,2022-10-20T14:38:49-04:00*%
%TF.ProjectId,ECE477_PCB,45434534-3737-45f5-9043-422e6b696361,rev?*%
%TF.SameCoordinates,PX2daf690PY1aab7d8*%
%TF.FileFunction,Drillmap*%
%TF.FilePolarity,Positive*%
%FSLAX45Y45*%
G04 Gerber Fmt 4.5, Leading zero omitted, Abs format (unit mm)*
G04 Created by KiCad (PCBNEW (6.0.7)) date 2022-10-20 14:38:49*
%MOMM*%
%LPD*%
G01*
G04 APERTURE LIST*
%ADD10C,0.100000*%
%ADD11C,0.200000*%
%ADD12C,0.040000*%
%ADD13C,0.050000*%
%ADD14C,0.060000*%
%ADD15C,0.070000*%
%ADD16C,0.080000*%
%ADD17C,0.085000*%
G04 APERTURE END LIST*
D10*
X3956500Y-2319020D02*
G75*
G03*
X3956500Y-2319020I-57600J0D01*
G01*
X0Y-350000D02*
X0Y-2650000D01*
X350000Y-3000000D02*
X6150000Y-3000000D01*
X6150000Y0D02*
X350000Y0D01*
X350000Y0D02*
G75*
G03*
X0Y-350000I0J-350000D01*
G01*
X6500000Y-350000D02*
G75*
G03*
X6150000Y0I-350000J0D01*
G01*
X6500000Y-2650000D02*
X6500000Y-350000D01*
X6150000Y-3000000D02*
G75*
G03*
X6500000Y-2650000I0J350000D01*
G01*
X0Y-2650000D02*
G75*
G03*
X350000Y-3000000I350000J0D01*
G01*
D11*
D12*
X505780Y-1383960D02*
X545780Y-1423960D01*
X545780Y-1383960D02*
X505780Y-1423960D01*
X510430Y-1514060D02*
X550430Y-1554060D01*
X550430Y-1514060D02*
X510430Y-1554060D01*
X516813Y-1285544D02*
X556813Y-1325544D01*
X556813Y-1285544D02*
X516813Y-1325544D01*
X550000Y-1950000D02*
X590000Y-1990000D01*
X590000Y-1950000D02*
X550000Y-1990000D01*
X650560Y-437200D02*
X690560Y-477200D01*
X690560Y-437200D02*
X650560Y-477200D01*
X650560Y-551500D02*
X690560Y-591500D01*
X690560Y-551500D02*
X650560Y-591500D01*
X675960Y-2192340D02*
X715960Y-2232340D01*
X715960Y-2192340D02*
X675960Y-2232340D01*
X675960Y-2459040D02*
X715960Y-2499040D01*
X715960Y-2459040D02*
X675960Y-2499040D01*
X675960Y-2583500D02*
X715960Y-2623500D01*
X715960Y-2583500D02*
X675960Y-2623500D01*
X678500Y-2075500D02*
X718500Y-2115500D01*
X718500Y-2075500D02*
X678500Y-2115500D01*
X683580Y-2316800D02*
X723580Y-2356800D01*
X723580Y-2316800D02*
X683580Y-2356800D01*
X770000Y-1800000D02*
X810000Y-1840000D01*
X810000Y-1800000D02*
X770000Y-1840000D01*
X838520Y-2713040D02*
X878520Y-2753040D01*
X878520Y-2713040D02*
X838520Y-2753040D01*
X841060Y-1082360D02*
X881060Y-1122360D01*
X881060Y-1082360D02*
X841060Y-1122360D01*
X871540Y-886780D02*
X911540Y-926780D01*
X911540Y-886780D02*
X871540Y-926780D01*
X901080Y-2033920D02*
X941080Y-2073920D01*
X941080Y-2033920D02*
X901080Y-2073920D01*
X927430Y-1170290D02*
X967430Y-1210290D01*
X967430Y-1170290D02*
X927430Y-1210290D01*
X990920Y-2182180D02*
X1030920Y-2222180D01*
X1030920Y-2182180D02*
X990920Y-2222180D01*
X990920Y-2304100D02*
X1030920Y-2344100D01*
X1030920Y-2304100D02*
X990920Y-2344100D01*
X990920Y-2426020D02*
X1030920Y-2466020D01*
X1030920Y-2426020D02*
X990920Y-2466020D01*
X1013780Y-1681800D02*
X1053780Y-1721800D01*
X1053780Y-1681800D02*
X1013780Y-1721800D01*
X1046800Y-2685100D02*
X1086800Y-2725100D01*
X1086800Y-2685100D02*
X1046800Y-2725100D01*
X1087440Y-1011240D02*
X1127440Y-1051240D01*
X1127440Y-1011240D02*
X1087440Y-1051240D01*
X1117920Y-1664020D02*
X1157920Y-1704020D01*
X1157920Y-1664020D02*
X1117920Y-1704020D01*
X1123000Y-825820D02*
X1163000Y-865820D01*
X1163000Y-825820D02*
X1123000Y-865820D01*
X1150940Y-1171260D02*
X1190940Y-1211260D01*
X1190940Y-1171260D02*
X1150940Y-1211260D01*
X1168720Y-1290640D02*
X1208720Y-1330640D01*
X1208720Y-1290640D02*
X1168720Y-1330640D01*
X1170950Y-1405834D02*
X1210950Y-1445834D01*
X1210950Y-1405834D02*
X1170950Y-1445834D01*
X1300000Y-2390000D02*
X1340000Y-2430000D01*
X1340000Y-2390000D02*
X1300000Y-2430000D01*
X1333820Y-1897700D02*
X1373820Y-1937700D01*
X1373820Y-1897700D02*
X1333820Y-1937700D01*
X1435420Y-1846900D02*
X1475420Y-1886900D01*
X1475420Y-1846900D02*
X1435420Y-1886900D01*
X1547190Y-1854520D02*
X1587190Y-1894520D01*
X1587190Y-1854520D02*
X1547190Y-1894520D01*
X1644000Y-812000D02*
X1684000Y-852000D01*
X1684000Y-812000D02*
X1644000Y-852000D01*
X1651320Y-2743520D02*
X1691320Y-2783520D01*
X1691320Y-2743520D02*
X1651320Y-2783520D01*
X1752920Y-947740D02*
X1792920Y-987740D01*
X1792920Y-947740D02*
X1752920Y-987740D01*
X1758000Y-838520D02*
X1798000Y-878520D01*
X1798000Y-838520D02*
X1758000Y-878520D01*
X1761699Y-2540000D02*
X1801699Y-2580000D01*
X1801699Y-2540000D02*
X1761699Y-2580000D01*
X1815534Y-2731416D02*
X1855534Y-2771416D01*
X1855534Y-2731416D02*
X1815534Y-2771416D01*
X1823000Y-2057000D02*
X1863000Y-2097000D01*
X1863000Y-2057000D02*
X1823000Y-2097000D01*
X1836740Y-1879920D02*
X1876740Y-1919920D01*
X1876740Y-1879920D02*
X1836740Y-1919920D01*
X1836740Y-2260920D02*
X1876740Y-2300920D01*
X1876740Y-2260920D02*
X1836740Y-2300920D01*
X1850900Y-1128080D02*
X1890900Y-1168080D01*
X1890900Y-1128080D02*
X1850900Y-1168080D01*
X1850900Y-1693300D02*
X1890900Y-1733300D01*
X1890900Y-1693300D02*
X1850900Y-1733300D01*
X1864680Y-1511620D02*
X1904680Y-1551620D01*
X1904680Y-1511620D02*
X1864680Y-1551620D01*
X1892620Y-1394780D02*
X1932620Y-1434780D01*
X1932620Y-1394780D02*
X1892620Y-1434780D01*
X1920595Y-2451455D02*
X1960595Y-2491455D01*
X1960595Y-2451455D02*
X1920595Y-2491455D01*
X1948000Y-593220D02*
X1988000Y-633220D01*
X1988000Y-593220D02*
X1948000Y-633220D01*
X1966280Y-1473520D02*
X2006280Y-1513520D01*
X2006280Y-1473520D02*
X1966280Y-1513520D01*
X2016000Y-1129420D02*
X2056000Y-1169420D01*
X2056000Y-1129420D02*
X2016000Y-1169420D01*
X2017656Y-1006017D02*
X2057656Y-1046017D01*
X2057656Y-1006017D02*
X2017656Y-1046017D01*
X2052640Y-1719900D02*
X2092640Y-1759900D01*
X2092640Y-1719900D02*
X2052640Y-1759900D01*
X2060260Y-305120D02*
X2100260Y-345120D01*
X2100260Y-305120D02*
X2060260Y-345120D01*
X2067725Y-2269968D02*
X2107725Y-2309968D01*
X2107725Y-2269968D02*
X2067725Y-2309968D01*
X2080580Y-1864680D02*
X2120580Y-1904680D01*
X2120580Y-1864680D02*
X2080580Y-1904680D01*
X2083120Y-480380D02*
X2123120Y-520380D01*
X2123120Y-480380D02*
X2083120Y-520380D01*
X2095820Y-1216980D02*
X2135820Y-1256980D01*
X2135820Y-1216980D02*
X2095820Y-1256980D01*
X2107450Y-1011322D02*
X2147450Y-1051322D01*
X2147450Y-1011322D02*
X2107450Y-1051322D01*
X2108520Y-2189800D02*
X2148520Y-2229800D01*
X2148520Y-2189800D02*
X2108520Y-2229800D01*
X2146620Y-2641920D02*
X2186620Y-2681920D01*
X2186620Y-2641920D02*
X2146620Y-2681920D01*
X2161860Y-1420180D02*
X2201860Y-1460180D01*
X2201860Y-1420180D02*
X2161860Y-1460180D01*
X2168400Y-1129420D02*
X2208400Y-1169420D01*
X2208400Y-1129420D02*
X2168400Y-1169420D01*
X2169480Y-305120D02*
X2209480Y-345120D01*
X2209480Y-305120D02*
X2169480Y-345120D01*
X2180828Y-2289885D02*
X2220828Y-2329885D01*
X2220828Y-2289885D02*
X2180828Y-2329885D01*
X2271080Y-305120D02*
X2311080Y-345120D01*
X2311080Y-305120D02*
X2271080Y-345120D01*
X2278700Y-736000D02*
X2318700Y-776000D01*
X2318700Y-736000D02*
X2278700Y-776000D01*
X2319340Y-1417640D02*
X2359340Y-1457640D01*
X2359340Y-1417640D02*
X2319340Y-1457640D01*
X2415860Y-2314260D02*
X2455860Y-2354260D01*
X2455860Y-2314260D02*
X2415860Y-2354260D01*
X2434000Y-1273000D02*
X2474000Y-1313000D01*
X2474000Y-1273000D02*
X2434000Y-1313000D01*
X2450000Y-330000D02*
X2490000Y-370000D01*
X2490000Y-330000D02*
X2450000Y-370000D01*
X2507300Y-2365060D02*
X2547300Y-2405060D01*
X2547300Y-2365060D02*
X2507300Y-2405060D01*
X2512380Y-2728280D02*
X2552380Y-2768280D01*
X2552380Y-2728280D02*
X2512380Y-2768280D01*
X2568000Y-1081000D02*
X2608000Y-1121000D01*
X2608000Y-1081000D02*
X2568000Y-1121000D01*
X2611440Y-1712280D02*
X2651440Y-1752280D01*
X2651440Y-1712280D02*
X2611440Y-1752280D01*
X2613980Y-1262700D02*
X2653980Y-1302700D01*
X2653980Y-1262700D02*
X2613980Y-1302700D01*
X2616520Y-2365060D02*
X2656520Y-2405060D01*
X2656520Y-2365060D02*
X2616520Y-2405060D01*
X2634300Y-274640D02*
X2674300Y-314640D01*
X2674300Y-274640D02*
X2634300Y-314640D01*
X2656204Y-2536616D02*
X2696204Y-2576616D01*
X2696204Y-2536616D02*
X2656204Y-2576616D01*
X2664780Y-1864680D02*
X2704780Y-1904680D01*
X2704780Y-1864680D02*
X2664780Y-1904680D01*
X2695260Y-2276160D02*
X2735260Y-2316160D01*
X2735260Y-2276160D02*
X2695260Y-2316160D01*
X2697100Y-2456500D02*
X2737100Y-2496500D01*
X2737100Y-2456500D02*
X2697100Y-2496500D01*
X2758760Y-312740D02*
X2798760Y-352740D01*
X2798760Y-312740D02*
X2758760Y-352740D01*
X2780000Y-2560000D02*
X2820000Y-2600000D01*
X2820000Y-2560000D02*
X2780000Y-2600000D01*
X2799680Y-2189348D02*
X2839680Y-2229348D01*
X2839680Y-2189348D02*
X2799680Y-2229348D01*
X2801940Y-940120D02*
X2841940Y-980120D01*
X2841940Y-940120D02*
X2801940Y-980120D01*
X2858400Y-1898400D02*
X2898400Y-1938400D01*
X2898400Y-1898400D02*
X2858400Y-1938400D01*
X2858400Y-2000000D02*
X2898400Y-2040000D01*
X2898400Y-2000000D02*
X2858400Y-2040000D01*
X2865440Y-691200D02*
X2905440Y-731200D01*
X2905440Y-691200D02*
X2865440Y-731200D01*
X2888300Y-432120D02*
X2928300Y-472120D01*
X2928300Y-432120D02*
X2888300Y-472120D01*
X2888710Y-522069D02*
X2928710Y-562069D01*
X2928710Y-522069D02*
X2888710Y-562069D01*
X2926400Y-790260D02*
X2966400Y-830260D01*
X2966400Y-790260D02*
X2926400Y-830260D01*
X2954340Y-2748600D02*
X2994340Y-2788600D01*
X2994340Y-2748600D02*
X2954340Y-2788600D01*
X2960000Y-1898400D02*
X3000000Y-1938400D01*
X3000000Y-1898400D02*
X2960000Y-1938400D01*
X2960000Y-2000000D02*
X3000000Y-2040000D01*
X3000000Y-2000000D02*
X2960000Y-2040000D01*
X2969580Y-48580D02*
X3009580Y-88580D01*
X3009580Y-48580D02*
X2969580Y-88580D01*
X2982280Y-874080D02*
X3022280Y-914080D01*
X3022280Y-874080D02*
X2982280Y-914080D01*
X3045780Y-975680D02*
X3085780Y-1015680D01*
X3085780Y-975680D02*
X3045780Y-1015680D01*
X3057604Y-1458290D02*
X3097604Y-1498290D01*
X3097604Y-1458290D02*
X3057604Y-1498290D01*
X3090148Y-1827932D02*
X3130148Y-1867932D01*
X3130148Y-1827932D02*
X3090148Y-1867932D01*
X3091500Y-1082360D02*
X3131500Y-1122360D01*
X3131500Y-1082360D02*
X3091500Y-1122360D01*
X3091500Y-1676720D02*
X3131500Y-1716720D01*
X3131500Y-1676720D02*
X3091500Y-1716720D01*
X3152460Y-1496380D02*
X3192460Y-1536380D01*
X3192460Y-1496380D02*
X3152460Y-1536380D01*
X3157540Y-1758000D02*
X3197540Y-1798000D01*
X3197540Y-1758000D02*
X3157540Y-1798000D01*
X3210880Y-922340D02*
X3250880Y-962340D01*
X3250880Y-922340D02*
X3210880Y-962340D01*
X3236280Y-2629220D02*
X3276280Y-2669220D01*
X3276280Y-2629220D02*
X3236280Y-2669220D01*
X3276920Y-998540D02*
X3316920Y-1038540D01*
X3316920Y-998540D02*
X3276920Y-1038540D01*
X3320000Y-2330000D02*
X3360000Y-2370000D01*
X3360000Y-2330000D02*
X3320000Y-2370000D01*
X3345500Y-922340D02*
X3385500Y-962340D01*
X3385500Y-922340D02*
X3345500Y-962340D01*
X3419160Y-1001080D02*
X3459160Y-1041080D01*
X3459160Y-1001080D02*
X3419160Y-1041080D01*
X3497900Y-919800D02*
X3537900Y-959800D01*
X3537900Y-919800D02*
X3497900Y-959800D01*
X3607120Y-1496380D02*
X3647120Y-1536380D01*
X3647120Y-1496380D02*
X3607120Y-1536380D01*
X3619820Y-1087440D02*
X3659820Y-1127440D01*
X3659820Y-1087440D02*
X3619820Y-1127440D01*
X3754440Y-1496380D02*
X3794440Y-1536380D01*
X3794440Y-1496380D02*
X3754440Y-1536380D01*
X3762060Y-1089980D02*
X3802060Y-1129980D01*
X3802060Y-1089980D02*
X3762060Y-1129980D01*
X3917000Y-1095060D02*
X3957000Y-1135060D01*
X3957000Y-1095060D02*
X3917000Y-1135060D01*
X3929700Y-1496380D02*
X3969700Y-1536380D01*
X3969700Y-1496380D02*
X3929700Y-1536380D01*
X4112580Y-780100D02*
X4152580Y-820100D01*
X4152580Y-780100D02*
X4112580Y-820100D01*
X4186240Y-843600D02*
X4226240Y-883600D01*
X4226240Y-843600D02*
X4186240Y-883600D01*
X4224340Y-1366840D02*
X4264340Y-1406840D01*
X4264340Y-1366840D02*
X4224340Y-1406840D01*
X4249740Y-904560D02*
X4289740Y-944560D01*
X4289740Y-904560D02*
X4249740Y-944560D01*
X4290380Y-1432880D02*
X4330380Y-1472880D01*
X4330380Y-1432880D02*
X4290380Y-1472880D01*
X4361500Y-1504000D02*
X4401500Y-1544000D01*
X4401500Y-1504000D02*
X4361500Y-1544000D01*
X4452940Y-1133160D02*
X4492940Y-1173160D01*
X4492940Y-1133160D02*
X4452940Y-1173160D01*
X4465820Y-1915300D02*
X4505820Y-1955300D01*
X4505820Y-1915300D02*
X4465820Y-1955300D01*
X4472000Y-752000D02*
X4512000Y-792000D01*
X4512000Y-752000D02*
X4472000Y-792000D01*
X4536760Y-1206820D02*
X4576760Y-1246820D01*
X4576760Y-1206820D02*
X4536760Y-1246820D01*
X4648520Y-576900D02*
X4688520Y-616900D01*
X4688520Y-576900D02*
X4648520Y-616900D01*
X4729800Y-333060D02*
X4769800Y-373060D01*
X4769800Y-333060D02*
X4729800Y-373060D01*
X4831410Y-322900D02*
X4871410Y-362900D01*
X4871410Y-322900D02*
X4831410Y-362900D01*
X4911410Y-1675450D02*
X4951410Y-1715450D01*
X4951410Y-1675450D02*
X4911410Y-1715450D01*
X4953320Y-322900D02*
X4993320Y-362900D01*
X4993320Y-322900D02*
X4953320Y-362900D01*
X5013140Y-1705800D02*
X5053140Y-1745800D01*
X5053140Y-1705800D02*
X5013140Y-1745800D01*
X5049840Y-320360D02*
X5089840Y-360360D01*
X5089840Y-320360D02*
X5049840Y-360360D01*
X5062540Y-2895300D02*
X5102540Y-2935300D01*
X5102540Y-2895300D02*
X5062540Y-2935300D01*
X5071722Y-2557719D02*
X5111722Y-2597719D01*
X5111722Y-2557719D02*
X5071722Y-2597719D01*
X5076510Y-2688270D02*
X5116510Y-2728270D01*
X5116510Y-2688270D02*
X5076510Y-2728270D01*
X5109660Y-1705800D02*
X5149660Y-1745800D01*
X5149660Y-1705800D02*
X5109660Y-1745800D01*
X5151440Y-320360D02*
X5191440Y-360360D01*
X5191440Y-320360D02*
X5151440Y-360360D01*
X5165410Y-2561270D02*
X5205410Y-2601270D01*
X5205410Y-2561270D02*
X5165410Y-2601270D01*
X5201100Y-1705800D02*
X5241100Y-1745800D01*
X5241100Y-1705800D02*
X5201100Y-1745800D01*
X5209860Y-2737790D02*
X5249860Y-2777790D01*
X5249860Y-2737790D02*
X5209860Y-2777790D01*
X5255580Y-320360D02*
X5295580Y-360360D01*
X5295580Y-320360D02*
X5255580Y-360360D01*
X5298760Y-686120D02*
X5338760Y-726120D01*
X5338760Y-686120D02*
X5298760Y-726120D01*
X5349560Y-609920D02*
X5389560Y-649920D01*
X5389560Y-609920D02*
X5349560Y-649920D01*
X5357180Y-2895280D02*
X5397180Y-2935280D01*
X5397180Y-2895280D02*
X5357180Y-2935280D01*
X6120636Y-1401814D02*
X6160636Y-1441814D01*
X6160636Y-1401814D02*
X6120636Y-1441814D01*
X6128950Y-1566475D02*
X6168950Y-1606475D01*
X6168950Y-1566475D02*
X6128950Y-1606475D01*
X6227130Y-1413220D02*
X6267130Y-1453220D01*
X6267130Y-1413220D02*
X6227130Y-1453220D01*
X6384610Y-1559270D02*
X6424610Y-1599270D01*
X6424610Y-1559270D02*
X6384610Y-1599270D01*
X6384620Y-1267170D02*
X6424620Y-1307170D01*
X6424620Y-1267170D02*
X6384620Y-1307170D01*
D13*
X3254660Y-102260D02*
G75*
G03*
X3254660Y-102260I-25000J0D01*
G01*
X3254660Y-202260D02*
G75*
G03*
X3254660Y-202260I-25000J0D01*
G01*
X3254660Y-302260D02*
G75*
G03*
X3254660Y-302260I-25000J0D01*
G01*
X3254660Y-402260D02*
G75*
G03*
X3254660Y-402260I-25000J0D01*
G01*
X3254660Y-502260D02*
G75*
G03*
X3254660Y-502260I-25000J0D01*
G01*
X3485800Y-102260D02*
G75*
G03*
X3485800Y-102260I-25000J0D01*
G01*
X3485800Y-202260D02*
G75*
G03*
X3485800Y-202260I-25000J0D01*
G01*
X3485800Y-302260D02*
G75*
G03*
X3485800Y-302260I-25000J0D01*
G01*
X3485800Y-402260D02*
G75*
G03*
X3485800Y-402260I-25000J0D01*
G01*
X3485800Y-502260D02*
G75*
G03*
X3485800Y-502260I-25000J0D01*
G01*
X3716940Y-102260D02*
G75*
G03*
X3716940Y-102260I-25000J0D01*
G01*
X3716940Y-202260D02*
G75*
G03*
X3716940Y-202260I-25000J0D01*
G01*
X3716940Y-302260D02*
G75*
G03*
X3716940Y-302260I-25000J0D01*
G01*
X3716940Y-402260D02*
G75*
G03*
X3716940Y-402260I-25000J0D01*
G01*
X3716940Y-502260D02*
G75*
G03*
X3716940Y-502260I-25000J0D01*
G01*
X3945540Y-102260D02*
G75*
G03*
X3945540Y-102260I-25000J0D01*
G01*
X3945540Y-202260D02*
G75*
G03*
X3945540Y-202260I-25000J0D01*
G01*
X3945540Y-302260D02*
G75*
G03*
X3945540Y-302260I-25000J0D01*
G01*
X3945540Y-402260D02*
G75*
G03*
X3945540Y-402260I-25000J0D01*
G01*
X3945540Y-502260D02*
G75*
G03*
X3945540Y-502260I-25000J0D01*
G01*
X4174140Y-102260D02*
G75*
G03*
X4174140Y-102260I-25000J0D01*
G01*
X4174140Y-202260D02*
G75*
G03*
X4174140Y-202260I-25000J0D01*
G01*
X4174140Y-302260D02*
G75*
G03*
X4174140Y-302260I-25000J0D01*
G01*
X4174140Y-402260D02*
G75*
G03*
X4174140Y-402260I-25000J0D01*
G01*
X4174140Y-502260D02*
G75*
G03*
X4174140Y-502260I-25000J0D01*
G01*
D14*
X141680Y-1090000D02*
X141680Y-1150000D01*
X111680Y-1120000D02*
X171680Y-1120000D01*
D11*
X106680Y-1150000D02*
X176680Y-1150000D01*
X106680Y-1090000D02*
X176680Y-1090000D01*
X176680Y-1150000D02*
G75*
G03*
X176680Y-1090000I0J30000D01*
G01*
X106680Y-1090000D02*
G75*
G03*
X106680Y-1150000I0J-30000D01*
G01*
D14*
X141680Y-1790000D02*
X141680Y-1850000D01*
X111680Y-1820000D02*
X171680Y-1820000D01*
D11*
X176680Y-1790000D02*
X106680Y-1790000D01*
X176680Y-1850000D02*
X106680Y-1850000D01*
X106680Y-1790000D02*
G75*
G03*
X106680Y-1850000I0J-30000D01*
G01*
X176680Y-1850000D02*
G75*
G03*
X176680Y-1790000I0J30000D01*
G01*
D15*
X3885549Y-1713849D02*
X3885549Y-1664351D01*
X3836051Y-1664351D01*
X3836051Y-1713849D01*
X3885549Y-1713849D01*
X3885549Y-1840849D02*
X3885549Y-1791351D01*
X3836051Y-1791351D01*
X3836051Y-1840849D01*
X3885549Y-1840849D01*
X3885549Y-1967849D02*
X3885549Y-1918351D01*
X3836051Y-1918351D01*
X3836051Y-1967849D01*
X3885549Y-1967849D01*
X3885549Y-2094849D02*
X3885549Y-2045351D01*
X3836051Y-2045351D01*
X3836051Y-2094849D01*
X3885549Y-2094849D01*
D16*
X4508029Y-2879770D02*
X4548029Y-2839770D01*
X4508029Y-2799770D01*
X4468029Y-2839770D01*
X4508029Y-2879770D01*
X4708029Y-2879770D02*
X4748029Y-2839770D01*
X4708029Y-2799770D01*
X4668029Y-2839770D01*
X4708029Y-2879770D01*
X5603900Y-2877810D02*
X5643900Y-2837810D01*
X5603900Y-2797810D01*
X5563900Y-2837810D01*
X5603900Y-2877810D01*
X5803900Y-2877810D02*
X5843900Y-2837810D01*
X5803900Y-2797810D01*
X5763900Y-2837810D01*
X5803900Y-2877810D01*
X6324600Y-904260D02*
X6364600Y-864260D01*
X6324600Y-824260D01*
X6284600Y-864260D01*
X6324600Y-904260D01*
X6324600Y-1104260D02*
X6364600Y-1064260D01*
X6324600Y-1024260D01*
X6284600Y-1064260D01*
X6324600Y-1104260D01*
X6324600Y-1973600D02*
X6364600Y-1933600D01*
X6324600Y-1893600D01*
X6284600Y-1933600D01*
X6324600Y-1973600D01*
X6324600Y-2173600D02*
X6364600Y-2133600D01*
X6324600Y-2093600D01*
X6284600Y-2133600D01*
X6324600Y-2173600D01*
D17*
X369180Y-1177500D02*
X454180Y-1262500D01*
X454180Y-1177500D02*
X369180Y-1262500D01*
X454180Y-1220000D02*
G75*
G03*
X454180Y-1220000I-42500J0D01*
G01*
X369180Y-1677500D02*
X454180Y-1762500D01*
X454180Y-1677500D02*
X369180Y-1762500D01*
X454180Y-1720000D02*
G75*
G03*
X454180Y-1720000I-42500J0D01*
G01*
D10*
X778040Y-175000D02*
X878040Y-275000D01*
X878040Y-175000D02*
X778040Y-275000D01*
X828040Y-175000D02*
X828040Y-275000D01*
X778040Y-225000D02*
X878040Y-225000D01*
X778040Y-429000D02*
X878040Y-529000D01*
X878040Y-429000D02*
X778040Y-529000D01*
X828040Y-429000D02*
X828040Y-529000D01*
X778040Y-479000D02*
X878040Y-479000D01*
X1032040Y-175000D02*
X1132040Y-275000D01*
X1132040Y-175000D02*
X1032040Y-275000D01*
X1082040Y-175000D02*
X1082040Y-275000D01*
X1032040Y-225000D02*
X1132040Y-225000D01*
X1032040Y-429000D02*
X1132040Y-529000D01*
X1132040Y-429000D02*
X1032040Y-529000D01*
X1082040Y-429000D02*
X1082040Y-529000D01*
X1032040Y-479000D02*
X1132040Y-479000D01*
X1286040Y-175000D02*
X1386040Y-275000D01*
X1386040Y-175000D02*
X1286040Y-275000D01*
X1336040Y-175000D02*
X1336040Y-275000D01*
X1286040Y-225000D02*
X1386040Y-225000D01*
X1286040Y-429000D02*
X1386040Y-529000D01*
X1386040Y-429000D02*
X1286040Y-529000D01*
X1336040Y-429000D02*
X1336040Y-529000D01*
X1286040Y-479000D02*
X1386040Y-479000D01*
X1540040Y-175000D02*
X1640040Y-275000D01*
X1640040Y-175000D02*
X1540040Y-275000D01*
X1590040Y-175000D02*
X1590040Y-275000D01*
X1540040Y-225000D02*
X1640040Y-225000D01*
X1540040Y-429000D02*
X1640040Y-529000D01*
X1640040Y-429000D02*
X1540040Y-529000D01*
X1590040Y-429000D02*
X1590040Y-529000D01*
X1540040Y-479000D02*
X1640040Y-479000D01*
X1794040Y-175000D02*
X1894040Y-275000D01*
X1894040Y-175000D02*
X1794040Y-275000D01*
X1844040Y-175000D02*
X1844040Y-275000D01*
X1794040Y-225000D02*
X1894040Y-225000D01*
X1794040Y-429000D02*
X1894040Y-529000D01*
X1894040Y-429000D02*
X1794040Y-529000D01*
X1844040Y-429000D02*
X1844040Y-529000D01*
X1794040Y-479000D02*
X1894040Y-479000D01*
X5053900Y-1188900D02*
X5153900Y-1288900D01*
X5153900Y-1188900D02*
X5053900Y-1288900D01*
X5103900Y-1188900D02*
X5103900Y-1288900D01*
X5053900Y-1238900D02*
X5153900Y-1238900D01*
X5307900Y-1188900D02*
X5407900Y-1288900D01*
X5407900Y-1188900D02*
X5307900Y-1288900D01*
X5357900Y-1188900D02*
X5357900Y-1288900D01*
X5307900Y-1238900D02*
X5407900Y-1238900D01*
X5474500Y-788200D02*
X5574500Y-888200D01*
X5574500Y-788200D02*
X5474500Y-888200D01*
X5524500Y-788200D02*
X5524500Y-888200D01*
X5474500Y-838200D02*
X5574500Y-838200D01*
X5561900Y-1188900D02*
X5661900Y-1288900D01*
X5661900Y-1188900D02*
X5561900Y-1288900D01*
X5611900Y-1188900D02*
X5611900Y-1288900D01*
X5561900Y-1238900D02*
X5661900Y-1238900D01*
X5728500Y-788200D02*
X5828500Y-888200D01*
X5828500Y-788200D02*
X5728500Y-888200D01*
X5778500Y-788200D02*
X5778500Y-888200D01*
X5728500Y-838200D02*
X5828500Y-838200D01*
D11*
X252619Y-3315476D02*
X252619Y-3115476D01*
X300238Y-3115476D01*
X328810Y-3125000D01*
X347857Y-3144048D01*
X357381Y-3163095D01*
X366905Y-3201190D01*
X366905Y-3229762D01*
X357381Y-3267857D01*
X347857Y-3286905D01*
X328810Y-3305952D01*
X300238Y-3315476D01*
X252619Y-3315476D01*
X452619Y-3315476D02*
X452619Y-3182143D01*
X452619Y-3220238D02*
X462143Y-3201190D01*
X471667Y-3191667D01*
X490714Y-3182143D01*
X509762Y-3182143D01*
X576429Y-3315476D02*
X576429Y-3182143D01*
X576429Y-3115476D02*
X566905Y-3125000D01*
X576429Y-3134524D01*
X585952Y-3125000D01*
X576429Y-3115476D01*
X576429Y-3134524D01*
X700238Y-3315476D02*
X681190Y-3305952D01*
X671667Y-3286905D01*
X671667Y-3115476D01*
X805000Y-3315476D02*
X785952Y-3305952D01*
X776428Y-3286905D01*
X776428Y-3115476D01*
X1033571Y-3315476D02*
X1033571Y-3115476D01*
X1100238Y-3258333D01*
X1166905Y-3115476D01*
X1166905Y-3315476D01*
X1347857Y-3315476D02*
X1347857Y-3210714D01*
X1338333Y-3191667D01*
X1319286Y-3182143D01*
X1281190Y-3182143D01*
X1262143Y-3191667D01*
X1347857Y-3305952D02*
X1328810Y-3315476D01*
X1281190Y-3315476D01*
X1262143Y-3305952D01*
X1252619Y-3286905D01*
X1252619Y-3267857D01*
X1262143Y-3248809D01*
X1281190Y-3239286D01*
X1328810Y-3239286D01*
X1347857Y-3229762D01*
X1443095Y-3182143D02*
X1443095Y-3382143D01*
X1443095Y-3191667D02*
X1462143Y-3182143D01*
X1500238Y-3182143D01*
X1519286Y-3191667D01*
X1528809Y-3201190D01*
X1538333Y-3220238D01*
X1538333Y-3277381D01*
X1528809Y-3296428D01*
X1519286Y-3305952D01*
X1500238Y-3315476D01*
X1462143Y-3315476D01*
X1443095Y-3305952D01*
X1624048Y-3296428D02*
X1633571Y-3305952D01*
X1624048Y-3315476D01*
X1614524Y-3305952D01*
X1624048Y-3296428D01*
X1624048Y-3315476D01*
X1624048Y-3191667D02*
X1633571Y-3201190D01*
X1624048Y-3210714D01*
X1614524Y-3201190D01*
X1624048Y-3191667D01*
X1624048Y-3210714D01*
D12*
X-45000Y-3625000D02*
X-5000Y-3665000D01*
X-5000Y-3625000D02*
X-45000Y-3665000D01*
D11*
X290714Y-3535476D02*
X309762Y-3535476D01*
X328810Y-3545000D01*
X338333Y-3554524D01*
X347857Y-3573571D01*
X357381Y-3611667D01*
X357381Y-3659286D01*
X347857Y-3697381D01*
X338333Y-3716428D01*
X328810Y-3725952D01*
X309762Y-3735476D01*
X290714Y-3735476D01*
X271667Y-3725952D01*
X262143Y-3716428D01*
X252619Y-3697381D01*
X243095Y-3659286D01*
X243095Y-3611667D01*
X252619Y-3573571D01*
X262143Y-3554524D01*
X271667Y-3545000D01*
X290714Y-3535476D01*
X443095Y-3716428D02*
X452619Y-3725952D01*
X443095Y-3735476D01*
X433571Y-3725952D01*
X443095Y-3716428D01*
X443095Y-3735476D01*
X624048Y-3602143D02*
X624048Y-3735476D01*
X576429Y-3525952D02*
X528810Y-3668809D01*
X652619Y-3668809D01*
X766905Y-3535476D02*
X785952Y-3535476D01*
X805000Y-3545000D01*
X814524Y-3554524D01*
X824048Y-3573571D01*
X833571Y-3611667D01*
X833571Y-3659286D01*
X824048Y-3697381D01*
X814524Y-3716428D01*
X805000Y-3725952D01*
X785952Y-3735476D01*
X766905Y-3735476D01*
X747857Y-3725952D01*
X738333Y-3716428D01*
X728809Y-3697381D01*
X719286Y-3659286D01*
X719286Y-3611667D01*
X728809Y-3573571D01*
X738333Y-3554524D01*
X747857Y-3545000D01*
X766905Y-3535476D01*
X957381Y-3535476D02*
X976428Y-3535476D01*
X995476Y-3545000D01*
X1005000Y-3554524D01*
X1014524Y-3573571D01*
X1024048Y-3611667D01*
X1024048Y-3659286D01*
X1014524Y-3697381D01*
X1005000Y-3716428D01*
X995476Y-3725952D01*
X976428Y-3735476D01*
X957381Y-3735476D01*
X938333Y-3725952D01*
X928809Y-3716428D01*
X919286Y-3697381D01*
X909762Y-3659286D01*
X909762Y-3611667D01*
X919286Y-3573571D01*
X928809Y-3554524D01*
X938333Y-3545000D01*
X957381Y-3535476D01*
X1109762Y-3735476D02*
X1109762Y-3602143D01*
X1109762Y-3621190D02*
X1119286Y-3611667D01*
X1138333Y-3602143D01*
X1166905Y-3602143D01*
X1185952Y-3611667D01*
X1195476Y-3630714D01*
X1195476Y-3735476D01*
X1195476Y-3630714D02*
X1205000Y-3611667D01*
X1224048Y-3602143D01*
X1252619Y-3602143D01*
X1271667Y-3611667D01*
X1281190Y-3630714D01*
X1281190Y-3735476D01*
X1376429Y-3735476D02*
X1376429Y-3602143D01*
X1376429Y-3621190D02*
X1385952Y-3611667D01*
X1405000Y-3602143D01*
X1433571Y-3602143D01*
X1452619Y-3611667D01*
X1462143Y-3630714D01*
X1462143Y-3735476D01*
X1462143Y-3630714D02*
X1471667Y-3611667D01*
X1490714Y-3602143D01*
X1519286Y-3602143D01*
X1538333Y-3611667D01*
X1547857Y-3630714D01*
X1547857Y-3735476D01*
X1938333Y-3525952D02*
X1766905Y-3783095D01*
X2195476Y-3535476D02*
X2214524Y-3535476D01*
X2233571Y-3545000D01*
X2243095Y-3554524D01*
X2252619Y-3573571D01*
X2262143Y-3611667D01*
X2262143Y-3659286D01*
X2252619Y-3697381D01*
X2243095Y-3716428D01*
X2233571Y-3725952D01*
X2214524Y-3735476D01*
X2195476Y-3735476D01*
X2176429Y-3725952D01*
X2166905Y-3716428D01*
X2157381Y-3697381D01*
X2147857Y-3659286D01*
X2147857Y-3611667D01*
X2157381Y-3573571D01*
X2166905Y-3554524D01*
X2176429Y-3545000D01*
X2195476Y-3535476D01*
X2347857Y-3716428D02*
X2357381Y-3725952D01*
X2347857Y-3735476D01*
X2338333Y-3725952D01*
X2347857Y-3716428D01*
X2347857Y-3735476D01*
X2481190Y-3535476D02*
X2500238Y-3535476D01*
X2519286Y-3545000D01*
X2528810Y-3554524D01*
X2538333Y-3573571D01*
X2547857Y-3611667D01*
X2547857Y-3659286D01*
X2538333Y-3697381D01*
X2528810Y-3716428D01*
X2519286Y-3725952D01*
X2500238Y-3735476D01*
X2481190Y-3735476D01*
X2462143Y-3725952D01*
X2452619Y-3716428D01*
X2443095Y-3697381D01*
X2433571Y-3659286D01*
X2433571Y-3611667D01*
X2443095Y-3573571D01*
X2452619Y-3554524D01*
X2462143Y-3545000D01*
X2481190Y-3535476D01*
X2738333Y-3735476D02*
X2624048Y-3735476D01*
X2681190Y-3735476D02*
X2681190Y-3535476D01*
X2662143Y-3564048D01*
X2643095Y-3583095D01*
X2624048Y-3592619D01*
X2919286Y-3535476D02*
X2824048Y-3535476D01*
X2814524Y-3630714D01*
X2824048Y-3621190D01*
X2843095Y-3611667D01*
X2890714Y-3611667D01*
X2909762Y-3621190D01*
X2919286Y-3630714D01*
X2928809Y-3649762D01*
X2928809Y-3697381D01*
X2919286Y-3716428D01*
X2909762Y-3725952D01*
X2890714Y-3735476D01*
X2843095Y-3735476D01*
X2824048Y-3725952D01*
X2814524Y-3716428D01*
X2995476Y-3535476D02*
X3128809Y-3535476D01*
X3043095Y-3735476D01*
X3195476Y-3535476D02*
X3195476Y-3573571D01*
X3271667Y-3535476D02*
X3271667Y-3573571D01*
X3566905Y-3811667D02*
X3557381Y-3802143D01*
X3538333Y-3773571D01*
X3528809Y-3754524D01*
X3519286Y-3725952D01*
X3509762Y-3678333D01*
X3509762Y-3640238D01*
X3519286Y-3592619D01*
X3528809Y-3564048D01*
X3538333Y-3545000D01*
X3557381Y-3516428D01*
X3566905Y-3506905D01*
X3747857Y-3735476D02*
X3633571Y-3735476D01*
X3690714Y-3735476D02*
X3690714Y-3535476D01*
X3671667Y-3564048D01*
X3652619Y-3583095D01*
X3633571Y-3592619D01*
X3919286Y-3602143D02*
X3919286Y-3735476D01*
X3871667Y-3525952D02*
X3824048Y-3668809D01*
X3947857Y-3668809D01*
X4033571Y-3735476D02*
X4071667Y-3735476D01*
X4090714Y-3725952D01*
X4100238Y-3716428D01*
X4119286Y-3687857D01*
X4128809Y-3649762D01*
X4128809Y-3573571D01*
X4119286Y-3554524D01*
X4109762Y-3545000D01*
X4090714Y-3535476D01*
X4052619Y-3535476D01*
X4033571Y-3545000D01*
X4024048Y-3554524D01*
X4014524Y-3573571D01*
X4014524Y-3621190D01*
X4024048Y-3640238D01*
X4033571Y-3649762D01*
X4052619Y-3659286D01*
X4090714Y-3659286D01*
X4109762Y-3649762D01*
X4119286Y-3640238D01*
X4128809Y-3621190D01*
X4366905Y-3735476D02*
X4366905Y-3535476D01*
X4452619Y-3735476D02*
X4452619Y-3630714D01*
X4443095Y-3611667D01*
X4424048Y-3602143D01*
X4395476Y-3602143D01*
X4376429Y-3611667D01*
X4366905Y-3621190D01*
X4576429Y-3735476D02*
X4557381Y-3725952D01*
X4547857Y-3716428D01*
X4538333Y-3697381D01*
X4538333Y-3640238D01*
X4547857Y-3621190D01*
X4557381Y-3611667D01*
X4576429Y-3602143D01*
X4605000Y-3602143D01*
X4624048Y-3611667D01*
X4633571Y-3621190D01*
X4643095Y-3640238D01*
X4643095Y-3697381D01*
X4633571Y-3716428D01*
X4624048Y-3725952D01*
X4605000Y-3735476D01*
X4576429Y-3735476D01*
X4757381Y-3735476D02*
X4738333Y-3725952D01*
X4728810Y-3706905D01*
X4728810Y-3535476D01*
X4909762Y-3725952D02*
X4890714Y-3735476D01*
X4852619Y-3735476D01*
X4833571Y-3725952D01*
X4824048Y-3706905D01*
X4824048Y-3630714D01*
X4833571Y-3611667D01*
X4852619Y-3602143D01*
X4890714Y-3602143D01*
X4909762Y-3611667D01*
X4919286Y-3630714D01*
X4919286Y-3649762D01*
X4824048Y-3668809D01*
X4995476Y-3725952D02*
X5014524Y-3735476D01*
X5052619Y-3735476D01*
X5071667Y-3725952D01*
X5081190Y-3706905D01*
X5081190Y-3697381D01*
X5071667Y-3678333D01*
X5052619Y-3668809D01*
X5024048Y-3668809D01*
X5005000Y-3659286D01*
X4995476Y-3640238D01*
X4995476Y-3630714D01*
X5005000Y-3611667D01*
X5024048Y-3602143D01*
X5052619Y-3602143D01*
X5071667Y-3611667D01*
X5147857Y-3811667D02*
X5157381Y-3802143D01*
X5176429Y-3773571D01*
X5185952Y-3754524D01*
X5195476Y-3725952D01*
X5205000Y-3678333D01*
X5205000Y-3640238D01*
X5195476Y-3592619D01*
X5185952Y-3564048D01*
X5176429Y-3545000D01*
X5157381Y-3516428D01*
X5147857Y-3506905D01*
D13*
X-5000Y-3909000D02*
G75*
G03*
X-5000Y-3909000I-25000J0D01*
G01*
D11*
X290714Y-3799476D02*
X309762Y-3799476D01*
X328810Y-3809000D01*
X338333Y-3818524D01*
X347857Y-3837571D01*
X357381Y-3875667D01*
X357381Y-3923286D01*
X347857Y-3961381D01*
X338333Y-3980428D01*
X328810Y-3989952D01*
X309762Y-3999476D01*
X290714Y-3999476D01*
X271667Y-3989952D01*
X262143Y-3980428D01*
X252619Y-3961381D01*
X243095Y-3923286D01*
X243095Y-3875667D01*
X252619Y-3837571D01*
X262143Y-3818524D01*
X271667Y-3809000D01*
X290714Y-3799476D01*
X443095Y-3980428D02*
X452619Y-3989952D01*
X443095Y-3999476D01*
X433571Y-3989952D01*
X443095Y-3980428D01*
X443095Y-3999476D01*
X633571Y-3799476D02*
X538333Y-3799476D01*
X528810Y-3894714D01*
X538333Y-3885190D01*
X557381Y-3875667D01*
X605000Y-3875667D01*
X624048Y-3885190D01*
X633571Y-3894714D01*
X643095Y-3913762D01*
X643095Y-3961381D01*
X633571Y-3980428D01*
X624048Y-3989952D01*
X605000Y-3999476D01*
X557381Y-3999476D01*
X538333Y-3989952D01*
X528810Y-3980428D01*
X766905Y-3799476D02*
X785952Y-3799476D01*
X805000Y-3809000D01*
X814524Y-3818524D01*
X824048Y-3837571D01*
X833571Y-3875667D01*
X833571Y-3923286D01*
X824048Y-3961381D01*
X814524Y-3980428D01*
X805000Y-3989952D01*
X785952Y-3999476D01*
X766905Y-3999476D01*
X747857Y-3989952D01*
X738333Y-3980428D01*
X728809Y-3961381D01*
X719286Y-3923286D01*
X719286Y-3875667D01*
X728809Y-3837571D01*
X738333Y-3818524D01*
X747857Y-3809000D01*
X766905Y-3799476D01*
X957381Y-3799476D02*
X976428Y-3799476D01*
X995476Y-3809000D01*
X1005000Y-3818524D01*
X1014524Y-3837571D01*
X1024048Y-3875667D01*
X1024048Y-3923286D01*
X1014524Y-3961381D01*
X1005000Y-3980428D01*
X995476Y-3989952D01*
X976428Y-3999476D01*
X957381Y-3999476D01*
X938333Y-3989952D01*
X928809Y-3980428D01*
X919286Y-3961381D01*
X909762Y-3923286D01*
X909762Y-3875667D01*
X919286Y-3837571D01*
X928809Y-3818524D01*
X938333Y-3809000D01*
X957381Y-3799476D01*
X1109762Y-3999476D02*
X1109762Y-3866143D01*
X1109762Y-3885190D02*
X1119286Y-3875667D01*
X1138333Y-3866143D01*
X1166905Y-3866143D01*
X1185952Y-3875667D01*
X1195476Y-3894714D01*
X1195476Y-3999476D01*
X1195476Y-3894714D02*
X1205000Y-3875667D01*
X1224048Y-3866143D01*
X1252619Y-3866143D01*
X1271667Y-3875667D01*
X1281190Y-3894714D01*
X1281190Y-3999476D01*
X1376429Y-3999476D02*
X1376429Y-3866143D01*
X1376429Y-3885190D02*
X1385952Y-3875667D01*
X1405000Y-3866143D01*
X1433571Y-3866143D01*
X1452619Y-3875667D01*
X1462143Y-3894714D01*
X1462143Y-3999476D01*
X1462143Y-3894714D02*
X1471667Y-3875667D01*
X1490714Y-3866143D01*
X1519286Y-3866143D01*
X1538333Y-3875667D01*
X1547857Y-3894714D01*
X1547857Y-3999476D01*
X1938333Y-3789952D02*
X1766905Y-4047095D01*
X2195476Y-3799476D02*
X2214524Y-3799476D01*
X2233571Y-3809000D01*
X2243095Y-3818524D01*
X2252619Y-3837571D01*
X2262143Y-3875667D01*
X2262143Y-3923286D01*
X2252619Y-3961381D01*
X2243095Y-3980428D01*
X2233571Y-3989952D01*
X2214524Y-3999476D01*
X2195476Y-3999476D01*
X2176429Y-3989952D01*
X2166905Y-3980428D01*
X2157381Y-3961381D01*
X2147857Y-3923286D01*
X2147857Y-3875667D01*
X2157381Y-3837571D01*
X2166905Y-3818524D01*
X2176429Y-3809000D01*
X2195476Y-3799476D01*
X2347857Y-3980428D02*
X2357381Y-3989952D01*
X2347857Y-3999476D01*
X2338333Y-3989952D01*
X2347857Y-3980428D01*
X2347857Y-3999476D01*
X2481190Y-3799476D02*
X2500238Y-3799476D01*
X2519286Y-3809000D01*
X2528810Y-3818524D01*
X2538333Y-3837571D01*
X2547857Y-3875667D01*
X2547857Y-3923286D01*
X2538333Y-3961381D01*
X2528810Y-3980428D01*
X2519286Y-3989952D01*
X2500238Y-3999476D01*
X2481190Y-3999476D01*
X2462143Y-3989952D01*
X2452619Y-3980428D01*
X2443095Y-3961381D01*
X2433571Y-3923286D01*
X2433571Y-3875667D01*
X2443095Y-3837571D01*
X2452619Y-3818524D01*
X2462143Y-3809000D01*
X2481190Y-3799476D01*
X2738333Y-3999476D02*
X2624048Y-3999476D01*
X2681190Y-3999476D02*
X2681190Y-3799476D01*
X2662143Y-3828048D01*
X2643095Y-3847095D01*
X2624048Y-3856619D01*
X2833571Y-3999476D02*
X2871667Y-3999476D01*
X2890714Y-3989952D01*
X2900238Y-3980428D01*
X2919286Y-3951857D01*
X2928809Y-3913762D01*
X2928809Y-3837571D01*
X2919286Y-3818524D01*
X2909762Y-3809000D01*
X2890714Y-3799476D01*
X2852619Y-3799476D01*
X2833571Y-3809000D01*
X2824048Y-3818524D01*
X2814524Y-3837571D01*
X2814524Y-3885190D01*
X2824048Y-3904238D01*
X2833571Y-3913762D01*
X2852619Y-3923286D01*
X2890714Y-3923286D01*
X2909762Y-3913762D01*
X2919286Y-3904238D01*
X2928809Y-3885190D01*
X2995476Y-3799476D02*
X3128809Y-3799476D01*
X3043095Y-3999476D01*
X3195476Y-3799476D02*
X3195476Y-3837571D01*
X3271667Y-3799476D02*
X3271667Y-3837571D01*
X3566905Y-4075667D02*
X3557381Y-4066143D01*
X3538333Y-4037571D01*
X3528809Y-4018524D01*
X3519286Y-3989952D01*
X3509762Y-3942333D01*
X3509762Y-3904238D01*
X3519286Y-3856619D01*
X3528809Y-3828048D01*
X3538333Y-3809000D01*
X3557381Y-3780428D01*
X3566905Y-3770905D01*
X3633571Y-3818524D02*
X3643095Y-3809000D01*
X3662143Y-3799476D01*
X3709762Y-3799476D01*
X3728809Y-3809000D01*
X3738333Y-3818524D01*
X3747857Y-3837571D01*
X3747857Y-3856619D01*
X3738333Y-3885190D01*
X3624048Y-3999476D01*
X3747857Y-3999476D01*
X3928809Y-3799476D02*
X3833571Y-3799476D01*
X3824048Y-3894714D01*
X3833571Y-3885190D01*
X3852619Y-3875667D01*
X3900238Y-3875667D01*
X3919286Y-3885190D01*
X3928809Y-3894714D01*
X3938333Y-3913762D01*
X3938333Y-3961381D01*
X3928809Y-3980428D01*
X3919286Y-3989952D01*
X3900238Y-3999476D01*
X3852619Y-3999476D01*
X3833571Y-3989952D01*
X3824048Y-3980428D01*
X4176428Y-3999476D02*
X4176428Y-3799476D01*
X4262143Y-3999476D02*
X4262143Y-3894714D01*
X4252619Y-3875667D01*
X4233571Y-3866143D01*
X4205000Y-3866143D01*
X4185952Y-3875667D01*
X4176428Y-3885190D01*
X4385952Y-3999476D02*
X4366905Y-3989952D01*
X4357381Y-3980428D01*
X4347857Y-3961381D01*
X4347857Y-3904238D01*
X4357381Y-3885190D01*
X4366905Y-3875667D01*
X4385952Y-3866143D01*
X4414524Y-3866143D01*
X4433571Y-3875667D01*
X4443095Y-3885190D01*
X4452619Y-3904238D01*
X4452619Y-3961381D01*
X4443095Y-3980428D01*
X4433571Y-3989952D01*
X4414524Y-3999476D01*
X4385952Y-3999476D01*
X4566905Y-3999476D02*
X4547857Y-3989952D01*
X4538333Y-3970905D01*
X4538333Y-3799476D01*
X4719286Y-3989952D02*
X4700238Y-3999476D01*
X4662143Y-3999476D01*
X4643095Y-3989952D01*
X4633571Y-3970905D01*
X4633571Y-3894714D01*
X4643095Y-3875667D01*
X4662143Y-3866143D01*
X4700238Y-3866143D01*
X4719286Y-3875667D01*
X4728810Y-3894714D01*
X4728810Y-3913762D01*
X4633571Y-3932809D01*
X4805000Y-3989952D02*
X4824048Y-3999476D01*
X4862143Y-3999476D01*
X4881190Y-3989952D01*
X4890714Y-3970905D01*
X4890714Y-3961381D01*
X4881190Y-3942333D01*
X4862143Y-3932809D01*
X4833571Y-3932809D01*
X4814524Y-3923286D01*
X4805000Y-3904238D01*
X4805000Y-3894714D01*
X4814524Y-3875667D01*
X4833571Y-3866143D01*
X4862143Y-3866143D01*
X4881190Y-3875667D01*
X4957381Y-4075667D02*
X4966905Y-4066143D01*
X4985952Y-4037571D01*
X4995476Y-4018524D01*
X5005000Y-3989952D01*
X5014524Y-3942333D01*
X5014524Y-3904238D01*
X5005000Y-3856619D01*
X4995476Y-3828048D01*
X4985952Y-3809000D01*
X4966905Y-3780428D01*
X4957381Y-3770905D01*
D14*
X-35000Y-4143000D02*
X-35000Y-4203000D01*
X-65000Y-4173000D02*
X-5000Y-4173000D01*
D11*
X290714Y-4063476D02*
X309762Y-4063476D01*
X328810Y-4073000D01*
X338333Y-4082524D01*
X347857Y-4101571D01*
X357381Y-4139667D01*
X357381Y-4187286D01*
X347857Y-4225381D01*
X338333Y-4244429D01*
X328810Y-4253952D01*
X309762Y-4263476D01*
X290714Y-4263476D01*
X271667Y-4253952D01*
X262143Y-4244429D01*
X252619Y-4225381D01*
X243095Y-4187286D01*
X243095Y-4139667D01*
X252619Y-4101571D01*
X262143Y-4082524D01*
X271667Y-4073000D01*
X290714Y-4063476D01*
X443095Y-4244429D02*
X452619Y-4253952D01*
X443095Y-4263476D01*
X433571Y-4253952D01*
X443095Y-4244429D01*
X443095Y-4263476D01*
X624048Y-4063476D02*
X585952Y-4063476D01*
X566905Y-4073000D01*
X557381Y-4082524D01*
X538333Y-4111095D01*
X528810Y-4149190D01*
X528810Y-4225381D01*
X538333Y-4244429D01*
X547857Y-4253952D01*
X566905Y-4263476D01*
X605000Y-4263476D01*
X624048Y-4253952D01*
X633571Y-4244429D01*
X643095Y-4225381D01*
X643095Y-4177762D01*
X633571Y-4158714D01*
X624048Y-4149190D01*
X605000Y-4139667D01*
X566905Y-4139667D01*
X547857Y-4149190D01*
X538333Y-4158714D01*
X528810Y-4177762D01*
X766905Y-4063476D02*
X785952Y-4063476D01*
X805000Y-4073000D01*
X814524Y-4082524D01*
X824048Y-4101571D01*
X833571Y-4139667D01*
X833571Y-4187286D01*
X824048Y-4225381D01*
X814524Y-4244429D01*
X805000Y-4253952D01*
X785952Y-4263476D01*
X766905Y-4263476D01*
X747857Y-4253952D01*
X738333Y-4244429D01*
X728809Y-4225381D01*
X719286Y-4187286D01*
X719286Y-4139667D01*
X728809Y-4101571D01*
X738333Y-4082524D01*
X747857Y-4073000D01*
X766905Y-4063476D01*
X957381Y-4063476D02*
X976428Y-4063476D01*
X995476Y-4073000D01*
X1005000Y-4082524D01*
X1014524Y-4101571D01*
X1024048Y-4139667D01*
X1024048Y-4187286D01*
X1014524Y-4225381D01*
X1005000Y-4244429D01*
X995476Y-4253952D01*
X976428Y-4263476D01*
X957381Y-4263476D01*
X938333Y-4253952D01*
X928809Y-4244429D01*
X919286Y-4225381D01*
X909762Y-4187286D01*
X909762Y-4139667D01*
X919286Y-4101571D01*
X928809Y-4082524D01*
X938333Y-4073000D01*
X957381Y-4063476D01*
X1109762Y-4263476D02*
X1109762Y-4130143D01*
X1109762Y-4149190D02*
X1119286Y-4139667D01*
X1138333Y-4130143D01*
X1166905Y-4130143D01*
X1185952Y-4139667D01*
X1195476Y-4158714D01*
X1195476Y-4263476D01*
X1195476Y-4158714D02*
X1205000Y-4139667D01*
X1224048Y-4130143D01*
X1252619Y-4130143D01*
X1271667Y-4139667D01*
X1281190Y-4158714D01*
X1281190Y-4263476D01*
X1376429Y-4263476D02*
X1376429Y-4130143D01*
X1376429Y-4149190D02*
X1385952Y-4139667D01*
X1405000Y-4130143D01*
X1433571Y-4130143D01*
X1452619Y-4139667D01*
X1462143Y-4158714D01*
X1462143Y-4263476D01*
X1462143Y-4158714D02*
X1471667Y-4139667D01*
X1490714Y-4130143D01*
X1519286Y-4130143D01*
X1538333Y-4139667D01*
X1547857Y-4158714D01*
X1547857Y-4263476D01*
X1938333Y-4053952D02*
X1766905Y-4311095D01*
X2195476Y-4063476D02*
X2214524Y-4063476D01*
X2233571Y-4073000D01*
X2243095Y-4082524D01*
X2252619Y-4101571D01*
X2262143Y-4139667D01*
X2262143Y-4187286D01*
X2252619Y-4225381D01*
X2243095Y-4244429D01*
X2233571Y-4253952D01*
X2214524Y-4263476D01*
X2195476Y-4263476D01*
X2176429Y-4253952D01*
X2166905Y-4244429D01*
X2157381Y-4225381D01*
X2147857Y-4187286D01*
X2147857Y-4139667D01*
X2157381Y-4101571D01*
X2166905Y-4082524D01*
X2176429Y-4073000D01*
X2195476Y-4063476D01*
X2347857Y-4244429D02*
X2357381Y-4253952D01*
X2347857Y-4263476D01*
X2338333Y-4253952D01*
X2347857Y-4244429D01*
X2347857Y-4263476D01*
X2481190Y-4063476D02*
X2500238Y-4063476D01*
X2519286Y-4073000D01*
X2528810Y-4082524D01*
X2538333Y-4101571D01*
X2547857Y-4139667D01*
X2547857Y-4187286D01*
X2538333Y-4225381D01*
X2528810Y-4244429D01*
X2519286Y-4253952D01*
X2500238Y-4263476D01*
X2481190Y-4263476D01*
X2462143Y-4253952D01*
X2452619Y-4244429D01*
X2443095Y-4225381D01*
X2433571Y-4187286D01*
X2433571Y-4139667D01*
X2443095Y-4101571D01*
X2452619Y-4082524D01*
X2462143Y-4073000D01*
X2481190Y-4063476D01*
X2624048Y-4082524D02*
X2633571Y-4073000D01*
X2652619Y-4063476D01*
X2700238Y-4063476D01*
X2719286Y-4073000D01*
X2728810Y-4082524D01*
X2738333Y-4101571D01*
X2738333Y-4120619D01*
X2728810Y-4149190D01*
X2614524Y-4263476D01*
X2738333Y-4263476D01*
X2805000Y-4063476D02*
X2928809Y-4063476D01*
X2862143Y-4139667D01*
X2890714Y-4139667D01*
X2909762Y-4149190D01*
X2919286Y-4158714D01*
X2928809Y-4177762D01*
X2928809Y-4225381D01*
X2919286Y-4244429D01*
X2909762Y-4253952D01*
X2890714Y-4263476D01*
X2833571Y-4263476D01*
X2814524Y-4253952D01*
X2805000Y-4244429D01*
X3100238Y-4063476D02*
X3062143Y-4063476D01*
X3043095Y-4073000D01*
X3033571Y-4082524D01*
X3014524Y-4111095D01*
X3005000Y-4149190D01*
X3005000Y-4225381D01*
X3014524Y-4244429D01*
X3024048Y-4253952D01*
X3043095Y-4263476D01*
X3081190Y-4263476D01*
X3100238Y-4253952D01*
X3109762Y-4244429D01*
X3119286Y-4225381D01*
X3119286Y-4177762D01*
X3109762Y-4158714D01*
X3100238Y-4149190D01*
X3081190Y-4139667D01*
X3043095Y-4139667D01*
X3024048Y-4149190D01*
X3014524Y-4158714D01*
X3005000Y-4177762D01*
X3195476Y-4063476D02*
X3195476Y-4101571D01*
X3271667Y-4063476D02*
X3271667Y-4101571D01*
X3566905Y-4339667D02*
X3557381Y-4330143D01*
X3538333Y-4301571D01*
X3528809Y-4282524D01*
X3519286Y-4253952D01*
X3509762Y-4206333D01*
X3509762Y-4168238D01*
X3519286Y-4120619D01*
X3528809Y-4092048D01*
X3538333Y-4073000D01*
X3557381Y-4044428D01*
X3566905Y-4034905D01*
X3681190Y-4063476D02*
X3700238Y-4063476D01*
X3719286Y-4073000D01*
X3728809Y-4082524D01*
X3738333Y-4101571D01*
X3747857Y-4139667D01*
X3747857Y-4187286D01*
X3738333Y-4225381D01*
X3728809Y-4244429D01*
X3719286Y-4253952D01*
X3700238Y-4263476D01*
X3681190Y-4263476D01*
X3662143Y-4253952D01*
X3652619Y-4244429D01*
X3643095Y-4225381D01*
X3633571Y-4187286D01*
X3633571Y-4139667D01*
X3643095Y-4101571D01*
X3652619Y-4082524D01*
X3662143Y-4073000D01*
X3681190Y-4063476D01*
X3985952Y-4263476D02*
X3985952Y-4063476D01*
X4071667Y-4263476D02*
X4071667Y-4158714D01*
X4062143Y-4139667D01*
X4043095Y-4130143D01*
X4014524Y-4130143D01*
X3995476Y-4139667D01*
X3985952Y-4149190D01*
X4195476Y-4263476D02*
X4176428Y-4253952D01*
X4166905Y-4244429D01*
X4157381Y-4225381D01*
X4157381Y-4168238D01*
X4166905Y-4149190D01*
X4176428Y-4139667D01*
X4195476Y-4130143D01*
X4224048Y-4130143D01*
X4243095Y-4139667D01*
X4252619Y-4149190D01*
X4262143Y-4168238D01*
X4262143Y-4225381D01*
X4252619Y-4244429D01*
X4243095Y-4253952D01*
X4224048Y-4263476D01*
X4195476Y-4263476D01*
X4376429Y-4263476D02*
X4357381Y-4253952D01*
X4347857Y-4234905D01*
X4347857Y-4063476D01*
X4528810Y-4253952D02*
X4509762Y-4263476D01*
X4471667Y-4263476D01*
X4452619Y-4253952D01*
X4443095Y-4234905D01*
X4443095Y-4158714D01*
X4452619Y-4139667D01*
X4471667Y-4130143D01*
X4509762Y-4130143D01*
X4528810Y-4139667D01*
X4538333Y-4158714D01*
X4538333Y-4177762D01*
X4443095Y-4196810D01*
X4614524Y-4253952D02*
X4633571Y-4263476D01*
X4671667Y-4263476D01*
X4690714Y-4253952D01*
X4700238Y-4234905D01*
X4700238Y-4225381D01*
X4690714Y-4206333D01*
X4671667Y-4196810D01*
X4643095Y-4196810D01*
X4624048Y-4187286D01*
X4614524Y-4168238D01*
X4614524Y-4158714D01*
X4624048Y-4139667D01*
X4643095Y-4130143D01*
X4671667Y-4130143D01*
X4690714Y-4139667D01*
X4938333Y-4187286D02*
X5090714Y-4187286D01*
X5014524Y-4263476D02*
X5014524Y-4111095D01*
X5328810Y-4082524D02*
X5338333Y-4073000D01*
X5357381Y-4063476D01*
X5405000Y-4063476D01*
X5424048Y-4073000D01*
X5433571Y-4082524D01*
X5443095Y-4101571D01*
X5443095Y-4120619D01*
X5433571Y-4149190D01*
X5319286Y-4263476D01*
X5443095Y-4263476D01*
X5671667Y-4253952D02*
X5690714Y-4263476D01*
X5728809Y-4263476D01*
X5747857Y-4253952D01*
X5757381Y-4234905D01*
X5757381Y-4225381D01*
X5747857Y-4206333D01*
X5728809Y-4196810D01*
X5700238Y-4196810D01*
X5681190Y-4187286D01*
X5671667Y-4168238D01*
X5671667Y-4158714D01*
X5681190Y-4139667D01*
X5700238Y-4130143D01*
X5728809Y-4130143D01*
X5747857Y-4139667D01*
X5871667Y-4263476D02*
X5852619Y-4253952D01*
X5843095Y-4234905D01*
X5843095Y-4063476D01*
X5976428Y-4263476D02*
X5957381Y-4253952D01*
X5947857Y-4244429D01*
X5938333Y-4225381D01*
X5938333Y-4168238D01*
X5947857Y-4149190D01*
X5957381Y-4139667D01*
X5976428Y-4130143D01*
X6005000Y-4130143D01*
X6024048Y-4139667D01*
X6033571Y-4149190D01*
X6043095Y-4168238D01*
X6043095Y-4225381D01*
X6033571Y-4244429D01*
X6024048Y-4253952D01*
X6005000Y-4263476D01*
X5976428Y-4263476D01*
X6100238Y-4130143D02*
X6176428Y-4130143D01*
X6128809Y-4063476D02*
X6128809Y-4234905D01*
X6138333Y-4253952D01*
X6157381Y-4263476D01*
X6176428Y-4263476D01*
X6233571Y-4253952D02*
X6252619Y-4263476D01*
X6290714Y-4263476D01*
X6309762Y-4253952D01*
X6319286Y-4234905D01*
X6319286Y-4225381D01*
X6309762Y-4206333D01*
X6290714Y-4196810D01*
X6262143Y-4196810D01*
X6243095Y-4187286D01*
X6233571Y-4168238D01*
X6233571Y-4158714D01*
X6243095Y-4139667D01*
X6262143Y-4130143D01*
X6290714Y-4130143D01*
X6309762Y-4139667D01*
X6385952Y-4339667D02*
X6395476Y-4330143D01*
X6414524Y-4301571D01*
X6424048Y-4282524D01*
X6433571Y-4253952D01*
X6443095Y-4206333D01*
X6443095Y-4168238D01*
X6433571Y-4120619D01*
X6424048Y-4092048D01*
X6414524Y-4073000D01*
X6395476Y-4044428D01*
X6385952Y-4034905D01*
D15*
X-15251Y-4461749D02*
X-15251Y-4412251D01*
X-64749Y-4412251D01*
X-64749Y-4461749D01*
X-15251Y-4461749D01*
D11*
X290714Y-4327476D02*
X309762Y-4327476D01*
X328810Y-4337000D01*
X338333Y-4346524D01*
X347857Y-4365571D01*
X357381Y-4403667D01*
X357381Y-4451286D01*
X347857Y-4489381D01*
X338333Y-4508429D01*
X328810Y-4517952D01*
X309762Y-4527476D01*
X290714Y-4527476D01*
X271667Y-4517952D01*
X262143Y-4508429D01*
X252619Y-4489381D01*
X243095Y-4451286D01*
X243095Y-4403667D01*
X252619Y-4365571D01*
X262143Y-4346524D01*
X271667Y-4337000D01*
X290714Y-4327476D01*
X443095Y-4508429D02*
X452619Y-4517952D01*
X443095Y-4527476D01*
X433571Y-4517952D01*
X443095Y-4508429D01*
X443095Y-4527476D01*
X519286Y-4327476D02*
X652619Y-4327476D01*
X566905Y-4527476D01*
X766905Y-4327476D02*
X785952Y-4327476D01*
X805000Y-4337000D01*
X814524Y-4346524D01*
X824048Y-4365571D01*
X833571Y-4403667D01*
X833571Y-4451286D01*
X824048Y-4489381D01*
X814524Y-4508429D01*
X805000Y-4517952D01*
X785952Y-4527476D01*
X766905Y-4527476D01*
X747857Y-4517952D01*
X738333Y-4508429D01*
X728809Y-4489381D01*
X719286Y-4451286D01*
X719286Y-4403667D01*
X728809Y-4365571D01*
X738333Y-4346524D01*
X747857Y-4337000D01*
X766905Y-4327476D01*
X957381Y-4327476D02*
X976428Y-4327476D01*
X995476Y-4337000D01*
X1005000Y-4346524D01*
X1014524Y-4365571D01*
X1024048Y-4403667D01*
X1024048Y-4451286D01*
X1014524Y-4489381D01*
X1005000Y-4508429D01*
X995476Y-4517952D01*
X976428Y-4527476D01*
X957381Y-4527476D01*
X938333Y-4517952D01*
X928809Y-4508429D01*
X919286Y-4489381D01*
X909762Y-4451286D01*
X909762Y-4403667D01*
X919286Y-4365571D01*
X928809Y-4346524D01*
X938333Y-4337000D01*
X957381Y-4327476D01*
X1109762Y-4527476D02*
X1109762Y-4394143D01*
X1109762Y-4413190D02*
X1119286Y-4403667D01*
X1138333Y-4394143D01*
X1166905Y-4394143D01*
X1185952Y-4403667D01*
X1195476Y-4422714D01*
X1195476Y-4527476D01*
X1195476Y-4422714D02*
X1205000Y-4403667D01*
X1224048Y-4394143D01*
X1252619Y-4394143D01*
X1271667Y-4403667D01*
X1281190Y-4422714D01*
X1281190Y-4527476D01*
X1376429Y-4527476D02*
X1376429Y-4394143D01*
X1376429Y-4413190D02*
X1385952Y-4403667D01*
X1405000Y-4394143D01*
X1433571Y-4394143D01*
X1452619Y-4403667D01*
X1462143Y-4422714D01*
X1462143Y-4527476D01*
X1462143Y-4422714D02*
X1471667Y-4403667D01*
X1490714Y-4394143D01*
X1519286Y-4394143D01*
X1538333Y-4403667D01*
X1547857Y-4422714D01*
X1547857Y-4527476D01*
X1938333Y-4317952D02*
X1766905Y-4575095D01*
X2195476Y-4327476D02*
X2214524Y-4327476D01*
X2233571Y-4337000D01*
X2243095Y-4346524D01*
X2252619Y-4365571D01*
X2262143Y-4403667D01*
X2262143Y-4451286D01*
X2252619Y-4489381D01*
X2243095Y-4508429D01*
X2233571Y-4517952D01*
X2214524Y-4527476D01*
X2195476Y-4527476D01*
X2176429Y-4517952D01*
X2166905Y-4508429D01*
X2157381Y-4489381D01*
X2147857Y-4451286D01*
X2147857Y-4403667D01*
X2157381Y-4365571D01*
X2166905Y-4346524D01*
X2176429Y-4337000D01*
X2195476Y-4327476D01*
X2347857Y-4508429D02*
X2357381Y-4517952D01*
X2347857Y-4527476D01*
X2338333Y-4517952D01*
X2347857Y-4508429D01*
X2347857Y-4527476D01*
X2481190Y-4327476D02*
X2500238Y-4327476D01*
X2519286Y-4337000D01*
X2528810Y-4346524D01*
X2538333Y-4365571D01*
X2547857Y-4403667D01*
X2547857Y-4451286D01*
X2538333Y-4489381D01*
X2528810Y-4508429D01*
X2519286Y-4517952D01*
X2500238Y-4527476D01*
X2481190Y-4527476D01*
X2462143Y-4517952D01*
X2452619Y-4508429D01*
X2443095Y-4489381D01*
X2433571Y-4451286D01*
X2433571Y-4403667D01*
X2443095Y-4365571D01*
X2452619Y-4346524D01*
X2462143Y-4337000D01*
X2481190Y-4327476D01*
X2624048Y-4346524D02*
X2633571Y-4337000D01*
X2652619Y-4327476D01*
X2700238Y-4327476D01*
X2719286Y-4337000D01*
X2728810Y-4346524D01*
X2738333Y-4365571D01*
X2738333Y-4384619D01*
X2728810Y-4413190D01*
X2614524Y-4527476D01*
X2738333Y-4527476D01*
X2805000Y-4327476D02*
X2938333Y-4327476D01*
X2852619Y-4527476D01*
X3100238Y-4327476D02*
X3062143Y-4327476D01*
X3043095Y-4337000D01*
X3033571Y-4346524D01*
X3014524Y-4375095D01*
X3005000Y-4413190D01*
X3005000Y-4489381D01*
X3014524Y-4508429D01*
X3024048Y-4517952D01*
X3043095Y-4527476D01*
X3081190Y-4527476D01*
X3100238Y-4517952D01*
X3109762Y-4508429D01*
X3119286Y-4489381D01*
X3119286Y-4441762D01*
X3109762Y-4422714D01*
X3100238Y-4413190D01*
X3081190Y-4403667D01*
X3043095Y-4403667D01*
X3024048Y-4413190D01*
X3014524Y-4422714D01*
X3005000Y-4441762D01*
X3195476Y-4327476D02*
X3195476Y-4365571D01*
X3271667Y-4327476D02*
X3271667Y-4365571D01*
X3566905Y-4603667D02*
X3557381Y-4594143D01*
X3538333Y-4565571D01*
X3528809Y-4546524D01*
X3519286Y-4517952D01*
X3509762Y-4470333D01*
X3509762Y-4432238D01*
X3519286Y-4384619D01*
X3528809Y-4356048D01*
X3538333Y-4337000D01*
X3557381Y-4308429D01*
X3566905Y-4298905D01*
X3728809Y-4394143D02*
X3728809Y-4527476D01*
X3681190Y-4317952D02*
X3633571Y-4460810D01*
X3757381Y-4460810D01*
X3985952Y-4527476D02*
X3985952Y-4327476D01*
X4071667Y-4527476D02*
X4071667Y-4422714D01*
X4062143Y-4403667D01*
X4043095Y-4394143D01*
X4014524Y-4394143D01*
X3995476Y-4403667D01*
X3985952Y-4413190D01*
X4195476Y-4527476D02*
X4176428Y-4517952D01*
X4166905Y-4508429D01*
X4157381Y-4489381D01*
X4157381Y-4432238D01*
X4166905Y-4413190D01*
X4176428Y-4403667D01*
X4195476Y-4394143D01*
X4224048Y-4394143D01*
X4243095Y-4403667D01*
X4252619Y-4413190D01*
X4262143Y-4432238D01*
X4262143Y-4489381D01*
X4252619Y-4508429D01*
X4243095Y-4517952D01*
X4224048Y-4527476D01*
X4195476Y-4527476D01*
X4376429Y-4527476D02*
X4357381Y-4517952D01*
X4347857Y-4498905D01*
X4347857Y-4327476D01*
X4528810Y-4517952D02*
X4509762Y-4527476D01*
X4471667Y-4527476D01*
X4452619Y-4517952D01*
X4443095Y-4498905D01*
X4443095Y-4422714D01*
X4452619Y-4403667D01*
X4471667Y-4394143D01*
X4509762Y-4394143D01*
X4528810Y-4403667D01*
X4538333Y-4422714D01*
X4538333Y-4441762D01*
X4443095Y-4460810D01*
X4614524Y-4517952D02*
X4633571Y-4527476D01*
X4671667Y-4527476D01*
X4690714Y-4517952D01*
X4700238Y-4498905D01*
X4700238Y-4489381D01*
X4690714Y-4470333D01*
X4671667Y-4460810D01*
X4643095Y-4460810D01*
X4624048Y-4451286D01*
X4614524Y-4432238D01*
X4614524Y-4422714D01*
X4624048Y-4403667D01*
X4643095Y-4394143D01*
X4671667Y-4394143D01*
X4690714Y-4403667D01*
X4766905Y-4603667D02*
X4776429Y-4594143D01*
X4795476Y-4565571D01*
X4805000Y-4546524D01*
X4814524Y-4517952D01*
X4824048Y-4470333D01*
X4824048Y-4432238D01*
X4814524Y-4384619D01*
X4805000Y-4356048D01*
X4795476Y-4337000D01*
X4776429Y-4308429D01*
X4766905Y-4298905D01*
D16*
X-45000Y-4741000D02*
X-5000Y-4701000D01*
X-45000Y-4661000D01*
X-85000Y-4701000D01*
X-45000Y-4741000D01*
D11*
X290714Y-4591476D02*
X309762Y-4591476D01*
X328810Y-4601000D01*
X338333Y-4610524D01*
X347857Y-4629571D01*
X357381Y-4667667D01*
X357381Y-4715286D01*
X347857Y-4753381D01*
X338333Y-4772429D01*
X328810Y-4781952D01*
X309762Y-4791476D01*
X290714Y-4791476D01*
X271667Y-4781952D01*
X262143Y-4772429D01*
X252619Y-4753381D01*
X243095Y-4715286D01*
X243095Y-4667667D01*
X252619Y-4629571D01*
X262143Y-4610524D01*
X271667Y-4601000D01*
X290714Y-4591476D01*
X443095Y-4772429D02*
X452619Y-4781952D01*
X443095Y-4791476D01*
X433571Y-4781952D01*
X443095Y-4772429D01*
X443095Y-4791476D01*
X566905Y-4677190D02*
X547857Y-4667667D01*
X538333Y-4658143D01*
X528810Y-4639095D01*
X528810Y-4629571D01*
X538333Y-4610524D01*
X547857Y-4601000D01*
X566905Y-4591476D01*
X605000Y-4591476D01*
X624048Y-4601000D01*
X633571Y-4610524D01*
X643095Y-4629571D01*
X643095Y-4639095D01*
X633571Y-4658143D01*
X624048Y-4667667D01*
X605000Y-4677190D01*
X566905Y-4677190D01*
X547857Y-4686714D01*
X538333Y-4696238D01*
X528810Y-4715286D01*
X528810Y-4753381D01*
X538333Y-4772429D01*
X547857Y-4781952D01*
X566905Y-4791476D01*
X605000Y-4791476D01*
X624048Y-4781952D01*
X633571Y-4772429D01*
X643095Y-4753381D01*
X643095Y-4715286D01*
X633571Y-4696238D01*
X624048Y-4686714D01*
X605000Y-4677190D01*
X766905Y-4591476D02*
X785952Y-4591476D01*
X805000Y-4601000D01*
X814524Y-4610524D01*
X824048Y-4629571D01*
X833571Y-4667667D01*
X833571Y-4715286D01*
X824048Y-4753381D01*
X814524Y-4772429D01*
X805000Y-4781952D01*
X785952Y-4791476D01*
X766905Y-4791476D01*
X747857Y-4781952D01*
X738333Y-4772429D01*
X728809Y-4753381D01*
X719286Y-4715286D01*
X719286Y-4667667D01*
X728809Y-4629571D01*
X738333Y-4610524D01*
X747857Y-4601000D01*
X766905Y-4591476D01*
X957381Y-4591476D02*
X976428Y-4591476D01*
X995476Y-4601000D01*
X1005000Y-4610524D01*
X1014524Y-4629571D01*
X1024048Y-4667667D01*
X1024048Y-4715286D01*
X1014524Y-4753381D01*
X1005000Y-4772429D01*
X995476Y-4781952D01*
X976428Y-4791476D01*
X957381Y-4791476D01*
X938333Y-4781952D01*
X928809Y-4772429D01*
X919286Y-4753381D01*
X909762Y-4715286D01*
X909762Y-4667667D01*
X919286Y-4629571D01*
X928809Y-4610524D01*
X938333Y-4601000D01*
X957381Y-4591476D01*
X1109762Y-4791476D02*
X1109762Y-4658143D01*
X1109762Y-4677190D02*
X1119286Y-4667667D01*
X1138333Y-4658143D01*
X1166905Y-4658143D01*
X1185952Y-4667667D01*
X1195476Y-4686714D01*
X1195476Y-4791476D01*
X1195476Y-4686714D02*
X1205000Y-4667667D01*
X1224048Y-4658143D01*
X1252619Y-4658143D01*
X1271667Y-4667667D01*
X1281190Y-4686714D01*
X1281190Y-4791476D01*
X1376429Y-4791476D02*
X1376429Y-4658143D01*
X1376429Y-4677190D02*
X1385952Y-4667667D01*
X1405000Y-4658143D01*
X1433571Y-4658143D01*
X1452619Y-4667667D01*
X1462143Y-4686714D01*
X1462143Y-4791476D01*
X1462143Y-4686714D02*
X1471667Y-4667667D01*
X1490714Y-4658143D01*
X1519286Y-4658143D01*
X1538333Y-4667667D01*
X1547857Y-4686714D01*
X1547857Y-4791476D01*
X1938333Y-4581952D02*
X1766905Y-4839095D01*
X2195476Y-4591476D02*
X2214524Y-4591476D01*
X2233571Y-4601000D01*
X2243095Y-4610524D01*
X2252619Y-4629571D01*
X2262143Y-4667667D01*
X2262143Y-4715286D01*
X2252619Y-4753381D01*
X2243095Y-4772429D01*
X2233571Y-4781952D01*
X2214524Y-4791476D01*
X2195476Y-4791476D01*
X2176429Y-4781952D01*
X2166905Y-4772429D01*
X2157381Y-4753381D01*
X2147857Y-4715286D01*
X2147857Y-4667667D01*
X2157381Y-4629571D01*
X2166905Y-4610524D01*
X2176429Y-4601000D01*
X2195476Y-4591476D01*
X2347857Y-4772429D02*
X2357381Y-4781952D01*
X2347857Y-4791476D01*
X2338333Y-4781952D01*
X2347857Y-4772429D01*
X2347857Y-4791476D01*
X2481190Y-4591476D02*
X2500238Y-4591476D01*
X2519286Y-4601000D01*
X2528810Y-4610524D01*
X2538333Y-4629571D01*
X2547857Y-4667667D01*
X2547857Y-4715286D01*
X2538333Y-4753381D01*
X2528810Y-4772429D01*
X2519286Y-4781952D01*
X2500238Y-4791476D01*
X2481190Y-4791476D01*
X2462143Y-4781952D01*
X2452619Y-4772429D01*
X2443095Y-4753381D01*
X2433571Y-4715286D01*
X2433571Y-4667667D01*
X2443095Y-4629571D01*
X2452619Y-4610524D01*
X2462143Y-4601000D01*
X2481190Y-4591476D01*
X2614524Y-4591476D02*
X2738333Y-4591476D01*
X2671667Y-4667667D01*
X2700238Y-4667667D01*
X2719286Y-4677190D01*
X2728810Y-4686714D01*
X2738333Y-4705762D01*
X2738333Y-4753381D01*
X2728810Y-4772429D01*
X2719286Y-4781952D01*
X2700238Y-4791476D01*
X2643095Y-4791476D01*
X2624048Y-4781952D01*
X2614524Y-4772429D01*
X2928809Y-4791476D02*
X2814524Y-4791476D01*
X2871667Y-4791476D02*
X2871667Y-4591476D01*
X2852619Y-4620048D01*
X2833571Y-4639095D01*
X2814524Y-4648619D01*
X3109762Y-4591476D02*
X3014524Y-4591476D01*
X3005000Y-4686714D01*
X3014524Y-4677190D01*
X3033571Y-4667667D01*
X3081190Y-4667667D01*
X3100238Y-4677190D01*
X3109762Y-4686714D01*
X3119286Y-4705762D01*
X3119286Y-4753381D01*
X3109762Y-4772429D01*
X3100238Y-4781952D01*
X3081190Y-4791476D01*
X3033571Y-4791476D01*
X3014524Y-4781952D01*
X3005000Y-4772429D01*
X3195476Y-4591476D02*
X3195476Y-4629571D01*
X3271667Y-4591476D02*
X3271667Y-4629571D01*
X3566905Y-4867667D02*
X3557381Y-4858143D01*
X3538333Y-4829571D01*
X3528809Y-4810524D01*
X3519286Y-4781952D01*
X3509762Y-4734333D01*
X3509762Y-4696238D01*
X3519286Y-4648619D01*
X3528809Y-4620048D01*
X3538333Y-4601000D01*
X3557381Y-4572429D01*
X3566905Y-4562905D01*
X3671667Y-4677190D02*
X3652619Y-4667667D01*
X3643095Y-4658143D01*
X3633571Y-4639095D01*
X3633571Y-4629571D01*
X3643095Y-4610524D01*
X3652619Y-4601000D01*
X3671667Y-4591476D01*
X3709762Y-4591476D01*
X3728809Y-4601000D01*
X3738333Y-4610524D01*
X3747857Y-4629571D01*
X3747857Y-4639095D01*
X3738333Y-4658143D01*
X3728809Y-4667667D01*
X3709762Y-4677190D01*
X3671667Y-4677190D01*
X3652619Y-4686714D01*
X3643095Y-4696238D01*
X3633571Y-4715286D01*
X3633571Y-4753381D01*
X3643095Y-4772429D01*
X3652619Y-4781952D01*
X3671667Y-4791476D01*
X3709762Y-4791476D01*
X3728809Y-4781952D01*
X3738333Y-4772429D01*
X3747857Y-4753381D01*
X3747857Y-4715286D01*
X3738333Y-4696238D01*
X3728809Y-4686714D01*
X3709762Y-4677190D01*
X3985952Y-4791476D02*
X3985952Y-4591476D01*
X4071667Y-4791476D02*
X4071667Y-4686714D01*
X4062143Y-4667667D01*
X4043095Y-4658143D01*
X4014524Y-4658143D01*
X3995476Y-4667667D01*
X3985952Y-4677190D01*
X4195476Y-4791476D02*
X4176428Y-4781952D01*
X4166905Y-4772429D01*
X4157381Y-4753381D01*
X4157381Y-4696238D01*
X4166905Y-4677190D01*
X4176428Y-4667667D01*
X4195476Y-4658143D01*
X4224048Y-4658143D01*
X4243095Y-4667667D01*
X4252619Y-4677190D01*
X4262143Y-4696238D01*
X4262143Y-4753381D01*
X4252619Y-4772429D01*
X4243095Y-4781952D01*
X4224048Y-4791476D01*
X4195476Y-4791476D01*
X4376429Y-4791476D02*
X4357381Y-4781952D01*
X4347857Y-4762905D01*
X4347857Y-4591476D01*
X4528810Y-4781952D02*
X4509762Y-4791476D01*
X4471667Y-4791476D01*
X4452619Y-4781952D01*
X4443095Y-4762905D01*
X4443095Y-4686714D01*
X4452619Y-4667667D01*
X4471667Y-4658143D01*
X4509762Y-4658143D01*
X4528810Y-4667667D01*
X4538333Y-4686714D01*
X4538333Y-4705762D01*
X4443095Y-4724810D01*
X4614524Y-4781952D02*
X4633571Y-4791476D01*
X4671667Y-4791476D01*
X4690714Y-4781952D01*
X4700238Y-4762905D01*
X4700238Y-4753381D01*
X4690714Y-4734333D01*
X4671667Y-4724810D01*
X4643095Y-4724810D01*
X4624048Y-4715286D01*
X4614524Y-4696238D01*
X4614524Y-4686714D01*
X4624048Y-4667667D01*
X4643095Y-4658143D01*
X4671667Y-4658143D01*
X4690714Y-4667667D01*
X4766905Y-4867667D02*
X4776429Y-4858143D01*
X4795476Y-4829571D01*
X4805000Y-4810524D01*
X4814524Y-4781952D01*
X4824048Y-4734333D01*
X4824048Y-4696238D01*
X4814524Y-4648619D01*
X4805000Y-4620048D01*
X4795476Y-4601000D01*
X4776429Y-4572429D01*
X4766905Y-4562905D01*
D17*
X-90000Y-4922500D02*
X-5000Y-5007500D01*
X-5000Y-4922500D02*
X-90000Y-5007500D01*
X-5000Y-4965000D02*
G75*
G03*
X-5000Y-4965000I-42500J0D01*
G01*
D11*
X290714Y-4855476D02*
X309762Y-4855476D01*
X328810Y-4865000D01*
X338333Y-4874524D01*
X347857Y-4893571D01*
X357381Y-4931667D01*
X357381Y-4979286D01*
X347857Y-5017381D01*
X338333Y-5036429D01*
X328810Y-5045952D01*
X309762Y-5055476D01*
X290714Y-5055476D01*
X271667Y-5045952D01*
X262143Y-5036429D01*
X252619Y-5017381D01*
X243095Y-4979286D01*
X243095Y-4931667D01*
X252619Y-4893571D01*
X262143Y-4874524D01*
X271667Y-4865000D01*
X290714Y-4855476D01*
X443095Y-5036429D02*
X452619Y-5045952D01*
X443095Y-5055476D01*
X433571Y-5045952D01*
X443095Y-5036429D01*
X443095Y-5055476D01*
X566905Y-4941190D02*
X547857Y-4931667D01*
X538333Y-4922143D01*
X528810Y-4903095D01*
X528810Y-4893571D01*
X538333Y-4874524D01*
X547857Y-4865000D01*
X566905Y-4855476D01*
X605000Y-4855476D01*
X624048Y-4865000D01*
X633571Y-4874524D01*
X643095Y-4893571D01*
X643095Y-4903095D01*
X633571Y-4922143D01*
X624048Y-4931667D01*
X605000Y-4941190D01*
X566905Y-4941190D01*
X547857Y-4950714D01*
X538333Y-4960238D01*
X528810Y-4979286D01*
X528810Y-5017381D01*
X538333Y-5036429D01*
X547857Y-5045952D01*
X566905Y-5055476D01*
X605000Y-5055476D01*
X624048Y-5045952D01*
X633571Y-5036429D01*
X643095Y-5017381D01*
X643095Y-4979286D01*
X633571Y-4960238D01*
X624048Y-4950714D01*
X605000Y-4941190D01*
X824048Y-4855476D02*
X728809Y-4855476D01*
X719286Y-4950714D01*
X728809Y-4941190D01*
X747857Y-4931667D01*
X795476Y-4931667D01*
X814524Y-4941190D01*
X824048Y-4950714D01*
X833571Y-4969762D01*
X833571Y-5017381D01*
X824048Y-5036429D01*
X814524Y-5045952D01*
X795476Y-5055476D01*
X747857Y-5055476D01*
X728809Y-5045952D01*
X719286Y-5036429D01*
X957381Y-4855476D02*
X976428Y-4855476D01*
X995476Y-4865000D01*
X1005000Y-4874524D01*
X1014524Y-4893571D01*
X1024048Y-4931667D01*
X1024048Y-4979286D01*
X1014524Y-5017381D01*
X1005000Y-5036429D01*
X995476Y-5045952D01*
X976428Y-5055476D01*
X957381Y-5055476D01*
X938333Y-5045952D01*
X928809Y-5036429D01*
X919286Y-5017381D01*
X909762Y-4979286D01*
X909762Y-4931667D01*
X919286Y-4893571D01*
X928809Y-4874524D01*
X938333Y-4865000D01*
X957381Y-4855476D01*
X1109762Y-5055476D02*
X1109762Y-4922143D01*
X1109762Y-4941190D02*
X1119286Y-4931667D01*
X1138333Y-4922143D01*
X1166905Y-4922143D01*
X1185952Y-4931667D01*
X1195476Y-4950714D01*
X1195476Y-5055476D01*
X1195476Y-4950714D02*
X1205000Y-4931667D01*
X1224048Y-4922143D01*
X1252619Y-4922143D01*
X1271667Y-4931667D01*
X1281190Y-4950714D01*
X1281190Y-5055476D01*
X1376429Y-5055476D02*
X1376429Y-4922143D01*
X1376429Y-4941190D02*
X1385952Y-4931667D01*
X1405000Y-4922143D01*
X1433571Y-4922143D01*
X1452619Y-4931667D01*
X1462143Y-4950714D01*
X1462143Y-5055476D01*
X1462143Y-4950714D02*
X1471667Y-4931667D01*
X1490714Y-4922143D01*
X1519286Y-4922143D01*
X1538333Y-4931667D01*
X1547857Y-4950714D01*
X1547857Y-5055476D01*
X1938333Y-4845952D02*
X1766905Y-5103095D01*
X2195476Y-4855476D02*
X2214524Y-4855476D01*
X2233571Y-4865000D01*
X2243095Y-4874524D01*
X2252619Y-4893571D01*
X2262143Y-4931667D01*
X2262143Y-4979286D01*
X2252619Y-5017381D01*
X2243095Y-5036429D01*
X2233571Y-5045952D01*
X2214524Y-5055476D01*
X2195476Y-5055476D01*
X2176429Y-5045952D01*
X2166905Y-5036429D01*
X2157381Y-5017381D01*
X2147857Y-4979286D01*
X2147857Y-4931667D01*
X2157381Y-4893571D01*
X2166905Y-4874524D01*
X2176429Y-4865000D01*
X2195476Y-4855476D01*
X2347857Y-5036429D02*
X2357381Y-5045952D01*
X2347857Y-5055476D01*
X2338333Y-5045952D01*
X2347857Y-5036429D01*
X2347857Y-5055476D01*
X2481190Y-4855476D02*
X2500238Y-4855476D01*
X2519286Y-4865000D01*
X2528810Y-4874524D01*
X2538333Y-4893571D01*
X2547857Y-4931667D01*
X2547857Y-4979286D01*
X2538333Y-5017381D01*
X2528810Y-5036429D01*
X2519286Y-5045952D01*
X2500238Y-5055476D01*
X2481190Y-5055476D01*
X2462143Y-5045952D01*
X2452619Y-5036429D01*
X2443095Y-5017381D01*
X2433571Y-4979286D01*
X2433571Y-4931667D01*
X2443095Y-4893571D01*
X2452619Y-4874524D01*
X2462143Y-4865000D01*
X2481190Y-4855476D01*
X2614524Y-4855476D02*
X2738333Y-4855476D01*
X2671667Y-4931667D01*
X2700238Y-4931667D01*
X2719286Y-4941190D01*
X2728810Y-4950714D01*
X2738333Y-4969762D01*
X2738333Y-5017381D01*
X2728810Y-5036429D01*
X2719286Y-5045952D01*
X2700238Y-5055476D01*
X2643095Y-5055476D01*
X2624048Y-5045952D01*
X2614524Y-5036429D01*
X2805000Y-4855476D02*
X2928809Y-4855476D01*
X2862143Y-4931667D01*
X2890714Y-4931667D01*
X2909762Y-4941190D01*
X2919286Y-4950714D01*
X2928809Y-4969762D01*
X2928809Y-5017381D01*
X2919286Y-5036429D01*
X2909762Y-5045952D01*
X2890714Y-5055476D01*
X2833571Y-5055476D01*
X2814524Y-5045952D01*
X2805000Y-5036429D01*
X3109762Y-4855476D02*
X3014524Y-4855476D01*
X3005000Y-4950714D01*
X3014524Y-4941190D01*
X3033571Y-4931667D01*
X3081190Y-4931667D01*
X3100238Y-4941190D01*
X3109762Y-4950714D01*
X3119286Y-4969762D01*
X3119286Y-5017381D01*
X3109762Y-5036429D01*
X3100238Y-5045952D01*
X3081190Y-5055476D01*
X3033571Y-5055476D01*
X3014524Y-5045952D01*
X3005000Y-5036429D01*
X3195476Y-4855476D02*
X3195476Y-4893571D01*
X3271667Y-4855476D02*
X3271667Y-4893571D01*
X3566905Y-5131667D02*
X3557381Y-5122143D01*
X3538333Y-5093571D01*
X3528809Y-5074524D01*
X3519286Y-5045952D01*
X3509762Y-4998333D01*
X3509762Y-4960238D01*
X3519286Y-4912619D01*
X3528809Y-4884048D01*
X3538333Y-4865000D01*
X3557381Y-4836429D01*
X3566905Y-4826905D01*
X3633571Y-4874524D02*
X3643095Y-4865000D01*
X3662143Y-4855476D01*
X3709762Y-4855476D01*
X3728809Y-4865000D01*
X3738333Y-4874524D01*
X3747857Y-4893571D01*
X3747857Y-4912619D01*
X3738333Y-4941190D01*
X3624048Y-5055476D01*
X3747857Y-5055476D01*
X3985952Y-5055476D02*
X3985952Y-4855476D01*
X4071667Y-5055476D02*
X4071667Y-4950714D01*
X4062143Y-4931667D01*
X4043095Y-4922143D01*
X4014524Y-4922143D01*
X3995476Y-4931667D01*
X3985952Y-4941190D01*
X4195476Y-5055476D02*
X4176428Y-5045952D01*
X4166905Y-5036429D01*
X4157381Y-5017381D01*
X4157381Y-4960238D01*
X4166905Y-4941190D01*
X4176428Y-4931667D01*
X4195476Y-4922143D01*
X4224048Y-4922143D01*
X4243095Y-4931667D01*
X4252619Y-4941190D01*
X4262143Y-4960238D01*
X4262143Y-5017381D01*
X4252619Y-5036429D01*
X4243095Y-5045952D01*
X4224048Y-5055476D01*
X4195476Y-5055476D01*
X4376429Y-5055476D02*
X4357381Y-5045952D01*
X4347857Y-5026905D01*
X4347857Y-4855476D01*
X4528810Y-5045952D02*
X4509762Y-5055476D01*
X4471667Y-5055476D01*
X4452619Y-5045952D01*
X4443095Y-5026905D01*
X4443095Y-4950714D01*
X4452619Y-4931667D01*
X4471667Y-4922143D01*
X4509762Y-4922143D01*
X4528810Y-4931667D01*
X4538333Y-4950714D01*
X4538333Y-4969762D01*
X4443095Y-4988810D01*
X4614524Y-5045952D02*
X4633571Y-5055476D01*
X4671667Y-5055476D01*
X4690714Y-5045952D01*
X4700238Y-5026905D01*
X4700238Y-5017381D01*
X4690714Y-4998333D01*
X4671667Y-4988810D01*
X4643095Y-4988810D01*
X4624048Y-4979286D01*
X4614524Y-4960238D01*
X4614524Y-4950714D01*
X4624048Y-4931667D01*
X4643095Y-4922143D01*
X4671667Y-4922143D01*
X4690714Y-4931667D01*
X4766905Y-5131667D02*
X4776429Y-5122143D01*
X4795476Y-5093571D01*
X4805000Y-5074524D01*
X4814524Y-5045952D01*
X4824048Y-4998333D01*
X4824048Y-4960238D01*
X4814524Y-4912619D01*
X4805000Y-4884048D01*
X4795476Y-4865000D01*
X4776429Y-4836429D01*
X4766905Y-4826905D01*
D10*
X-105000Y-5179000D02*
X-5000Y-5279000D01*
X-5000Y-5179000D02*
X-105000Y-5279000D01*
X-55000Y-5179000D02*
X-55000Y-5279000D01*
X-105000Y-5229000D02*
X-5000Y-5229000D01*
D11*
X357381Y-5319476D02*
X243095Y-5319476D01*
X300238Y-5319476D02*
X300238Y-5119476D01*
X281190Y-5148048D01*
X262143Y-5167095D01*
X243095Y-5176619D01*
X443095Y-5300429D02*
X452619Y-5309952D01*
X443095Y-5319476D01*
X433571Y-5309952D01*
X443095Y-5300429D01*
X443095Y-5319476D01*
X576429Y-5119476D02*
X595476Y-5119476D01*
X614524Y-5129000D01*
X624048Y-5138524D01*
X633571Y-5157571D01*
X643095Y-5195667D01*
X643095Y-5243286D01*
X633571Y-5281381D01*
X624048Y-5300429D01*
X614524Y-5309952D01*
X595476Y-5319476D01*
X576429Y-5319476D01*
X557381Y-5309952D01*
X547857Y-5300429D01*
X538333Y-5281381D01*
X528810Y-5243286D01*
X528810Y-5195667D01*
X538333Y-5157571D01*
X547857Y-5138524D01*
X557381Y-5129000D01*
X576429Y-5119476D01*
X766905Y-5119476D02*
X785952Y-5119476D01*
X805000Y-5129000D01*
X814524Y-5138524D01*
X824048Y-5157571D01*
X833571Y-5195667D01*
X833571Y-5243286D01*
X824048Y-5281381D01*
X814524Y-5300429D01*
X805000Y-5309952D01*
X785952Y-5319476D01*
X766905Y-5319476D01*
X747857Y-5309952D01*
X738333Y-5300429D01*
X728809Y-5281381D01*
X719286Y-5243286D01*
X719286Y-5195667D01*
X728809Y-5157571D01*
X738333Y-5138524D01*
X747857Y-5129000D01*
X766905Y-5119476D01*
X957381Y-5119476D02*
X976428Y-5119476D01*
X995476Y-5129000D01*
X1005000Y-5138524D01*
X1014524Y-5157571D01*
X1024048Y-5195667D01*
X1024048Y-5243286D01*
X1014524Y-5281381D01*
X1005000Y-5300429D01*
X995476Y-5309952D01*
X976428Y-5319476D01*
X957381Y-5319476D01*
X938333Y-5309952D01*
X928809Y-5300429D01*
X919286Y-5281381D01*
X909762Y-5243286D01*
X909762Y-5195667D01*
X919286Y-5157571D01*
X928809Y-5138524D01*
X938333Y-5129000D01*
X957381Y-5119476D01*
X1109762Y-5319476D02*
X1109762Y-5186143D01*
X1109762Y-5205190D02*
X1119286Y-5195667D01*
X1138333Y-5186143D01*
X1166905Y-5186143D01*
X1185952Y-5195667D01*
X1195476Y-5214714D01*
X1195476Y-5319476D01*
X1195476Y-5214714D02*
X1205000Y-5195667D01*
X1224048Y-5186143D01*
X1252619Y-5186143D01*
X1271667Y-5195667D01*
X1281190Y-5214714D01*
X1281190Y-5319476D01*
X1376429Y-5319476D02*
X1376429Y-5186143D01*
X1376429Y-5205190D02*
X1385952Y-5195667D01*
X1405000Y-5186143D01*
X1433571Y-5186143D01*
X1452619Y-5195667D01*
X1462143Y-5214714D01*
X1462143Y-5319476D01*
X1462143Y-5214714D02*
X1471667Y-5195667D01*
X1490714Y-5186143D01*
X1519286Y-5186143D01*
X1538333Y-5195667D01*
X1547857Y-5214714D01*
X1547857Y-5319476D01*
X1938333Y-5109952D02*
X1766905Y-5367095D01*
X2195476Y-5119476D02*
X2214524Y-5119476D01*
X2233571Y-5129000D01*
X2243095Y-5138524D01*
X2252619Y-5157571D01*
X2262143Y-5195667D01*
X2262143Y-5243286D01*
X2252619Y-5281381D01*
X2243095Y-5300429D01*
X2233571Y-5309952D01*
X2214524Y-5319476D01*
X2195476Y-5319476D01*
X2176429Y-5309952D01*
X2166905Y-5300429D01*
X2157381Y-5281381D01*
X2147857Y-5243286D01*
X2147857Y-5195667D01*
X2157381Y-5157571D01*
X2166905Y-5138524D01*
X2176429Y-5129000D01*
X2195476Y-5119476D01*
X2347857Y-5300429D02*
X2357381Y-5309952D01*
X2347857Y-5319476D01*
X2338333Y-5309952D01*
X2347857Y-5300429D01*
X2347857Y-5319476D01*
X2481190Y-5119476D02*
X2500238Y-5119476D01*
X2519286Y-5129000D01*
X2528810Y-5138524D01*
X2538333Y-5157571D01*
X2547857Y-5195667D01*
X2547857Y-5243286D01*
X2538333Y-5281381D01*
X2528810Y-5300429D01*
X2519286Y-5309952D01*
X2500238Y-5319476D01*
X2481190Y-5319476D01*
X2462143Y-5309952D01*
X2452619Y-5300429D01*
X2443095Y-5281381D01*
X2433571Y-5243286D01*
X2433571Y-5195667D01*
X2443095Y-5157571D01*
X2452619Y-5138524D01*
X2462143Y-5129000D01*
X2481190Y-5119476D01*
X2614524Y-5119476D02*
X2738333Y-5119476D01*
X2671667Y-5195667D01*
X2700238Y-5195667D01*
X2719286Y-5205190D01*
X2728810Y-5214714D01*
X2738333Y-5233762D01*
X2738333Y-5281381D01*
X2728810Y-5300429D01*
X2719286Y-5309952D01*
X2700238Y-5319476D01*
X2643095Y-5319476D01*
X2624048Y-5309952D01*
X2614524Y-5300429D01*
X2833571Y-5319476D02*
X2871667Y-5319476D01*
X2890714Y-5309952D01*
X2900238Y-5300429D01*
X2919286Y-5271857D01*
X2928809Y-5233762D01*
X2928809Y-5157571D01*
X2919286Y-5138524D01*
X2909762Y-5129000D01*
X2890714Y-5119476D01*
X2852619Y-5119476D01*
X2833571Y-5129000D01*
X2824048Y-5138524D01*
X2814524Y-5157571D01*
X2814524Y-5205190D01*
X2824048Y-5224238D01*
X2833571Y-5233762D01*
X2852619Y-5243286D01*
X2890714Y-5243286D01*
X2909762Y-5233762D01*
X2919286Y-5224238D01*
X2928809Y-5205190D01*
X3100238Y-5186143D02*
X3100238Y-5319476D01*
X3052619Y-5109952D02*
X3005000Y-5252810D01*
X3128809Y-5252810D01*
X3195476Y-5119476D02*
X3195476Y-5157571D01*
X3271667Y-5119476D02*
X3271667Y-5157571D01*
X3566905Y-5395667D02*
X3557381Y-5386143D01*
X3538333Y-5357571D01*
X3528809Y-5338524D01*
X3519286Y-5309952D01*
X3509762Y-5262333D01*
X3509762Y-5224238D01*
X3519286Y-5176619D01*
X3528809Y-5148048D01*
X3538333Y-5129000D01*
X3557381Y-5100429D01*
X3566905Y-5090905D01*
X3747857Y-5319476D02*
X3633571Y-5319476D01*
X3690714Y-5319476D02*
X3690714Y-5119476D01*
X3671667Y-5148048D01*
X3652619Y-5167095D01*
X3633571Y-5176619D01*
X3928809Y-5119476D02*
X3833571Y-5119476D01*
X3824048Y-5214714D01*
X3833571Y-5205190D01*
X3852619Y-5195667D01*
X3900238Y-5195667D01*
X3919286Y-5205190D01*
X3928809Y-5214714D01*
X3938333Y-5233762D01*
X3938333Y-5281381D01*
X3928809Y-5300429D01*
X3919286Y-5309952D01*
X3900238Y-5319476D01*
X3852619Y-5319476D01*
X3833571Y-5309952D01*
X3824048Y-5300429D01*
X4176428Y-5319476D02*
X4176428Y-5119476D01*
X4262143Y-5319476D02*
X4262143Y-5214714D01*
X4252619Y-5195667D01*
X4233571Y-5186143D01*
X4205000Y-5186143D01*
X4185952Y-5195667D01*
X4176428Y-5205190D01*
X4385952Y-5319476D02*
X4366905Y-5309952D01*
X4357381Y-5300429D01*
X4347857Y-5281381D01*
X4347857Y-5224238D01*
X4357381Y-5205190D01*
X4366905Y-5195667D01*
X4385952Y-5186143D01*
X4414524Y-5186143D01*
X4433571Y-5195667D01*
X4443095Y-5205190D01*
X4452619Y-5224238D01*
X4452619Y-5281381D01*
X4443095Y-5300429D01*
X4433571Y-5309952D01*
X4414524Y-5319476D01*
X4385952Y-5319476D01*
X4566905Y-5319476D02*
X4547857Y-5309952D01*
X4538333Y-5290905D01*
X4538333Y-5119476D01*
X4719286Y-5309952D02*
X4700238Y-5319476D01*
X4662143Y-5319476D01*
X4643095Y-5309952D01*
X4633571Y-5290905D01*
X4633571Y-5214714D01*
X4643095Y-5195667D01*
X4662143Y-5186143D01*
X4700238Y-5186143D01*
X4719286Y-5195667D01*
X4728810Y-5214714D01*
X4728810Y-5233762D01*
X4633571Y-5252810D01*
X4805000Y-5309952D02*
X4824048Y-5319476D01*
X4862143Y-5319476D01*
X4881190Y-5309952D01*
X4890714Y-5290905D01*
X4890714Y-5281381D01*
X4881190Y-5262333D01*
X4862143Y-5252810D01*
X4833571Y-5252810D01*
X4814524Y-5243286D01*
X4805000Y-5224238D01*
X4805000Y-5214714D01*
X4814524Y-5195667D01*
X4833571Y-5186143D01*
X4862143Y-5186143D01*
X4881190Y-5195667D01*
X4957381Y-5395667D02*
X4966905Y-5386143D01*
X4985952Y-5357571D01*
X4995476Y-5338524D01*
X5005000Y-5309952D01*
X5014524Y-5262333D01*
X5014524Y-5224238D01*
X5005000Y-5176619D01*
X4995476Y-5148048D01*
X4985952Y-5129000D01*
X4966905Y-5100429D01*
X4957381Y-5090905D01*
M02*
